<svg width="393" height="852" viewBox="0 0 393 852" fill="none" xmlns="http://www.w3.org/2000/svg">
    <path d="M355.872 279.41C340.578 251.834 305.824 241.892 278.261 257.18L333.652 357.025C361.228 341.73 371.17 306.976 355.882 279.413L355.872 279.41Z" fill="#B22104"/>
    <path d="M341.957 287.134C326.662 259.558 298.146 246.159 278.261 257.18L333.652 357.025C353.531 345.991 357.255 314.7 341.957 287.134Z" fill="#EA4C2D"/>
    <path d="M291.004 271.49L298.868 285.667C299.175 286.231 299.608 286.712 300.124 287.074C301.822 288.279 304.024 289.884 306.328 291.675C311.29 295.517 312.696 295.518 316.32 304.025C318.927 310.152 318.384 315.353 317.875 317.773C317.663 318.787 317.823 319.828 318.317 320.732L328.25 338.645C329.695 341.251 333.297 341.619 335.259 339.365C343.548 329.826 342.896 310.339 332.832 292.199C322.761 274.047 306.576 263.18 294.099 265.175C291.153 265.643 289.556 268.894 291.001 271.5L291.004 271.49Z" fill="#B22104"/>
    <path d="M335.141 331.71C335.141 331.71 330.221 330.198 327.788 325.666C325.355 321.134 322.337 320.371 323.878 319.754C325.418 319.137 325.338 321.689 328.158 322.086C330.966 322.489 332.762 321.18 334.696 324.107C336.629 327.035 338.211 331.73 335.144 331.7L335.141 331.71Z" fill="#E0653F"/>
    <path d="M335.366 330.923C335.366 330.923 331.157 329.134 329.845 327.199C328.536 325.255 327.337 324.311 328.155 324.57C328.963 324.825 329.696 326.068 330.857 327.029C332.017 327.991 336.385 331.062 335.366 330.923Z" fill="#EF8975"/>
    <path d="M336.967 312.931C336.967 312.931 331.943 314.037 327.589 311.288C323.234 308.538 320.237 309.358 321.276 308.066C322.306 306.771 323.182 307.938 325.821 306.907C328.464 305.867 329.701 304.941 332.836 306.539C335.961 308.134 339.652 311.441 336.967 312.931Z" fill="#E0653F"/>
    <path d="M336.776 312.123C336.776 312.123 332.237 312.639 330.141 311.6C328.046 310.561 326.534 310.321 327.37 310.142C328.202 309.971 329.449 310.689 330.929 310.959C332.412 311.221 337.726 311.741 336.776 312.123Z" fill="#EF8975"/>
    <path d="M328.683 289.111C328.683 289.111 326.458 293.746 321.621 295.489C316.774 297.228 315.579 300.093 315.19 298.475C314.811 296.86 315.801 296.217 316.618 293.493C317.436 290.77 317.922 289.906 321.112 288.425C324.292 286.94 329.169 286.068 328.696 289.104L328.683 289.111Z" fill="#E0653F"/>
    <path d="M327.926 288.768C327.926 288.768 325.538 292.669 323.426 293.675C321.313 294.682 320.203 295.726 320.571 294.958C320.948 294.193 322.279 293.66 323.407 292.654C324.536 291.647 328.212 287.78 327.926 288.768Z" fill="#EF8975"/>
    <path d="M314.494 274.615C314.494 274.615 316.643 279.617 313.555 283.736C310.466 287.854 309.587 290.989 308.383 289.854C307.178 288.718 309.523 287.71 308.702 284.986C307.88 282.263 305.943 281.195 307.787 278.201C309.628 275.216 313.217 271.804 314.488 274.602L314.494 274.615Z" fill="#E0653F"/>
    <path d="M313.674 274.748C313.674 274.748 313.82 279.315 312.613 281.319C311.405 283.323 311.049 284.804 310.936 283.961C310.832 283.12 311.656 281.932 312.036 280.47C312.427 279.011 313.371 273.753 313.668 274.735L313.674 274.748Z" fill="#EF8975"/>
    <path d="M299.707 268.295C299.707 268.295 303.063 272.191 302.701 277.329C302.338 282.467 304.48 284.717 302.853 284.415C301.226 284.113 301.936 283.096 299.773 281.261C297.611 279.426 297.396 276.633 297.318 273.126C297.239 269.619 297.113 266.635 299.698 268.291L299.707 268.295Z" fill="#E0653F"/>
    <path d="M299.09 268.848C299.09 268.848 301.692 272.604 301.77 274.947C301.849 277.291 302.345 278.725 301.802 278.078C301.25 277.428 301.306 275.988 300.832 274.551C300.358 273.114 298.308 268.19 299.09 268.848Z" fill="#EF8975"/>
    <path opacity="0.5" d="M291.155 277.032L333.089 352.617C335.445 356.857 341.56 346.558 337.998 337.132C334.438 327.696 316.186 314.605 311.602 307.672C308.697 303.279 298.71 287.546 291.793 276.634C291.526 276.223 290.908 276.596 291.145 277.029L291.155 277.032Z" fill="#FCBAA2"/>
    <path opacity="0.5" d="M305.794 258.229C312.88 262.042 326.255 270.517 333.402 283.403C341.924 298.765 345.662 310.294 348.172 320.362C348.336 321.034 349.335 320.87 349.282 320.185C348.727 312.533 346.302 297.662 336.441 281.721C326.563 265.741 313.394 259.517 306.251 257.207C305.596 256.996 305.188 257.909 305.8 258.242L305.794 258.229Z" fill="#FCBAA2"/>
    <path d="M132.709 131.893H259.071C282.853 131.893 302.145 151.185 302.145 174.966V243.267C302.145 265.824 284.782 284.3 262.707 286.155V329.896C262.707 329.896 249.796 302.59 234.956 286.34H132.746C108.965 286.34 89.6729 267.048 89.6729 243.267V174.966C89.6729 151.185 108.965 131.893 132.746 131.893H132.709Z" fill="white"/>
    <path d="M262.669 332.827C262.891 332.827 263.077 332.827 263.3 332.753C264.635 332.456 265.563 331.269 265.563 329.934V288.79C287.897 285.599 305 266.122 305 243.305V174.967C305.037 149.628 284.409 129 259.07 129H132.745C107.405 129 86.7778 149.628 86.7778 174.967V243.268C86.7778 268.607 107.405 289.235 132.745 289.235H233.657C247.68 305.077 259.923 330.861 260.072 331.121C260.554 332.16 261.593 332.79 262.706 332.79L262.669 332.827ZM259.07 134.825C281.219 134.825 299.212 152.818 299.212 174.967V243.268C299.212 263.97 283.037 281.555 262.409 283.262C260.888 283.373 259.738 284.634 259.738 286.156V317.876C254.544 308.341 246.196 294.392 237.033 284.375C236.476 283.781 235.697 283.447 234.881 283.447H132.671C110.522 283.447 92.4912 265.417 92.4912 243.268V174.967C92.4912 152.818 110.522 134.788 132.671 134.788H259.07V134.825Z" fill="#231F20"/>
    <path d="M288.753 637.113L310.368 493.492C311.576 485.505 306.481 477.922 298.636 476.002L238.083 461.237C236.875 460.953 235.642 460.787 234.386 460.787H159.282C158.025 460.787 156.793 460.929 155.584 461.237L95.0315 476.002C87.1869 477.922 82.0914 485.505 83.3001 493.492L104.914 637.113C106.076 644.744 112.617 650.385 120.343 650.385H273.301C281.027 650.385 287.592 644.744 288.73 637.113H288.753Z" fill="#F2E7DD"/>
    <path d="M273.327 652.257H120.368C111.647 652.257 104.395 646.001 103.091 637.398L81.4532 493.777C80.1023 484.771 85.7429 476.358 94.5829 474.201L155.136 459.436C156.487 459.104 157.885 458.938 159.283 458.938H234.388C235.786 458.938 237.184 459.104 238.535 459.436L299.088 474.201C307.928 476.358 313.569 484.771 312.218 493.777L290.604 637.398C289.3 646.001 282.048 652.257 273.327 652.257ZM159.307 462.659C158.217 462.659 157.103 462.802 156.06 463.062L95.5072 477.827C88.5395 479.534 84.1076 486.146 85.1741 493.232L106.812 636.853C107.831 643.631 113.543 648.56 120.416 648.56H273.374C280.223 648.56 285.959 643.631 286.978 636.853L308.592 493.232C309.658 486.146 305.203 479.534 298.259 477.827L237.706 463.062C236.639 462.802 235.549 462.659 234.459 462.659H159.354H159.307Z" fill="#231F20"/>
    <path d="M145.583 365.797H134.136C127.809 365.797 122.689 360.678 122.689 354.35C122.689 348.022 127.809 342.903 134.136 342.903H145.583V365.797Z" fill="#FBBF81"/>
    <path d="M145.586 367.646H134.139C126.816 367.646 120.844 361.674 120.844 354.351C120.844 347.028 126.816 341.055 134.139 341.055H145.586C146.605 341.055 147.435 341.885 147.435 342.904V365.798C147.435 366.817 146.605 367.646 145.586 367.646ZM134.139 344.752C128.854 344.752 124.565 349.066 124.565 354.351C124.565 359.636 128.854 363.949 134.139 363.949H143.738V344.776H134.139V344.752Z" fill="#231F20"/>
    <path d="M144.355 356.2C144.189 356.2 144.023 356.2 143.881 356.128C143.004 355.986 138.216 356.057 134.211 356.2C134.211 356.2 134.164 356.2 134.14 356.2C133.145 356.2 132.315 355.417 132.292 354.398C132.268 353.379 133.05 352.526 134.093 352.479C143.691 352.147 144.639 352.479 144.947 352.573C145.919 352.905 146.44 353.948 146.132 354.92C145.872 355.702 145.161 356.2 144.378 356.2H144.355Z" fill="#231F20"/>
    <path d="M248.109 342.903H259.556C265.884 342.903 271.003 348.022 271.003 354.35C271.003 360.678 265.884 365.797 259.556 365.797H248.109V342.903Z" fill="#FBBF81"/>
    <path d="M259.536 367.646H248.089C247.07 367.646 246.24 366.817 246.24 365.798V342.904C246.24 341.885 247.07 341.055 248.089 341.055H259.536C266.859 341.055 272.831 347.028 272.831 354.351C272.831 361.674 266.859 367.646 259.536 367.646ZM249.961 363.925H259.536C264.821 363.925 269.134 359.612 269.134 354.327C269.134 349.042 264.821 344.729 259.536 344.729H249.961V363.902V363.925Z" fill="#231F20"/>
    <path d="M252.735 356.341C249.465 356.341 248.967 356.175 248.754 356.104C247.782 355.772 247.261 354.73 247.569 353.758C247.877 352.81 248.872 352.288 249.82 352.549C250.697 352.691 255.485 352.62 259.49 352.478C259.49 352.478 259.537 352.478 259.561 352.478C260.556 352.478 261.386 353.26 261.41 354.279C261.433 355.298 260.651 356.151 259.608 356.199C256.504 356.294 254.3 356.341 252.735 356.341Z" fill="#231F20"/>
    <path d="M224.744 303.586L222.398 276.663L173.955 282.541L170.4 303.894C170.4 303.894 215.193 312.521 224.72 303.61L224.744 303.586Z" fill="#F2E7DD"/>
    <path d="M205.427 309.937C190.354 309.937 172.911 306.714 169.972 306.145C168.739 305.908 167.91 304.724 168.123 303.491L171.678 282.138C171.844 281.119 172.674 280.336 173.693 280.218L222.135 274.34C222.751 274.269 223.391 274.459 223.865 274.838C224.363 275.241 224.647 275.81 224.718 276.45L227.065 303.373C227.136 304.084 226.851 304.771 226.33 305.269C222.562 308.8 214.409 309.937 205.45 309.937H205.427ZM173.077 301.998C189.477 304.937 214.93 307.33 222.325 302.519L220.31 279.223L175.992 284.602L173.1 301.998H173.077Z" fill="#231F20"/>
    <path d="M250.005 454.389C250.005 454.389 240.146 486.715 196.823 492.285C153.523 486.715 143.641 454.389 143.641 454.389H250.005Z" fill="#E74145"/>
    <path d="M196.848 494.133C196.848 494.133 196.682 494.133 196.611 494.133C152.624 488.469 142.006 455.289 141.888 454.958C141.722 454.389 141.817 453.796 142.172 453.322C142.528 452.848 143.073 452.564 143.665 452.564H250.03C250.622 452.564 251.167 452.848 251.523 453.322C251.878 453.796 251.973 454.413 251.807 454.958C251.712 455.289 241.071 488.493 197.085 494.133C197.013 494.133 196.919 494.133 196.848 494.133ZM146.343 456.237C149.519 463.679 161.819 485.815 196.848 490.389C231.449 485.838 244.034 463.632 247.304 456.237H146.343Z" fill="#231F20"/>
    <path d="M250.006 454.387C216.589 471.427 177.058 471.427 143.641 454.387C136.958 450.975 133.119 443.746 134.067 436.304L150.111 307.591C180.708 299.272 212.963 299.272 243.559 307.591L259.604 436.304C260.529 443.746 256.689 450.975 250.03 454.387H250.006Z" fill="#FBBF81"/>
    <path d="M196.849 468.988C178.292 468.988 159.735 464.675 142.837 456.048C135.49 452.303 131.224 444.269 132.243 436.093L148.288 307.355C148.383 306.597 148.928 305.981 149.639 305.791C180.52 297.402 213.178 297.402 244.059 305.791C244.793 305.981 245.315 306.597 245.41 307.355L261.454 436.093C262.473 444.293 258.231 452.303 250.86 456.048C233.939 464.675 215.382 468.988 196.825 468.988H196.849ZM151.795 309.062L135.917 436.543C135.087 443.179 138.547 449.696 144.496 452.73C177.273 469.438 216.401 469.438 249.178 452.73C255.15 449.696 258.587 443.179 257.757 436.543L241.878 309.062C212.396 301.288 181.302 301.288 151.795 309.062Z" fill="#231F20"/>
    <path d="M145.699 343.071L172.717 303.018C165.11 304.061 157.573 305.578 150.108 307.592L145.676 343.071H145.699Z" fill="#AE805F"/>
    <path d="M248.041 343.071L221.023 303.018C228.631 304.061 236.168 305.578 243.633 307.592L248.065 343.071H248.041Z" fill="#AE805F"/>
    <path d="M145.702 344.92C145.489 344.92 145.252 344.872 145.038 344.801C144.233 344.493 143.735 343.687 143.853 342.834L148.285 307.355C148.38 306.597 148.925 305.981 149.636 305.791C157.078 303.777 164.757 302.213 172.483 301.17C173.217 301.075 173.928 301.407 174.308 302.023C174.687 302.639 174.687 303.445 174.26 304.037L147.242 344.09C146.887 344.611 146.318 344.896 145.702 344.896V344.92ZM151.816 309.062L148.498 335.606L168.833 305.459C163.074 306.384 157.386 307.592 151.816 309.062Z" fill="#231F20"/>
    <path d="M248.038 344.919C247.445 344.919 246.853 344.634 246.497 344.113L219.48 304.06C219.077 303.444 219.053 302.662 219.432 302.046C219.811 301.43 220.546 301.098 221.257 301.193C228.983 302.236 236.662 303.8 244.104 305.814C244.838 306.004 245.36 306.62 245.455 307.378L249.887 342.857C250.005 343.71 249.507 344.516 248.702 344.824C248.488 344.895 248.275 344.943 248.038 344.943V344.919ZM224.907 305.459L245.241 335.605L241.923 309.061C236.354 307.592 230.642 306.383 224.907 305.459Z" fill="#231F20"/>
    <path d="M204.525 324.893C190.542 324.893 178.242 316.456 173.17 303.397C172.957 302.852 173.004 302.26 173.312 301.762C173.597 301.264 174.118 300.933 174.687 300.862C194.334 298.421 214.123 299.226 233.486 303.255C234.055 303.374 234.529 303.729 234.766 304.251C235.026 304.772 235.026 305.365 234.766 305.886C229.078 317.594 217.489 324.869 204.525 324.869V324.893ZM177.602 304.298C182.579 314.631 192.912 321.196 204.525 321.196C215.261 321.196 224.907 315.603 230.286 306.455C212.914 303.089 195.211 302.378 177.602 304.322V304.298Z" fill="#231F20"/>
    <path d="M183.41 341.482C182.628 341.482 181.846 341.269 181.135 340.843C177.225 338.473 173.29 338.473 169.38 340.843C167.294 342.099 164.569 341.435 163.313 339.35C162.057 337.264 162.72 334.538 164.806 333.282C171.56 329.206 178.978 329.206 185.709 333.282C187.795 334.538 188.458 337.264 187.202 339.35C186.373 340.724 184.903 341.482 183.41 341.482Z" fill="#AE805F"/>
    <path d="M167.082 343.355C166.584 343.355 166.063 343.284 165.565 343.166C163.93 342.763 162.555 341.744 161.702 340.322C160.825 338.876 160.588 337.193 160.967 335.582C161.37 333.946 162.389 332.572 163.811 331.719C171.182 327.263 179.287 327.263 186.634 331.719C188.056 332.596 189.075 333.946 189.478 335.582C189.881 337.217 189.62 338.9 188.743 340.322C187.606 342.194 185.568 343.355 183.364 343.355C182.226 343.355 181.088 343.047 180.117 342.455C176.799 340.464 173.599 340.464 170.281 342.455C169.286 343.047 168.172 343.355 167.034 343.355H167.082ZM175.235 332.098C172.011 332.098 168.812 333.022 165.731 334.871C165.138 335.226 164.736 335.795 164.57 336.459C164.404 337.122 164.522 337.809 164.854 338.402C165.21 338.994 165.778 339.397 166.442 339.563C167.106 339.729 167.793 339.611 168.385 339.279C172.865 336.577 177.581 336.577 182.06 339.279C183.245 339.99 184.88 339.587 185.591 338.402C185.947 337.809 186.042 337.122 185.899 336.459C185.734 335.795 185.331 335.226 184.738 334.871C181.681 333.022 178.458 332.098 175.258 332.098H175.235Z" fill="#231F20"/>
    <path d="M226.59 341.482C225.808 341.482 225.026 341.269 224.315 340.843C220.404 338.473 216.47 338.473 212.56 340.843C210.474 342.099 207.749 341.435 206.492 339.35C205.236 337.264 205.9 334.538 207.986 333.282C214.74 329.206 222.158 329.206 228.889 333.282C230.974 334.538 231.638 337.264 230.382 339.35C229.552 340.724 228.083 341.482 226.59 341.482Z" fill="#AE805F"/>
    <path d="M210.285 343.356C209.787 343.356 209.266 343.285 208.768 343.166C207.133 342.763 205.758 341.744 204.905 340.322C204.028 338.9 203.791 337.194 204.17 335.582C204.573 333.947 205.592 332.572 207.014 331.719C214.385 327.264 222.49 327.264 229.837 331.719C231.259 332.596 232.278 333.947 232.681 335.582C233.084 337.217 232.823 338.9 231.947 340.322C230.809 342.218 228.794 343.356 226.567 343.356C225.429 343.356 224.292 343.048 223.32 342.455C220.002 340.464 216.779 340.464 213.484 342.455C212.489 343.048 211.375 343.356 210.261 343.356H210.285ZM218.438 332.098C215.215 332.098 212.015 333.023 208.934 334.871C208.342 335.227 207.939 335.795 207.773 336.459C207.607 337.123 207.725 337.81 208.057 338.402C208.413 338.995 208.981 339.398 209.645 339.564C210.309 339.73 210.996 339.611 211.588 339.279C216.068 336.578 220.784 336.578 225.263 339.279C226.448 339.99 228.083 339.587 228.794 338.402C229.15 337.81 229.245 337.123 229.079 336.459C228.913 335.795 228.51 335.227 227.918 334.871C224.86 333.023 221.637 332.098 218.438 332.098Z" fill="#231F20"/>
    <path d="M196.846 367.646V387.862H202.819C205.876 387.862 208.364 390.351 208.364 393.408C208.364 396.465 205.876 398.954 202.819 398.954H188.362C186.703 398.954 185.328 397.603 185.328 395.92V391.678" fill="#F27F4C"/>
    <path d="M202.798 400.803H188.341C185.639 400.803 183.459 398.622 183.459 395.921V391.678C183.459 390.659 184.288 389.83 185.308 389.83C186.327 389.83 187.156 390.659 187.156 391.678V395.921C187.156 396.56 187.678 397.082 188.317 397.082H202.774C204.812 397.082 206.471 395.423 206.471 393.385C206.471 391.346 204.812 389.687 202.774 389.687H196.802C195.783 389.687 194.953 388.858 194.953 387.839V367.623C194.953 366.604 195.783 365.774 196.802 365.774C197.821 365.774 198.651 366.604 198.651 367.623V385.99H202.751C206.827 385.99 210.145 389.308 210.145 393.385C210.145 397.461 206.827 400.779 202.751 400.779L202.798 400.803Z" fill="#231F20"/>
    <path d="M143.664 454.389C177.081 471.429 216.612 471.429 250.029 454.389C256.712 450.976 260.551 443.748 259.603 436.306L254.342 394.049C245.36 404.098 231.235 407.819 218.461 403.506L204.999 398.955H188.694L175.232 403.506C162.458 407.819 148.357 404.098 139.351 394.049L134.089 436.306C133.165 443.748 137.005 450.976 143.664 454.389Z" fill="#AE805F"/>
    <path d="M196.849 468.987C178.292 468.987 159.735 464.674 142.837 456.047C135.49 452.302 131.224 444.268 132.243 436.092L137.505 393.835C137.599 393.124 138.097 392.508 138.784 392.295C139.472 392.081 140.23 392.295 140.728 392.816C149.236 402.32 162.531 405.827 174.618 401.751L188.08 397.2C188.269 397.129 188.483 397.106 188.672 397.106H204.978C205.167 397.106 205.381 397.129 205.57 397.2L219.032 401.751C231.119 405.827 244.414 402.32 252.922 392.816C253.396 392.271 254.155 392.058 254.866 392.295C255.553 392.508 256.074 393.124 256.146 393.835L261.407 436.092C262.426 444.292 258.184 452.302 250.813 456.047C233.891 464.674 215.335 468.987 196.801 468.987H196.849ZM140.728 398.054L135.94 436.542C135.111 443.178 138.571 449.695 144.52 452.729C177.296 469.437 216.425 469.437 249.202 452.729C255.174 449.695 258.61 443.178 257.781 436.542L252.993 398.03C243.514 406.538 230.147 409.382 217.894 405.235L204.717 400.779H189.004L175.827 405.235C163.574 409.358 150.208 406.538 140.728 398.03V398.054Z" fill="#231F20"/>
    <path d="M171.277 471.262C171.277 471.262 171.064 471.262 170.945 471.239C169.926 471.049 169.263 470.101 169.452 469.082L175.401 436.519C175.59 435.499 176.562 434.836 177.558 435.025C178.577 435.215 179.24 436.163 179.051 437.182L173.102 469.746C172.936 470.646 172.154 471.262 171.277 471.262Z" fill="#231F20"/>
    <path d="M222.4 471.262C221.523 471.262 220.741 470.646 220.575 469.746L214.626 437.182C214.436 436.163 215.1 435.215 216.119 435.025C217.138 434.836 218.086 435.499 218.276 436.519L224.224 469.082C224.414 470.101 223.75 471.049 222.731 471.239C222.613 471.239 222.518 471.262 222.4 471.262Z" fill="#231F20"/>
    <path d="M196.849 476.809C195.829 476.809 195 475.979 195 474.96V436.827C195 435.808 195.829 434.979 196.849 434.979C197.868 434.979 198.697 435.808 198.697 436.827V474.96C198.697 475.979 197.868 476.809 196.849 476.809Z" fill="#231F20"/>
    <path d="M229.551 249.077C222.891 249.361 217.583 254.504 216.919 260.951H216.421C216.611 259.742 216.682 258.486 216.635 257.206C216.184 246.328 206.989 237.891 196.111 238.365C185.233 238.839 176.795 248.011 177.269 258.889C177.341 260.714 177.696 262.444 178.217 264.079C175.919 259.6 171.179 256.637 165.846 256.851C158.499 257.159 152.811 263.368 153.119 270.691C153.427 278.014 159.637 283.726 166.96 283.418C167.6 283.394 168.24 283.299 168.832 283.181L230.689 275.644C238.036 275.336 243.724 269.127 243.415 261.804C243.107 254.481 236.898 248.769 229.575 249.077H229.551Z" fill="#F2E7DD"/>
    <path d="M166.369 285.741C162.459 285.741 158.714 284.295 155.823 281.617C152.742 278.797 150.965 274.957 150.799 270.786C150.443 262.183 157.127 254.884 165.73 254.528C169.024 254.386 172.271 255.334 174.949 257.088C175.423 245.783 184.5 236.516 196.018 236.019C201.919 235.782 207.512 237.82 211.849 241.801C214.978 244.669 217.158 248.295 218.225 252.3C220.974 249.053 225.003 246.92 229.482 246.731C233.653 246.565 237.635 248.011 240.716 250.831C243.797 253.651 245.574 257.491 245.74 261.662C245.906 265.833 244.46 269.814 241.64 272.895C238.82 275.976 234.957 277.754 230.809 277.92L169.142 285.456C168.455 285.598 167.768 285.67 167.08 285.693C166.867 285.693 166.63 285.693 166.393 285.693L166.369 285.741ZM166.369 259.15C166.227 259.15 166.061 259.15 165.919 259.15C159.876 259.41 155.159 264.529 155.42 270.573C155.681 276.616 160.753 281.356 166.843 281.072C167.294 281.072 167.791 281.001 168.408 280.882L230.406 273.298C233.511 273.156 236.213 271.9 238.203 269.743C240.194 267.587 241.213 264.79 241.095 261.851C240.976 258.913 239.72 256.211 237.564 254.244C235.407 252.253 232.587 251.234 229.672 251.352C224.292 251.589 219.812 255.784 219.244 261.164C219.125 262.302 218.177 263.178 217.04 263.25H216.542C215.855 263.297 215.191 263.013 214.717 262.515C214.243 261.994 214.053 261.306 214.148 260.619C214.314 259.481 214.385 258.367 214.338 257.301C213.935 247.726 205.806 240.237 196.231 240.664C186.656 241.067 179.191 249.196 179.594 258.77C179.665 260.287 179.949 261.828 180.423 263.368C180.803 264.506 180.21 265.762 179.096 266.212C177.982 266.662 176.703 266.212 176.157 265.122C174.285 261.448 170.47 259.15 166.393 259.15H166.369Z" fill="#231F20"/>
    <path d="M205.002 398.954C205.002 398.954 230.551 392.697 240.433 409.714C240.433 409.714 222.516 424.242 196.849 405.993C171.159 424.242 153.266 409.714 153.266 409.714C163.172 392.697 188.697 398.954 188.697 398.954H205.002Z" fill="#916243"/>
    <path d="M171.277 416.99C159.498 416.99 152.198 411.255 152.08 411.16C151.369 410.591 151.179 409.572 151.653 408.79C161.726 391.466 186.113 396.49 188.909 397.106H204.788C207.585 396.466 231.972 391.466 242.044 408.79C242.495 409.572 242.329 410.591 241.618 411.16C241.428 411.302 222.824 425.973 196.849 408.269C187.085 414.928 178.387 416.99 171.277 416.99ZM155.777 409.217C160.233 412.013 175.258 419.076 195.759 404.501C196.399 404.05 197.275 404.05 197.915 404.501C218.226 418.934 233.418 411.942 237.897 409.193C228.227 395.424 205.665 400.709 205.428 400.756C205.286 400.78 205.144 400.803 204.978 400.803H188.672C188.53 400.803 188.364 400.803 188.222 400.756C187.985 400.709 165.423 395.4 155.753 409.193L155.777 409.217Z" fill="#231F20"/>
    <path d="M192.749 301.454L192.63 301.359C168.457 282.186 152.08 296.738 152.08 296.738C152.246 296.69 152.412 296.643 152.578 296.619C162.2 294.249 172.083 298.752 177.107 307.308C182.629 316.717 192.82 323.044 204.504 323.044C217.089 323.044 227.943 315.721 233.086 305.104C219.79 302.331 206.234 301.146 192.725 301.454H192.749Z" fill="#AE805F"/>
    <path d="M204.524 324.893C192.65 324.893 181.535 318.518 175.515 308.256C170.799 300.245 161.769 296.287 153.048 298.444L152.574 298.562C151.744 298.776 150.867 298.396 150.465 297.638C150.062 296.88 150.228 295.955 150.867 295.387C151.033 295.221 168.5 280.195 193.385 299.605C206.941 299.344 220.426 300.577 233.485 303.302C234.054 303.421 234.528 303.776 234.765 304.298C235.025 304.819 235.025 305.412 234.765 305.933C229.077 317.641 217.487 324.916 204.524 324.916V324.893ZM160.94 294.344C168.192 295.315 174.757 299.605 178.715 306.36C184.071 315.508 193.954 321.172 204.524 321.172C215.094 321.172 224.906 315.579 230.285 306.431C218.056 304.084 205.424 303.018 192.792 303.326C192.366 303.326 191.939 303.184 191.584 302.923L191.465 302.828C178.288 292.377 167.599 292.424 160.916 294.344H160.94Z" fill="#231F20"/>
    <path d="M215.401 526.104V511.482C215.401 501.599 207.936 492.972 198.076 492.332C187.269 491.621 178.287 500.201 178.287 510.842V526.104L190.966 514.563C194.308 511.529 199.38 511.529 202.722 514.563L215.401 526.104Z" fill="#E74145"/>
    <path d="M215.38 527.952C214.93 527.952 214.48 527.786 214.124 527.478L201.445 515.936C198.814 513.543 194.833 513.543 192.202 515.936L179.523 527.478C178.978 527.976 178.195 528.094 177.532 527.81C176.868 527.502 176.418 526.838 176.418 526.103V510.841C176.418 505.224 178.764 499.797 182.864 495.957C187.035 492.047 192.486 490.127 198.174 490.483C208.863 491.17 217.229 500.389 217.229 511.481V526.103C217.229 526.838 216.802 527.502 216.115 527.81C215.878 527.905 215.617 527.976 215.357 527.976L215.38 527.952ZM196.823 510.39C199.359 510.39 201.919 511.315 203.957 513.163L213.532 521.885V511.457C213.532 502.333 206.683 494.725 197.937 494.156C193.268 493.848 188.813 495.436 185.4 498.635C181.987 501.835 180.115 506.148 180.115 510.817V521.885L189.69 513.163C191.728 511.315 194.264 510.39 196.823 510.39Z" fill="#231F20"/>
    <path d="M196.846 428.389C191.371 428.389 185.92 426.564 181.536 422.938C180.754 422.275 180.635 421.113 181.299 420.331C181.963 419.549 183.124 419.431 183.906 420.094C191.277 426.233 202.392 426.233 209.762 420.094C210.545 419.431 211.729 419.549 212.369 420.331C213.033 421.113 212.914 422.298 212.132 422.938C207.772 426.588 202.297 428.389 196.822 428.389H196.846Z" fill="#231F20"/>
    <path d="M139.235 652.257C138.287 652.257 137.505 651.546 137.386 650.598L123.261 517.595C121.223 505.366 127.266 493.137 138.358 487.307L160.209 476.263C161.133 475.789 162.247 476.168 162.697 477.092C163.171 478.017 162.792 479.13 161.868 479.581L140.04 490.601C130.395 495.673 125.133 506.314 126.911 517.074L141.036 650.195C141.154 651.214 140.396 652.139 139.377 652.234C139.306 652.234 139.235 652.234 139.187 652.234L139.235 652.257Z" fill="#231F20"/>
    <path d="M244.459 522.952C247.784 522.952 250.479 520.256 250.479 516.932C250.479 513.607 247.784 510.912 244.459 510.912C241.135 510.912 238.439 513.607 238.439 516.932C238.439 520.256 241.135 522.952 244.459 522.952Z" fill="#E74145"/>
    <path d="M244.462 524.824C240.102 524.824 236.57 521.293 236.57 516.932C236.57 512.571 240.102 509.04 244.462 509.04C248.823 509.04 252.354 512.571 252.354 516.932C252.354 521.293 248.823 524.824 244.462 524.824ZM244.462 512.761C242.163 512.761 240.291 514.633 240.291 516.932C240.291 519.231 242.163 521.103 244.462 521.103C246.761 521.103 248.634 519.231 248.634 516.932C248.634 514.633 246.761 512.761 244.462 512.761Z" fill="#231F20"/>
    <path d="M149.231 522.952C152.555 522.952 155.25 520.256 155.25 516.932C155.25 513.607 152.555 510.912 149.231 510.912C145.906 510.912 143.211 513.607 143.211 516.932C143.211 520.256 145.906 522.952 149.231 522.952Z" fill="#E74145"/>
    <path d="M149.234 524.824C144.873 524.824 141.342 521.293 141.342 516.932C141.342 512.571 144.873 509.04 149.234 509.04C153.595 509.04 157.126 512.571 157.126 516.932C157.126 521.293 153.595 524.824 149.234 524.824ZM149.234 512.761C146.935 512.761 145.063 514.633 145.063 516.932C145.063 519.231 146.935 521.103 149.234 521.103C151.533 521.103 153.405 519.231 153.405 516.932C153.405 514.633 151.533 512.761 149.234 512.761Z" fill="#231F20"/>
    <path d="M238.885 576.204C242.21 576.204 244.905 573.509 244.905 570.185C244.905 566.86 242.21 564.165 238.885 564.165C235.56 564.165 232.865 566.86 232.865 570.185C232.865 573.509 235.56 576.204 238.885 576.204Z" fill="#E74145"/>
    <path d="M238.888 578.077C234.527 578.077 230.996 574.546 230.996 570.185C230.996 565.824 234.527 562.293 238.888 562.293C243.249 562.293 246.78 565.824 246.78 570.185C246.78 574.546 243.249 578.077 238.888 578.077ZM238.888 566.014C236.589 566.014 234.717 567.886 234.717 570.185C234.717 572.484 236.589 574.356 238.888 574.356C241.187 574.356 243.059 572.484 243.059 570.185C243.059 567.886 241.187 566.014 238.888 566.014Z" fill="#231F20"/>
    <path d="M154.774 576.204C158.098 576.204 160.793 573.509 160.793 570.185C160.793 566.86 158.098 564.165 154.774 564.165C151.449 564.165 148.754 566.86 148.754 570.185C148.754 573.509 151.449 576.204 154.774 576.204Z" fill="#E74145"/>
    <path d="M154.777 578.077C150.416 578.077 146.885 574.546 146.885 570.185C146.885 565.824 150.416 562.293 154.777 562.293C159.138 562.293 162.669 565.824 162.669 570.185C162.669 574.546 159.138 578.077 154.777 578.077ZM154.777 566.014C152.478 566.014 150.606 567.886 150.606 570.185C150.606 572.484 152.478 574.356 154.777 574.356C157.076 574.356 158.948 572.484 158.948 570.185C158.948 567.886 157.076 566.014 154.777 566.014Z" fill="#231F20"/>
    <path d="M233.317 617.394C229.975 617.394 227.297 620.096 227.297 623.414C227.297 626.732 229.999 629.434 233.317 629.434C236.635 629.434 239.336 626.732 239.336 623.414C239.336 620.096 236.635 617.394 233.317 617.394Z" fill="#E74145"/>
    <path d="M233.32 631.306C228.959 631.306 225.428 627.775 225.428 623.414C225.428 619.053 228.959 615.522 233.32 615.522C237.681 615.522 241.212 619.053 241.212 623.414C241.212 627.775 237.681 631.306 233.32 631.306ZM233.32 619.243C231.021 619.243 229.149 621.115 229.149 623.414C229.149 625.713 231.021 627.585 233.32 627.585C235.619 627.585 237.491 625.713 237.491 623.414C237.491 621.115 235.619 619.243 233.32 619.243Z" fill="#231F20"/>
    <path d="M160.35 617.394C157.008 617.394 154.33 620.096 154.33 623.414C154.33 626.732 157.032 629.434 160.35 629.434C163.668 629.434 166.37 626.732 166.37 623.414C166.37 620.096 163.668 617.394 160.35 617.394Z" fill="#E74145"/>
    <path d="M160.353 631.306C155.992 631.306 152.461 627.775 152.461 623.414C152.461 619.053 155.992 615.522 160.353 615.522C164.714 615.522 168.245 619.053 168.245 623.414C168.245 627.775 164.714 631.306 160.353 631.306ZM160.353 619.243C158.054 619.243 156.182 621.115 156.182 623.414C156.182 625.713 158.054 627.585 160.353 627.585C162.652 627.585 164.524 625.713 164.524 623.414C164.524 621.115 162.652 619.243 160.353 619.243Z" fill="#231F20"/>
    <path d="M186.562 364.543C186.562 372.079 180.447 378.194 172.911 378.194C165.374 378.194 159.26 372.079 159.26 364.543C159.26 357.006 165.374 350.892 172.911 350.892C180.447 350.892 186.562 357.006 186.562 364.543Z" fill="white"/>
    <path d="M172.911 379.971C164.403 379.971 157.482 373.051 157.482 364.543C157.482 356.035 164.403 349.114 172.911 349.114C181.419 349.114 188.34 356.035 188.34 364.543C188.34 373.051 181.419 379.971 172.911 379.971ZM172.911 352.646C166.37 352.646 161.037 357.978 161.037 364.519C161.037 371.06 166.37 376.393 172.911 376.393C179.452 376.393 184.785 371.06 184.785 364.519C184.785 357.978 179.452 352.646 172.911 352.646Z" fill="#231F20"/>
    <path d="M172.911 370.113C175.987 370.113 178.481 367.619 178.481 364.543C178.481 361.467 175.987 358.974 172.911 358.974C169.835 358.974 167.342 361.467 167.342 364.543C167.342 367.619 169.835 370.113 172.911 370.113Z" fill="#757575"/>
    <path d="M172.911 371.89C168.859 371.89 165.564 368.596 165.564 364.543C165.564 360.491 168.859 357.196 172.911 357.196C176.964 357.196 180.258 360.491 180.258 364.543C180.258 368.596 176.964 371.89 172.911 371.89ZM172.911 360.751C170.826 360.751 169.119 362.458 169.119 364.543C169.119 366.629 170.826 368.335 172.911 368.335C174.997 368.335 176.703 366.629 176.703 364.543C176.703 362.458 174.997 360.751 172.911 360.751Z" fill="#231F20"/>
    <path d="M234.412 364.543C234.412 372.079 228.297 378.194 220.76 378.194C213.224 378.194 207.109 372.079 207.109 364.543C207.109 357.006 213.224 350.892 220.76 350.892C228.297 350.892 234.412 357.006 234.412 364.543Z" fill="white"/>
    <path d="M220.761 379.971C212.252 379.971 205.332 373.051 205.332 364.543C205.332 356.035 212.252 349.114 220.761 349.114C229.269 349.114 236.189 356.035 236.189 364.543C236.189 373.051 229.269 379.971 220.761 379.971ZM220.761 352.646C214.219 352.646 208.887 357.978 208.887 364.519C208.887 371.06 214.219 376.393 220.761 376.393C227.302 376.393 232.634 371.06 232.634 364.519C232.634 357.978 227.302 352.646 220.761 352.646Z" fill="#231F20"/>
    <path d="M220.761 370.113C223.837 370.113 226.33 367.619 226.33 364.543C226.33 361.467 223.837 358.974 220.761 358.974C217.685 358.974 215.191 361.467 215.191 364.543C215.191 367.619 217.685 370.113 220.761 370.113Z" fill="#757575"/>
    <path d="M220.761 371.89C216.708 371.89 213.414 368.596 213.414 364.543C213.414 360.491 216.708 357.196 220.761 357.196C224.814 357.196 228.108 360.491 228.108 364.543C228.108 368.596 224.814 371.89 220.761 371.89ZM220.761 360.751C218.675 360.751 216.969 362.458 216.969 364.543C216.969 366.629 218.675 368.335 220.761 368.335C222.847 368.335 224.553 366.629 224.553 364.543C224.553 362.458 222.847 360.751 220.761 360.751Z" fill="#231F20"/>
</svg>
