<svg width="275" height="194" viewBox="0 0 275 194" fill="none" xmlns="http://www.w3.org/2000/svg">
    <path d="M62.5996 112.358C70.9484 157.448 114.269 187.233 159.359 178.884C204.449 170.535 234.233 127.215 225.884 82.1248C217.536 37.035 174.215 7.25043 129.125 15.5992C84.0354 23.948 54.2509 67.2685 62.5996 112.358Z" fill="#B22104"/>
    <path d="M73.1623 69.5058C66.472 79.2807 62.5846 90.1965 61.2888 101.38C62.5564 126.394 75.0778 150.55 97.346 165.776C135.192 191.664 186.869 181.959 212.757 144.099C213.729 142.691 214.63 141.254 215.504 139.803C224.321 108.859 211.63 73.351 181.855 52.9843C145.206 27.9274 96.5431 35.322 73.1623 69.5058Z" fill="#FC2700"/>
    <path d="M115.302 115.029C115.302 115.029 123.725 99.6198 136.993 101.634C136.993 101.634 136.317 122.226 143.317 127.48C143.317 127.48 148.514 112.395 153.543 107.113C153.543 107.113 156.698 114.212 171.29 118.31C171.29 118.31 160.05 103.451 159.796 96.9296C159.796 96.9296 173.712 91.028 181.6 93.6055C181.6 93.6055 172.684 79.4503 161.219 79.3799C161.219 79.3799 154.191 54.6328 149.078 50.4355C149.078 50.4355 148.162 74.0417 145.599 76.7601C145.599 76.7601 128.88 63.9711 111.091 68.0416C111.091 68.0416 136.303 79.9855 134.035 85.3237C133.641 86.2392 112.626 99.3381 115.302 115.043L115.302 115.029Z" fill="#B22104"/>
    <path d="M112.923 118.521C112.923 118.521 121.346 103.112 134.614 105.127C134.614 105.127 133.938 125.719 140.938 130.972C140.938 130.972 146.135 115.887 151.164 110.606C151.164 110.606 154.319 117.704 168.911 121.803C168.911 121.803 157.671 106.944 157.417 100.422C157.417 100.422 171.333 94.5207 179.221 97.0982C179.221 97.0982 170.305 82.943 158.84 82.8726C158.84 82.8726 151.812 58.1255 146.699 53.9282C146.699 53.9282 145.783 77.5344 143.22 80.2528C143.22 80.2528 126.501 67.4637 108.712 71.5343C108.712 71.5343 133.924 83.4782 131.656 88.8163C131.262 89.7319 110.247 102.831 112.923 118.535L112.923 118.521Z" fill="#667402"/>
    <path d="M138.109 90.9705C137.32 90.6747 134.982 89.6747 131.785 88.2803C131.771 88.4493 131.729 88.6324 131.658 88.7873C131.278 89.6747 111.249 102.196 112.785 117.408C112.418 106.069 143.447 92.9705 143.447 92.9705C143.447 92.9705 141.94 92.4212 138.109 90.9705Z" fill="#585E03"/>
    <path d="M158.842 82.8579C158.842 82.8579 151.814 58.1109 146.701 53.9136C146.701 53.9136 145.785 77.5197 143.222 80.2381C143.222 80.2381 126.503 67.4491 108.714 71.5196C122.207 72.0971 151.926 89.3651 151.926 89.3651L157.898 89.9144C163.87 90.4637 179.223 97.0836 179.223 97.0836C179.223 97.0836 170.307 82.9283 158.842 82.8579Z" fill="#585E03"/>
    <path d="M138.288 87.872C141.19 83.6184 146.993 82.5339 151.246 85.4354C155.5 88.3368 156.584 94.1398 153.683 98.3934C150.781 102.647 144.978 103.732 140.725 100.83C136.471 97.9286 135.387 92.1257 138.288 87.872Z" fill="#585E03"/>
    <path d="M139.134 92.3232C142.035 88.0696 147.838 86.9851 152.092 89.8865C156.345 92.788 157.43 98.591 154.529 102.845C151.627 107.098 145.824 108.183 141.57 105.281C137.317 102.38 136.232 96.5768 139.134 92.3232Z" fill="#7F8902"/>
    <path d="M64.2608 100.549C65.289 124.901 77.3879 148.465 99.0504 163.282C128.812 183.635 167.418 181.156 194.179 159.747C195.827 158.437 194.165 155.832 192.292 156.818C165.827 170.691 131.502 169.212 103.67 150.184C85.205 137.549 72.8948 119.465 67.6834 100.042C67.1482 98.0415 64.1622 98.4923 64.2608 100.549Z" fill="#F45540"/>
    <path d="M200.382 123.69C200.382 123.69 226.652 106.449 243.518 113.843C260.385 121.225 272.159 127.007 273.397 141.128C274.203 150.298 276.223 167.082 267.708 174.616C259.193 182.15 231.931 194.882 220.204 184.93C208.477 174.99 191.832 164.256 190.606 156.336C189.379 148.417 186.015 131.013 200.382 123.678L200.382 123.69Z" fill="#E8C59B"/>
    <path d="M267.709 174.617C268.912 173.554 269.893 172.304 270.711 170.914C269.181 168.262 266.389 166.65 263.212 168.508C257.033 172.105 249.721 173.028 238.94 174.546C228.159 176.077 230.425 168.508 223.721 164.443C217.016 160.378 212.192 163.59 207.87 162.34C204.553 161.383 194.076 149.422 189.38 143.909C189.333 148.721 190.128 153.253 190.607 156.337C191.833 164.256 208.478 174.979 220.205 184.93C231.932 194.87 259.194 182.15 267.709 174.617Z" fill="#E1BA7F"/>
    <path d="M273.397 141.128C272.159 126.995 260.385 121.225 243.518 113.843C226.652 106.461 200.383 123.689 200.383 123.689C197.392 125.219 195.173 127.193 193.55 129.413C195.185 129.857 197.287 129.997 199.647 129.097C205.137 127.007 222.015 120.606 231.885 124.449C241.755 128.291 239.605 133.921 248.167 132.531C256.729 131.141 261.553 129.553 264.777 135.218C267.498 139.984 270.045 157.761 274.168 155.635C274.285 150.286 273.724 145.018 273.385 141.128L273.397 141.128Z" fill="#FBDEBE"/>
    <path d="M227.902 124.682C227.447 125.278 226.501 125.325 225.777 124.776C225.052 124.227 224.842 123.304 225.298 122.697C225.753 122.101 226.699 122.054 227.423 122.603C228.148 123.152 228.358 124.075 227.902 124.682Z" fill="#C09B64"/>
    <path d="M263.41 153.264C262.955 153.86 262.009 153.907 261.284 153.358C260.56 152.809 260.35 151.886 260.805 151.278C261.261 150.683 262.207 150.636 262.931 151.185C263.655 151.734 263.866 152.657 263.41 153.264Z" fill="#C09B64"/>
    <path d="M236.009 144.177C235.682 144.598 234.946 144.586 234.35 144.13C233.755 143.675 233.533 142.974 233.848 142.542C234.175 142.121 234.911 142.133 235.507 142.589C236.103 143.044 236.324 143.745 236.009 144.177Z" fill="#C09B64"/>
    <path d="M230.718 176.473C230.391 176.894 229.655 176.882 229.059 176.427C228.464 175.971 228.242 175.27 228.557 174.838C228.884 174.418 229.62 174.429 230.216 174.885C230.812 175.341 231.033 176.041 230.718 176.473Z" fill="#C09B64"/>
    <path d="M243.027 153.989C242.618 154.526 241.672 154.503 240.913 153.93C240.154 153.358 239.873 152.458 240.282 151.909C240.691 151.372 241.637 151.396 242.396 151.968C243.156 152.54 243.436 153.44 243.027 153.989Z" fill="#C09B64"/>
    <path d="M210.416 156.407C210.007 156.944 209.061 156.92 208.302 156.348C207.542 155.776 207.262 154.876 207.671 154.327C208.08 153.79 209.026 153.814 209.785 154.386C210.544 154.958 210.825 155.858 210.416 156.407Z" fill="#C09B64"/>
    <path d="M248.259 174.488C247.851 175.025 246.905 175.002 246.145 174.429C245.386 173.857 245.106 172.958 245.515 172.409C245.923 171.86 246.87 171.895 247.629 172.467C248.388 173.039 248.668 173.939 248.259 174.488Z" fill="#C09B64"/>
    <path d="M252.594 151.536C252.325 151.886 251.683 151.851 251.157 151.454C250.632 151.057 250.421 150.438 250.69 150.087C250.959 149.737 251.601 149.772 252.127 150.169C252.652 150.566 252.863 151.185 252.594 151.536Z" fill="#C09B64"/>
    <path d="M268.852 167.807C268.583 168.157 267.941 168.122 267.415 167.725C266.89 167.328 266.679 166.709 266.948 166.358C267.217 166.008 267.859 166.043 268.385 166.44C268.91 166.837 269.12 167.456 268.852 167.807Z" fill="#C09B64"/>
    <path d="M250.49 137.274C250.222 137.624 249.579 137.589 249.054 137.192C248.528 136.795 248.318 136.176 248.587 135.826C248.855 135.475 249.498 135.51 250.023 135.907C250.549 136.305 250.759 136.924 250.49 137.274Z" fill="#C09B64"/>
    <path d="M252.441 160.343C252.231 160.611 251.717 160.565 251.273 160.226C250.829 159.887 250.642 159.408 250.853 159.128C251.063 158.859 251.577 158.906 252.021 159.245C252.464 159.572 252.651 160.062 252.441 160.343Z" fill="#C09B64"/>
    <path d="M261.086 130.569C260.875 130.838 260.361 130.791 259.918 130.453C259.474 130.114 259.287 129.635 259.497 129.355C259.707 129.086 260.221 129.133 260.665 129.471C261.109 129.81 261.296 130.289 261.086 130.569Z" fill="#C09B64"/>
    <path d="M212.039 130.546C211.828 130.815 211.315 130.768 210.871 130.429C210.427 130.09 210.24 129.612 210.45 129.331C210.66 129.063 211.174 129.109 211.618 129.448C212.062 129.787 212.249 130.266 212.039 130.546Z" fill="#C09B64"/>
    <path d="M241.369 124.565C241.159 124.834 240.645 124.787 240.201 124.449C239.757 124.122 239.57 123.631 239.78 123.351C239.991 123.082 240.504 123.129 240.948 123.468C241.392 123.806 241.579 124.285 241.369 124.565Z" fill="#C09B64"/>
    <path d="M215.368 144.165C214.901 144.784 213.99 144.889 213.348 144.387C212.693 143.896 212.542 142.997 213.02 142.378C213.488 141.759 214.399 141.654 215.041 142.156C215.695 142.646 215.847 143.546 215.368 144.165Z" fill="#C09B64"/>
    <path d="M59.0557 121.856L76.452 111.043L79.7432 100.86C79.0078 100.247 78.2953 99.176 78.6927 97.4229C79.2244 95.0715 81.0198 94.2355 81.9775 93.9531L97.8823 44.7868L91.0667 48.2787L59.0473 121.855L59.0557 121.856Z" fill="#FFBE4A"/>
    <path d="M10.9976 70.5173C10.9976 70.5173 20.6807 68.8342 23.5164 60.1147L26.5255 66.5542L16.5431 73.9407L10.9987 70.5089L10.9976 70.5173Z" fill="#FECA52"/>
    <path d="M97.8909 44.787L68.755 25.1887L62.6527 27.6161L91.0753 48.279L97.8909 44.787Z" fill="#FCBA49"/>
    <path d="M59.0542 121.856L91.0736 48.2803L62.651 27.6174L43.1214 43.8369C43.0831 44.7633 42.8409 45.8181 42.0549 46.6429C40.8654 47.896 39.0349 48.1211 37.9582 48.1238L23.5151 60.1238C23.492 61.7525 22.9398 64.9557 20.2804 67.9309C16.6595 71.9739 10.9964 70.5264 10.9964 70.5264L5.06069 75.4604C15.7064 122.359 59.0616 121.866 59.0616 121.866L59.0542 121.856Z" fill="#FFDD71"/>
    <path d="M38.2725 96.2909C40.5403 94.1981 44.55 94.8591 47.2299 97.7638C49.9098 100.668 50.2519 104.717 47.9841 106.81C45.7163 108.903 41.7066 108.242 39.0267 105.337C36.3468 102.433 36.0047 98.3837 38.2725 96.2909Z" fill="#FFBE4A"/>
    <path d="M42.0282 102.56C44.2189 104.934 47.0364 106.045 48.9603 105.481C50.0378 103.274 49.4112 100.138 47.2206 97.764C45.03 95.3901 41.9518 94.5203 39.6612 95.4228C38.941 97.2981 39.8281 100.193 42.0188 102.567L42.0282 102.56Z" fill="#FECA52"/>
    <path d="M36.4922 72.7567C37.7176 71.6277 39.8859 71.9828 41.339 73.556C42.7921 75.1291 42.9722 77.3213 41.7468 78.4503C40.5215 79.5793 38.3531 79.2242 36.9001 77.6511C35.447 76.0779 35.2669 73.8857 36.4922 72.7567Z" fill="#FFBE4A"/>
    <path d="M38.5221 76.1537C39.7037 77.4368 41.2266 78.0363 42.2727 77.7307C42.8566 76.539 42.5211 74.84 41.3311 73.5558C40.1495 72.2727 38.4826 71.8006 37.2432 72.2871C36.8517 73.3062 37.3321 74.8695 38.5221 76.1537Z" fill="#FECA52"/>
    <path d="M75.288 102.535C75.8612 102.666 76.1194 103.68 75.8688 104.802C75.6098 105.923 74.9373 106.728 74.3642 106.597C73.7911 106.466 73.5328 105.452 73.7834 104.33C74.0425 103.208 74.7149 102.404 75.288 102.535Z" fill="#E5A339"/>
    <path d="M75.5801 104.646C75.3725 105.56 74.4077 106.243 74.6823 106.576C75.1627 106.422 75.6523 105.714 75.8599 104.801C76.0675 103.887 75.9335 103.041 75.5673 102.688C75.1784 102.862 75.7877 103.732 75.5801 104.646Z" fill="#FECA52"/>
    <path d="M87.872 65.9312C88.4452 66.0623 88.7034 67.0768 88.4528 68.1989C88.1938 69.32 87.5213 70.1248 86.9482 69.9937C86.3751 69.8626 86.1168 68.8481 86.3674 67.726C86.6265 66.605 87.2989 65.8002 87.872 65.9312Z" fill="#E5A339"/>
    <path d="M88.1641 68.0528C87.9565 68.9667 86.9916 69.6497 87.2663 69.9829C87.7467 69.829 88.2363 69.1211 88.4439 68.2072C88.6515 67.2934 88.5174 66.4481 88.1513 66.095C87.7624 66.2687 88.3717 67.139 88.1641 68.0528Z" fill="#FECA52"/>
    <path d="M67.9397 51.9388C69.2144 50.7561 71.4827 51.1322 72.9957 52.7726C74.5088 54.4131 74.7026 56.701 73.4205 57.8741C72.1458 59.0568 69.8775 58.6807 68.3645 57.0403C66.8515 55.3999 66.6576 53.112 67.9397 51.9388Z" fill="#FFBE4A"/>
    <path d="M70.0628 55.4738C71.297 56.8147 72.8851 57.4393 73.9753 57.1222C74.5834 55.8737 74.2311 54.1043 72.9969 52.7634C71.7627 51.4224 70.0211 50.9325 68.7281 51.438C68.3229 52.4981 68.8202 54.1318 70.0628 55.4738Z" fill="#FECA52"/>
    <path d="M72.2623 91.2152C72.2623 91.2152 72.339 91.1479 72.4651 91.0269L81.1989 70.9446C81.1537 70.8963 81.1305 70.8763 81.1305 70.8763C81.1305 70.8763 73.9875 71.9869 70.9536 78.1788C67.9197 84.3707 72.2539 91.2142 72.2539 91.2142L72.2623 91.2152Z" fill="#FFBE4A"/>
    <path d="M74.6273 80.1648C71.5934 86.3567 72.262 91.2152 72.262 91.2152C72.262 91.2152 72.3387 91.1478 72.4648 91.0268C73.7574 89.8379 80.7656 83.2177 82.1106 78.379C83.442 73.5813 81.5921 71.3523 81.207 70.9456C81.1618 70.8973 81.1386 70.8773 81.1386 70.8773C81.1386 70.8773 77.6612 73.9729 74.6284 80.1564L74.6273 80.1648Z" fill="#FECA52"/>
    <path d="M63.3857 111.562C63.3857 111.562 63.4151 111.532 63.4719 111.488L67.0849 103.181L67.0543 103.151C67.0543 103.151 64.101 103.613 62.8429 106.173C61.5849 108.733 63.3857 111.562 63.3857 111.562Z" fill="#FFBE4A"/>
    <path d="M64.3651 106.986C63.107 109.546 63.3858 111.562 63.3858 111.562C63.3858 111.562 63.4153 111.532 63.472 111.488C64.0111 110.999 66.9062 108.259 67.4633 106.252C68.0173 104.271 67.2523 103.347 67.085 103.181C67.0703 103.162 67.0545 103.151 67.0545 103.151C67.0545 103.151 65.6137 104.433 64.364 106.994L64.3651 106.986Z" fill="#FECA52"/>
</svg>
