<svg width="122" height="117" viewBox="0 0 122 117" fill="none" xmlns="http://www.w3.org/2000/svg">
    <path opacity="0.5" d="M22.6184 100.136C50.3127 124.607 92.5959 121.979 117.055 94.2962L16.7665 5.70019C-7.70403 33.3945 -5.07594 75.6776 22.6067 100.136L22.6184 100.136Z" fill="#663612"/>
    <path opacity="0.5" d="M53.0238 20.5113C52.8019 20.4295 52.58 20.3711 52.3581 20.3478C52.3581 20.3478 52.3464 20.3478 52.3347 20.3478C50.8629 20.1375 49.3912 20.9669 48.8422 22.4152C48.2115 24.0972 49.0642 25.9544 50.7462 26.5852C51.8558 26.994 53.0355 26.7604 53.8882 26.0829C53.8882 26.0829 53.8882 26.0829 53.8999 26.0712C54.04 25.9544 54.1685 25.8376 54.2853 25.7091C54.3204 25.6624 54.3554 25.6157 54.3904 25.5807C54.4722 25.4755 54.5656 25.3704 54.6357 25.2536C54.7408 25.09 54.8226 24.9031 54.9044 24.7162C54.9044 24.7162 54.9044 24.7163 54.9044 24.7046C55.5351 23.0226 54.6825 21.1538 53.0005 20.5347L53.0238 20.5113Z" fill="#663612"/>
    <path opacity="0.5" d="M4.66567 99.0042C4.03492 100.686 4.8876 102.543 6.56958 103.174C7.67922 103.583 8.85895 103.349 9.71162 102.672C9.71162 102.672 9.71163 102.672 9.72331 102.66C9.86348 102.543 9.99195 102.427 10.1088 102.298C10.1438 102.251 10.1788 102.205 10.2139 102.158C10.2956 102.053 10.3891 101.948 10.4592 101.831C10.5643 101.667 10.6577 101.48 10.7278 101.293C10.9497 100.686 10.9848 100.067 10.8563 99.483C10.8446 99.4013 10.8213 99.3312 10.7979 99.2611C10.5876 98.5603 10.1555 97.9412 9.53642 97.509C9.40794 97.4156 9.26776 97.3455 9.1276 97.2754C9.03416 97.2287 8.94071 97.1703 8.83559 97.1353C8.61366 97.0535 8.39172 96.9952 8.16979 96.9718C8.16979 96.9718 8.15813 96.9718 8.14645 96.9718C6.67471 96.7615 5.20299 97.5908 4.65401 99.0392L4.66567 99.0042Z" fill="#663612"/>
    <path d="M27.5363 94.4363C55.2307 118.907 97.5138 116.279 121.973 88.5961L21.6844 -4.38374e-06C-2.78607 27.6943 -0.15797 69.9774 27.5247 94.4363L27.5363 94.4363Z" fill="#B22104"/>
    <path d="M39.8826 80.4548C67.5769 104.925 104.324 108.558 121.973 88.5961L21.6844 -4.38374e-06C4.04698 19.9735 12.1883 55.996 39.8826 80.4548Z" fill="#EA4C2D"/>
    <path d="M102.291 77.7804L88.0529 65.2005C87.4923 64.6983 86.8265 64.3362 86.114 64.1377C83.7662 63.4719 80.7059 62.5608 77.4588 61.4862C70.4739 59.1851 68.9204 59.7341 61.5851 51.7564C56.3055 46.0096 54.8688 40.0526 54.4834 37.1792C54.3199 35.9761 53.7358 34.8898 52.8364 34.0839L34.8486 18.1868C32.2322 15.8741 28.109 16.8786 26.8241 20.1374C21.4044 33.9203 29.7559 55.1904 47.9774 71.2861C66.2105 87.3934 88.3449 93.0583 101.345 85.9683C104.417 84.298 104.908 80.0814 102.291 77.7687L102.291 77.7804Z" fill="#B22104"/>
    <path d="M29.954 28.5467C29.954 28.5467 35.981 28.2897 40.443 32.3429C44.9049 36.396 48.5375 36.0573 47.0775 37.3421C45.6174 38.627 44.7063 35.7769 41.4358 36.4427C38.177 37.0968 36.7053 39.246 33.4231 36.7697C30.1409 34.2935 26.555 29.7264 29.954 28.5584L29.954 28.5467Z" fill="#E0653F"/>
    <path d="M30.0122 29.5044C30.0122 29.5044 35.3619 29.8314 37.5695 31.455C39.7771 33.0903 41.4708 33.6626 40.4662 33.6976C39.4734 33.7327 38.1769 32.6464 36.5182 32.039C34.8596 31.4316 28.8325 29.7497 30.0122 29.5044Z" fill="#EF8975"/>
    <path d="M35.2918 50.0036C35.2918 50.0036 40.4078 46.8149 46.2948 48.1464C52.1817 49.478 55.1719 47.3989 54.5295 49.2327C53.8988 51.0665 52.4737 50.1204 49.9625 52.293C47.4512 54.4772 46.4466 55.984 42.3585 55.4467C38.282 54.9094 32.909 52.7018 35.2918 50.0036Z" fill="#E0653F"/>
    <path d="M35.8185 50.822C35.8185 50.822 40.6308 48.4742 43.3524 48.8013C46.0739 49.1283 47.8376 48.8012 46.985 49.3268C46.1323 49.8408 44.4737 49.5371 42.7333 49.8175C40.9929 50.1095 34.9191 51.6162 35.8185 50.822Z" fill="#EF8975"/>
    <path d="M53.7707 73.0726C53.7707 73.0726 54.4131 67.0806 59.0736 63.2611C63.7458 59.4416 63.9444 55.809 65.0073 57.4442C66.0585 59.0795 65.2175 60.1774 65.3811 63.5064C65.5446 66.8353 65.346 67.98 62.4026 70.865C59.4708 73.7501 54.4248 76.6235 53.7591 73.0843L53.7707 73.0726Z" fill="#E0653F"/>
    <path d="M54.7412 73.1546C54.7412 73.1546 55.8508 67.9101 57.7898 65.9711C59.7287 64.0322 60.5464 62.4437 60.4412 63.4365C60.3244 64.4293 59.063 65.539 58.2103 67.0925C57.3576 68.646 54.8113 74.3577 54.7412 73.1546Z" fill="#EF8975"/>
    <path d="M75.1222 83.527C75.1222 83.527 70.7888 78.8431 72.5876 73.0847C74.3864 67.3262 74.1294 63.5184 75.9048 64.301C77.6803 65.0836 75.4843 67.116 77.4583 69.8025C79.4323 72.489 81.9903 72.9095 81.126 76.9392C80.2616 80.9573 77.6335 86.1317 75.1339 83.5387L75.1222 83.527Z" fill="#E0653F"/>
    <path d="M75.9746 83.0596C75.9746 83.0596 74.0239 78.0721 74.5729 75.3856C75.1219 72.6991 74.935 70.9236 75.3906 71.8114C75.8344 72.6991 75.3906 74.3344 75.5424 76.0981C75.6826 77.8619 76.6988 84.0408 75.9863 83.0713L75.9746 83.0596Z" fill="#EF8975"/>
    <path d="M93.9285 84.7186C93.9285 84.7186 88.6957 81.7284 87.0838 75.9115C85.4719 70.0947 82.2247 68.4478 84.1403 68.1441C86.0559 67.8404 85.6704 69.242 88.7774 70.4217C91.8844 71.6014 93.216 74.6034 94.6761 78.4462C96.1361 82.2891 97.4443 85.5363 93.9402 84.7186L93.9285 84.7186Z" fill="#E0653F"/>
    <path d="M94.3952 83.8657C94.3952 83.8657 90.0501 80.7354 89.0455 78.1774C88.041 75.6194 86.9314 74.2294 87.784 74.7316C88.6484 75.2339 89.1506 76.8458 90.2369 78.2475C91.3232 79.6491 95.5165 84.2862 94.3952 83.8657Z" fill="#EF8975"/>
    <path opacity="0.5" d="M99.9553 71.7177L24.0325 4.6486C19.7691 0.887497 17.0476 14.6588 24.6749 23.6761C32.3022 32.705 57.5904 40.017 65.3696 45.8806C70.2987 49.595 87.4923 63.0625 99.4063 72.4068C99.8619 72.7572 100.399 72.1031 99.967 71.7177L99.9553 71.7177Z" fill="#FCBAA2"/>
    <path opacity="0.5" d="M91.1482 98.2208C81.8272 96.7841 63.7342 92.6609 50.7923 81.2257C35.3625 67.5947 26.7189 56.3231 20.0027 46.1844C19.5588 45.507 18.5193 46.0794 18.8463 46.8152C22.4556 55.0499 30.9589 70.5265 48.0941 84.2744C65.2644 98.0573 82.2477 99.7743 91.0431 99.529C91.849 99.5057 91.9425 98.3376 91.1365 98.2091L91.1482 98.2208Z" fill="#FCBAA2"/>
    <path d="M54.5081 19.4844C56.1901 20.1152 57.0311 21.9841 56.412 23.6544C55.7813 25.3364 53.9124 26.1774 52.2421 25.5583C50.5601 24.9275 49.7191 23.0587 50.3382 21.3884C50.9689 19.7064 52.8378 18.8654 54.5081 19.4844Z" fill="#B28850"/>
    <path d="M51.6924 20.991C51.0616 22.673 51.9143 24.5302 53.5963 25.161C54.0402 25.3245 54.484 25.3829 54.9278 25.3596C55.5936 24.9975 56.1309 24.4251 56.4229 23.6659C57.0537 21.9839 56.201 20.1267 54.5191 19.496C54.0752 19.3324 53.6313 19.2741 53.1875 19.2974C52.5217 19.6595 51.9727 20.2318 51.6924 20.991Z" fill="#C09B64"/>
    <path d="M55.8499 21.1079C56.3872 21.8555 56.3989 22.7665 55.8616 23.1637C55.3243 23.5491 54.4599 23.2687 53.911 22.5212C53.3737 21.7736 53.362 20.8626 53.8993 20.4655C54.4366 20.08 55.3009 20.3604 55.8499 21.1079Z" fill="#E0B885"/>
    <path d="M10.3314 96.0841C12.0133 96.7148 12.8543 98.5837 12.2353 100.254C11.6162 101.924 9.73566 102.777 8.06536 102.158C6.38337 101.527 5.54238 99.6583 6.16144 97.988C6.79218 96.306 8.66106 95.465 10.3314 96.0841Z" fill="#B28850"/>
    <path d="M7.50488 97.5907C6.87414 99.2727 7.72678 101.13 9.40876 101.761C9.85262 101.924 10.2965 101.983 10.7403 101.959C11.4061 101.597 11.9434 101.025 12.2354 100.266C12.8662 98.5836 12.0135 96.7264 10.3315 96.0956C9.88767 95.9321 9.44383 95.8737 8.99998 95.897C8.33419 96.2591 7.78521 96.8315 7.50488 97.5907Z" fill="#C09B64"/>
    <path d="M11.6624 97.7076C12.1997 98.4551 12.2114 99.3661 11.6741 99.7633C11.1368 100.149 10.2725 99.8684 9.72348 99.1209C9.18618 98.3733 9.17449 97.4622 9.71179 97.0651C10.2491 96.6796 11.1135 96.96 11.6624 97.7076Z" fill="#E0B885"/>
</svg>
