<svg width="188" height="508" viewBox="0 0 188 508" fill="none" xmlns="http://www.w3.org/2000/svg">
    <path opacity="0.5" d="M-96.4366 498.843L-110.126 456.571L-103.947 469.466L-93.8318 465.133C-93.8318 465.133 -98.9479 452.121 -105.758 434.764L-91.0169 428.363L-104.706 386.091L-98.5274 398.987L-88.4121 394.653C-88.4121 394.653 -108.654 343.154 -122.274 308.335L-72.0478 419.369L-60.5075 408.576L-51.6188 424.684L-34.7289 411.485L-58.592 374.002L-49.3761 384.935L-44.1082 380.87C-32.5797 402.771 -9.61592 417.71 16.8519 417.71C32.492 417.71 46.9174 412.489 58.481 403.694C58.481 403.694 58.5044 403.694 58.5161 403.682C58.6679 403.565 58.7964 403.449 58.9482 403.332C59.7308 402.724 60.4901 402.117 61.2493 401.475C61.5179 401.253 61.7749 401.019 62.0319 400.797C62.6977 400.213 63.3634 399.617 64.0058 399.01C64.2745 398.753 64.5432 398.508 64.8001 398.251C65.4426 397.632 66.0733 396.989 66.6924 396.335C66.926 396.09 67.1596 395.856 67.3815 395.611C68.0823 394.852 68.7598 394.081 69.4373 393.287C69.5541 393.146 69.6825 393.006 69.811 392.866C70.617 391.897 71.3996 390.915 72.1471 389.899C72.1822 389.852 72.2055 389.817 72.2406 389.771C72.9297 388.836 73.5955 387.89 74.2379 386.921C74.4248 386.64 74.6 386.348 74.7869 386.068C75.2658 385.321 75.733 384.573 76.1886 383.814C76.3988 383.463 76.5974 383.113 76.7959 382.751C77.2048 382.027 77.6019 381.302 77.9873 380.555C78.1859 380.181 78.3728 379.807 78.5597 379.434C78.9452 378.663 79.3072 377.892 79.6577 377.109C79.8095 376.759 79.973 376.42 80.1249 376.07C80.5454 375.1 80.9425 374.119 81.3163 373.126C81.3747 372.963 81.4448 372.799 81.5148 372.636C81.947 371.468 82.3441 370.288 82.7062 369.085C82.7997 368.781 82.8698 368.477 82.9632 368.185C83.2202 367.298 83.4772 366.398 83.6991 365.487C83.8042 365.055 83.8977 364.623 84.0028 364.191C84.178 363.396 84.3532 362.602 84.505 361.796C84.5985 361.329 84.6802 360.85 84.762 360.371C84.8905 359.577 85.019 358.783 85.1241 357.977C85.1825 357.509 85.2526 357.03 85.2993 356.552C85.3927 355.687 85.4628 354.823 85.5329 353.947C85.568 353.538 85.603 353.129 85.6263 352.709C85.6964 351.424 85.7432 350.127 85.7432 348.819C85.7432 310.788 54.9185 279.963 16.887 279.963C15.5321 279.963 14.1888 280.01 12.8573 280.091C12.7989 280.091 12.7288 280.091 12.6704 280.091C12.6704 280.091 12.647 280.091 12.6353 280.091C-23.4105 282.287 -51.9692 312.201 -51.9692 348.807C-51.9692 354.496 -51.2683 360.021 -49.9601 365.312C-69.6767 338.155 -113.829 277.312 -114.6 275.968L-145.927 221.701C-147.083 219.704 -148.823 218.267 -150.809 217.473L-151.019 216.725C-152.468 211.469 -157.911 208.385 -163.167 209.845C-168.423 211.294 -171.507 216.737 -170.047 221.993L-154.991 276.424L-147.644 318.964L-156.427 287.193C-157.876 281.937 -163.319 278.853 -168.575 280.313C-173.831 281.773 -176.915 287.205 -175.455 292.461L-160.399 346.892L-134.445 497.067L-120.568 489.522L-116.001 507.334L-96.3432 498.796L-96.4366 498.843Z" fill="#663612"/>
    <path opacity="0.5" d="M-74.7346 178.167C-68.6958 179.767 -48.9909 183.213 -48.7456 183.26C-43.0689 185.759 -39.448 187.92 -38.572 190.805C-38.7121 190.957 -42.2863 194.858 -44.6341 192.639C-47.0286 190.373 -50.6612 189.182 -52.0512 191.226C-52.7754 192.277 -53.8149 194.812 -54.6559 197.008C-55.2516 198.129 -55.7422 199.414 -56.0459 200.816C-56.8752 204.775 -56.116 209.588 -51.7241 213.921C-42.4849 223.043 -14.6504 228.358 1.79561 198.561C15.9406 172.946 2.11096 156.243 -8.67008 148.814C-13.0035 145.836 -22.7099 139.517 -30.6526 142.974C-35.5701 145.112 -38.3384 149.819 -38.7005 153.521C-40.2189 155.881 -40.0904 161.756 -35.3482 164.104C-30.6877 166.417 -32.1711 171.708 -32.2178 171.883C-34.5772 172.806 -38.4084 169.372 -43.0923 166.639C-49.4815 162.913 -61.6291 153.592 -68.5206 152.599C-69.3966 152.47 -70.2026 152.599 -70.9618 152.949C-72.0364 152.564 -78.1453 157.621 -80.5631 163.929C-82.9693 170.236 -80.8201 176.52 -74.7346 178.144L-74.7346 178.167Z" fill="#663612"/>
    <path opacity="0.5" d="M31.6502 247.9C31.6502 247.9 31.7319 247.911 31.767 247.923C31.8487 247.935 31.9305 247.958 32.0122 247.97C32.1875 248.005 32.351 248.04 32.5028 248.063C32.5846 248.075 32.6663 248.098 32.7364 248.11C32.8649 248.133 32.9817 248.157 33.0868 248.168C33.1569 248.18 33.2037 248.192 33.2621 248.203C33.3438 248.215 33.4022 248.227 33.4606 248.238C33.5307 248.238 33.5541 248.25 33.5774 248.262C33.5891 248.262 33.6008 248.262 33.6008 248.262L33.6241 248.262C35.5047 248.601 35.4813 245.33 35.2244 243.298C35.201 243.157 35.166 242.971 35.1076 242.749C35.0959 242.69 35.0725 242.62 35.0492 242.55C35.0024 242.375 34.944 242.2 34.8856 242.001C34.8623 241.919 34.8272 241.826 34.7922 241.744C34.7221 241.534 34.6403 241.312 34.5469 241.067C34.5118 240.973 34.4768 240.891 34.4418 240.798C34.3366 240.518 34.2082 240.237 34.0797 239.934C34.0563 239.875 34.0446 239.829 34.0096 239.782C33.3672 238.333 32.5145 236.698 31.4866 235.226C31.4048 235.11 31.3114 234.993 31.2296 234.876C31.1245 234.724 31.0194 234.572 30.9026 234.432C30.6923 234.152 30.4704 233.895 30.2485 233.638C30.1667 233.545 30.0733 233.463 29.9915 233.369C29.828 233.206 29.6761 233.031 29.5126 232.879C29.4075 232.785 29.3141 232.692 29.2089 232.61C29.0571 232.47 28.8936 232.341 28.7417 232.225C28.6366 232.143 28.5315 232.073 28.4263 231.991C28.2628 231.874 28.0993 231.781 27.9358 231.687C27.8307 231.629 27.7255 231.571 27.6204 231.512C27.4335 231.419 27.2466 231.349 27.0598 231.29C26.9663 231.255 26.8728 231.22 26.7794 231.197C26.4991 231.115 26.2188 231.068 25.9267 231.045C25.3077 231.01 24.7237 231.103 24.163 231.29C20.2968 232.633 18.2293 238.964 20.2617 242.562C20.4136 242.83 20.6121 243.087 20.8341 243.344C20.9041 243.426 20.9976 243.496 21.0677 243.566C21.2312 243.73 21.4064 243.905 21.605 244.057C21.7101 244.139 21.8152 244.209 21.9203 244.29C22.1189 244.431 22.3175 244.582 22.5277 244.711C22.6445 244.781 22.773 244.851 22.8898 244.933C23.1118 245.061 23.3454 245.19 23.579 245.318C23.6257 245.342 23.6724 245.377 23.7191 245.4C26.2888 246.685 29.5477 247.503 31.6034 247.935L31.6502 247.9Z" fill="#663612"/>
    <path d="M-21.9318 391.355C4.95816 418.245 48.5555 418.245 75.4455 391.355C102.335 364.465 102.335 320.868 75.4455 293.978C48.5555 267.088 4.95817 267.088 -21.9318 293.978C-48.8218 320.868 -48.8218 364.465 -21.9318 391.355Z" fill="#B22104"/>
    <path d="M41.0394 404.277C50.8626 404.277 60.1485 401.836 68.4066 397.479C84.9344 384.899 95.6103 365.031 95.6103 342.651C95.6104 304.62 64.7857 273.795 26.7542 273.795C25.3409 273.795 23.9275 273.842 22.5375 273.923C-2.77397 282.368 -21.1473 307.68 -21.1473 337.594C-21.1473 374.41 6.6872 404.265 41.0394 404.265L41.0394 404.277Z" fill="#FC2700"/>
    <path d="M52.4629 354.122C52.4629 354.122 37.9675 355.57 33.1318 345.548C33.1318 345.548 47.5454 336.367 47.8725 329.126C47.8725 329.126 35.1057 332.63 29.1487 331.66C29.1487 331.66 32.5361 326.182 28.5063 314.268C28.5063 314.268 23.5889 328.927 19.2437 332.151C19.2437 332.151 8.6963 325.388 6.75735 318.788C6.75735 318.788 1.24417 331.508 6.55877 339.404C6.55877 339.404 -7.09567 355.792 -7.57456 361.27C-7.57456 361.27 9.01166 350.839 12.0719 351.33C12.0719 351.33 11.1492 368.769 22.2573 379.036C22.2573 379.036 18.6363 356.177 23.3435 355.243C24.1495 355.08 42.955 363.338 52.4512 354.157L52.4629 354.122Z" fill="#B22104"/>
    <path d="M55.9668 354.122C55.9668 354.122 41.4714 355.57 36.6357 345.548C36.6357 345.548 51.0493 336.367 51.3764 329.126C51.3764 329.126 38.6096 332.63 32.6526 331.66C32.6526 331.66 36.04 326.182 32.0102 314.268C32.0102 314.268 27.0928 328.927 22.7476 332.151C22.7476 332.151 12.2002 325.388 10.2613 318.788C10.2613 318.788 4.74808 331.508 10.0627 339.404C10.0627 339.404 -3.59176 355.792 -4.07066 361.27C-4.07066 361.27 12.5156 350.839 15.5758 351.33C15.5758 351.33 14.6531 368.769 25.7612 379.036C25.7612 379.036 22.1402 356.177 26.8475 355.243C27.6534 355.08 46.4589 363.338 55.9551 354.157L55.9668 354.122Z" fill="#667402"/>
    <path d="M25.3287 349.765C25.4923 350.442 25.9011 352.51 26.45 355.348C26.5785 355.278 26.7187 355.231 26.8589 355.196C27.6415 355.044 45.5943 362.894 55.2773 354.717C47.6851 360.277 24.1957 345.174 24.1957 345.174C24.1957 345.174 24.5228 346.459 25.3287 349.765Z" fill="#585E03"/>
    <path d="M10.074 339.381C10.074 339.381 -3.58048 355.768 -4.05938 361.247C-4.05938 361.247 12.5268 350.816 15.5871 351.306C15.5871 351.306 14.6644 368.745 25.7725 379.012C19.8505 369.505 17.7597 341.086 17.7597 341.086L15.3418 336.741C12.924 332.396 10.2725 318.788 10.2725 318.788C10.2725 318.788 4.75936 331.508 10.074 339.404L10.074 339.381Z" fill="#585E03"/>
    <path d="M23.1103 351.097C18.8353 351.097 15.3779 347.639 15.3779 343.364C15.3779 339.089 18.8353 335.632 23.1103 335.632C27.3854 335.632 30.8428 339.089 30.8428 343.364C30.8428 347.639 27.3854 351.097 23.1103 351.097Z" fill="#585E03"/>
    <path d="M18.041 340.712C18.041 344.983 21.5029 348.445 25.7734 348.445C30.0439 348.445 33.5059 344.983 33.5059 340.712C33.5059 336.442 30.0439 332.98 25.7734 332.98C21.5029 332.98 18.041 336.442 18.041 340.712Z" fill="#7F8902"/>
    <path d="M66.4556 395.832C82.6447 383.731 93.1103 364.412 93.1103 342.651C93.1104 312.761 73.3354 287.485 46.1667 279.18C44.4964 278.666 43.5036 281.025 45.0454 281.843C66.9345 293.465 81.9906 317.655 81.9906 345.618C81.9906 364.167 75.3678 381.068 64.505 393.73C63.3837 395.026 65.089 396.86 66.4556 395.832Z" fill="#F45540"/>
    <path d="M-3.55387 144.971C7.22717 152.4 21.0568 169.103 6.91182 194.718C-9.53423 224.515 -37.3687 219.2 -46.6079 210.078C-55.8472 200.955 -49.0141 189.696 -45.1128 188.831C-41.2116 187.967 -35.8736 196.143 -33.7711 190.875C-31.6687 185.607 -35.8736 182.757 -44.3186 179.113C-52.7518 175.457 -69.0344 176.438 -71.3588 169.722C-73.6832 163.006 -70.3075 147.786 -63.4161 148.779C-56.5246 149.772 -44.377 159.093 -37.9878 162.819C-31.5986 166.545 -26.7629 171.626 -25.1627 165.073C-23.5508 158.52 -27.0199 156.406 -31.4351 154.573C-35.8503 152.739 -33.4908 142.6 -25.5481 139.143C-17.6054 135.685 -7.89896 141.993 -3.56552 144.983L-3.55387 144.971Z" fill="#C79069"/>
    <path d="M2.77688 199.542C17.0854 179.697 10.1589 162.866 8.13819 159.478C6.46789 156.675 -0.797335 147.109 -11.5317 141.818C-12.4778 141.35 -13.2837 142.647 -12.4427 143.278C-3.2619 150.169 11.8526 165.319 3.16231 185.958C-8.93862 214.669 -31.0964 214.493 -32.2761 215.182C-33.4558 215.872 -11.5433 219.387 2.76518 199.542L2.77688 199.542Z" fill="#E4B59B"/>
    <path d="M35.1429 247.234C35.1429 247.234 24.1166 245.622 21.8039 241.511C19.4911 237.399 22.5163 229.713 27.4688 229.994C32.4213 230.274 36.4978 240.238 36.7431 242.27C36.9884 244.302 37.0234 247.573 35.1429 247.234Z" fill="#FDC70F"/>
    <path d="M27.4685 229.994C22.5159 229.713 19.4907 237.399 21.8035 241.511C22.4342 242.644 23.7307 243.578 25.2726 244.349C24.6301 242.959 23.8475 240.541 24.525 238.007C25.5762 234.082 25.4711 234.876 26.9662 233.603C28.2744 232.482 32.2808 235.133 33.04 234.199C31.4865 231.956 29.5592 230.122 27.4685 230.005L27.4685 229.994Z" fill="#FAAA0B"/>
    <path d="M35.5515 238.754C34.6638 238.334 33.7995 237.96 33.2154 237.493C31.7437 236.313 31.5802 236.383 31.405 237.738C31.2415 239.093 31.8956 238.801 30.8093 240.53C30.0734 241.709 31.8839 244.91 33.1454 246.872C34.3484 247.117 35.1427 247.234 35.1427 247.234C37.0233 247.573 36.9999 244.302 36.7429 242.27C36.6612 241.663 36.2407 240.319 35.5515 238.742L35.5515 238.754Z" fill="#FFD561"/>
    <path opacity="0.5" d="M32.9589 235.741C34.0101 237.096 34.3606 238.591 33.7298 239.082C33.0991 239.572 31.7325 238.871 30.6696 237.528C29.6183 236.173 29.2679 234.678 29.8986 234.187C30.5294 233.697 31.896 234.398 32.9589 235.741Z" fill="#FFECBD"/>
    <defs>
        <filter id="filter0_d_0_1" x="28.7332" y="0" width="159.267" height="179.267" filterUnits="userSpaceOnUse" color-interpolation-filters="sRGB">
            <feFlood flood-opacity="0" result="BackgroundImageFix"/>
            <feColorMatrix in="SourceAlpha" type="matrix" values="0 0 0 0 0 0 0 0 0 0 0 0 0 0 0 0 0 0 127 0" result="hardAlpha"/>
            <feOffset dx="-9.26683" dy="9.26683"/>
            <feComposite in2="hardAlpha" operator="out"/>
            <feColorMatrix type="matrix" values="0 0 0 0 0 0 0 0 0 0 0 0 0 0 0 0 0 0 0.25 0"/>
            <feBlend mode="normal" in2="BackgroundImageFix" result="effect1_dropShadow_0_1"/>
            <feBlend mode="normal" in="SourceGraphic" in2="effect1_dropShadow_0_1" result="shape"/>
        </filter>
        <filter id="filter1_d_0_1" x="28.7332" y="189" width="159.267" height="179.267" filterUnits="userSpaceOnUse" color-interpolation-filters="sRGB">
            <feFlood flood-opacity="0" result="BackgroundImageFix"/>
            <feColorMatrix in="SourceAlpha" type="matrix" values="0 0 0 0 0 0 0 0 0 0 0 0 0 0 0 0 0 0 127 0" result="hardAlpha"/>
            <feOffset dx="-9.26683" dy="9.26683"/>
            <feComposite in2="hardAlpha" operator="out"/>
            <feColorMatrix type="matrix" values="0 0 0 0 0 0 0 0 0 0 0 0 0 0 0 0 0 0 0.25 0"/>
            <feBlend mode="normal" in2="BackgroundImageFix" result="effect1_dropShadow_0_1"/>
            <feBlend mode="normal" in="SourceGraphic" in2="effect1_dropShadow_0_1" result="shape"/>
        </filter>
        <clipPath id="clip0_0_1">
            <rect x="38" width="150" height="170" rx="14" fill="white"/>
        </clipPath>
    </defs>
</svg>
