<svg width="81" height="141" viewBox="0 0 81 141" fill="none" xmlns="http://www.w3.org/2000/svg">
    <path opacity="0.5" d="M51.9618 23.1406C51.8333 23.1406 51.6931 23.1523 51.5646 23.164C51.3661 23.1873 51.1792 23.2107 50.9923 23.2458C50.8755 23.2691 50.7587 23.2925 50.6419 23.3158C50.4433 23.3626 50.2564 23.4326 50.0695 23.5027C49.9761 23.5377 49.8827 23.5611 49.7892 23.6078C49.5206 23.7246 49.2636 23.8648 49.0417 24.04C48.0488 24.7759 47.4648 25.8271 47.2195 27.0068C47.0326 27.8945 47.0443 28.8524 47.2079 29.8101C47.6984 32.6835 49.6023 35.5803 52.0903 36.5147C52.3823 36.6198 52.6976 36.7016 53.0247 36.7483C53.1298 36.76 53.2466 36.76 53.3517 36.7716C53.5853 36.795 53.8306 36.8067 54.0759 36.8067C54.2044 36.8067 54.3446 36.795 54.4731 36.7833C54.7184 36.7717 54.9636 36.7483 55.2089 36.7133C55.3491 36.6899 55.4893 36.6665 55.6294 36.6432C55.8864 36.5965 56.1434 36.5497 56.412 36.4913C56.4704 36.4796 56.5171 36.468 56.5755 36.4563C59.3789 35.7905 62.3924 34.3421 64.2496 33.3493C64.273 33.3376 64.2963 33.326 64.3197 33.3143C64.5299 33.1975 64.7168 33.104 64.892 32.9989C64.9271 32.9755 64.9738 32.9522 65.0088 32.9288C65.1957 32.8237 65.3709 32.7303 65.5111 32.6485C65.5111 32.6485 65.5344 32.6368 65.5461 32.6251C65.8381 32.4499 66.0133 32.3448 66.0133 32.3448C66.5273 32.0528 66.6791 31.6089 66.5973 31.1067C66.5389 30.7562 66.3754 30.3591 66.1418 29.962C65.6279 29.086 64.7752 28.1749 64.0627 27.5091C63.9576 27.4156 63.8057 27.2872 63.6305 27.1587C63.5838 27.1236 63.5137 27.0769 63.4553 27.0419C63.3151 26.9368 63.1516 26.8433 62.9764 26.7265C62.8947 26.6798 62.8246 26.6331 62.7428 26.5746C62.5559 26.4578 62.3457 26.341 62.1238 26.2126C62.042 26.1658 61.9602 26.1191 61.8668 26.0724C61.6098 25.9322 61.3295 25.7921 61.0375 25.6402C60.9791 25.6169 60.944 25.5935 60.8856 25.5585C59.4723 24.8576 57.767 24.1568 56.0383 23.6779C55.8981 23.6429 55.7579 23.6078 55.6177 23.5728C55.4425 23.526 55.2673 23.4793 55.0805 23.4443C54.7417 23.3742 54.403 23.3042 54.0643 23.2574C53.9358 23.2341 53.819 23.234 53.6905 23.2107C53.4569 23.1873 53.235 23.1523 53.013 23.1406C52.8729 23.1406 52.7444 23.1406 52.6042 23.1289C52.394 23.1289 52.1954 23.1289 51.9968 23.1289L51.9618 23.1406Z" fill="#663612"/>
    <path opacity="0.5" d="M65.0673 111.55C65.2308 111.456 65.3827 111.363 65.5345 111.246C65.5345 111.246 65.5345 111.246 65.5462 111.234C65.6863 111.117 65.8148 111.001 65.9316 110.872C65.9667 110.825 66.0017 110.779 66.0368 110.732C66.1185 110.627 66.212 110.522 66.282 110.405C66.3872 110.241 66.4806 110.055 66.5507 109.868C67.0179 108.606 66.6558 107.24 65.7448 106.375C65.4411 106.083 65.0673 105.85 64.6468 105.698C64.4249 105.616 64.2029 105.558 63.981 105.534C63.981 105.534 63.9693 105.534 63.9576 105.534C63.7357 105.499 63.5255 105.499 63.3152 105.511C62.0771 105.581 60.9324 106.364 60.4652 107.602C59.8344 109.284 60.6871 111.141 62.3691 111.772C63.2802 112.11 64.2497 112.005 65.0439 111.573L65.0673 111.55Z" fill="#663612"/>
    <path opacity="0.5" d="M46.8816 67.4561C45.6435 67.5261 44.4988 68.3087 44.0316 69.5468C43.4008 71.2288 44.2535 73.0977 45.9355 73.7167C46.8465 74.0555 47.816 73.9504 48.6103 73.5182C48.7738 73.4248 48.9257 73.3313 49.0775 73.2145C49.0775 73.2145 49.0892 73.2145 49.1009 73.2028C49.2411 73.0977 49.3695 72.9692 49.4863 72.8407C49.5214 72.794 49.5564 72.7473 49.5915 72.7122C49.6732 72.6071 49.7667 72.502 49.8368 72.3852C49.9419 72.2217 50.0353 72.0348 50.1054 71.8479C50.5726 70.5864 50.2105 69.2198 49.2994 68.3555C49.2644 68.3204 49.2177 68.297 49.1827 68.262C48.9841 68.0868 48.7505 67.9349 48.5052 67.8181C48.4001 67.7714 48.3183 67.713 48.2015 67.6663C47.9795 67.5845 47.7693 67.5261 47.5474 67.5028C47.5474 67.5028 47.5357 67.5028 47.524 67.5028C47.3021 67.4677 47.0919 67.4678 46.8816 67.4794L46.8816 67.4561Z" fill="#663612"/>
    <path opacity="0.5" d="M78.5707 6.96311C78.5707 6.96311 78.6408 6.86967 78.6758 6.82295C78.7576 6.71782 78.851 6.61267 78.9211 6.49586C79.0262 6.33234 79.1196 6.14542 79.1897 5.95854C79.4117 5.35115 79.4467 4.73211 79.3182 4.14808C79.3065 4.06632 79.2832 3.99624 79.2598 3.92615C79.0496 3.22533 78.6174 2.60626 77.9983 2.17409C77.8699 2.08064 77.7297 2.01062 77.5895 1.94054C77.4961 1.89381 77.4026 1.83535 77.2975 1.80031C77.0756 1.71854 76.8537 1.66019 76.6317 1.63683C76.6317 1.63683 76.62 1.63683 76.6084 1.63683C75.1366 1.42659 73.6649 2.25585 73.1159 3.70422C72.4852 5.3862 73.3379 7.2434 75.0198 7.87414C76.1295 8.28296 77.3092 8.04936 78.1619 7.3719C78.1619 7.3719 78.1619 7.37188 78.1735 7.3602C78.3137 7.2434 78.4422 7.1266 78.559 6.99811L78.5707 6.96311Z" fill="#663612"/>
    <path opacity="0.5" d="M23.6976 129.889C23.7326 129.807 23.7443 129.737 23.7794 129.655C23.8845 129.375 23.9779 129.083 24.0714 128.791C24.1765 128.475 24.2816 128.16 24.3634 127.844C24.4452 127.552 24.5152 127.26 24.5853 126.968C24.6554 126.641 24.7255 126.303 24.7839 125.976C24.8306 125.684 24.8773 125.392 24.924 125.1C24.9708 124.761 25.0058 124.41 25.0292 124.06C25.0525 123.768 25.0759 123.488 25.0876 123.196C25.0993 122.834 25.0876 122.483 25.0876 122.121C25.0876 121.841 25.0876 121.572 25.0642 121.292C25.0408 120.918 24.9941 120.533 24.9474 120.159C24.9124 119.902 24.889 119.645 24.854 119.388C24.7839 118.967 24.6904 118.559 24.597 118.15C24.5503 117.939 24.5152 117.729 24.4568 117.519C24.2933 116.9 24.0947 116.293 23.8611 115.697C23.7093 115.311 23.5808 114.903 23.4523 114.47C22.109 109.798 22.1675 102.323 21.6418 93.761C21.6418 93.761 21.6418 93.7376 21.6418 93.7259C21.6418 93.5624 21.6185 93.3989 21.6068 93.2471C21.5834 92.92 21.5601 92.5929 21.5367 92.2659C21.5134 91.9038 21.49 91.5534 21.4549 91.1913C21.4316 90.8526 21.3965 90.5138 21.3732 90.1751C21.3381 89.8247 21.3148 89.4626 21.2797 89.1005C21.2447 88.7501 21.2097 88.388 21.1746 88.0259C21.1396 87.6754 21.1045 87.3368 21.0695 86.9864C21.0228 86.5892 20.9761 86.2038 20.9293 85.8066C20.8943 85.4912 20.8593 85.1759 20.8125 84.8488C20.7541 84.3466 20.6724 83.8443 20.6023 83.342C20.5673 83.1201 20.5439 82.9098 20.5088 82.6879C20.4037 81.9754 20.2869 81.2629 20.1584 80.5504C20.1117 80.2818 20.0533 80.0014 20.0066 79.7328C19.9248 79.2772 19.8431 78.8217 19.7496 78.3662C19.6912 78.0625 19.6211 77.7588 19.551 77.4434C19.4576 77.0229 19.3642 76.6024 19.2707 76.1703C19.2006 75.8549 19.1189 75.5395 19.0371 75.2125C18.932 74.8036 18.8269 74.3832 18.7217 73.9743C18.64 73.6473 18.5465 73.3319 18.4531 73.0048C18.3363 72.596 18.2195 72.1872 18.091 71.7901C17.9859 71.4631 17.8924 71.1477 17.7873 70.8206C17.6588 70.4235 17.5187 70.0146 17.3785 69.6175C17.2617 69.2904 17.1565 68.9751 17.0281 68.6598C16.8762 68.2509 16.7244 67.8538 16.5608 67.4566C16.4324 67.1413 16.3156 66.8259 16.1754 66.5222C16.0002 66.1134 15.825 65.7046 15.6381 65.2958C15.498 64.9921 15.3695 64.7001 15.2293 64.3964C15.0307 63.9759 14.8205 63.5554 14.6102 63.1349C14.4701 62.8545 14.3299 62.5742 14.1897 62.3056C13.9444 61.8501 13.6875 61.3945 13.4188 60.9389C13.2903 60.7053 13.1618 60.4718 13.0217 60.2498C12.6129 59.5724 12.1924 58.8949 11.7485 58.2291C11.0944 57.2479 10.3819 56.3252 9.63436 55.4375C9.1905 54.9002 8.72329 54.3745 8.25607 53.8606C7.74214 53.3116 7.2282 52.786 6.6909 52.2721C-8.5871 37.7416 -34.6111 36.8773 -34.6111 36.8773C-34.6929 36.8656 -34.763 36.8539 -34.8447 36.8422C-34.8798 36.8422 -34.9031 36.8422 -34.9382 36.8422C-51.6529 34.3426 -49.8191 52.5057 -51.8047 61.7566C-52.2603 63.8707 -52.2836 66.8843 -51.9566 70.4702C-51.8164 71.9887 -51.6178 73.6122 -51.3609 75.3175C-51.3609 75.3409 -51.3609 75.3526 -51.3609 75.376C-51.1039 77.0697 -50.8002 78.8334 -50.4498 80.6672C-50.4498 80.7139 -50.4381 80.7489 -50.4264 80.7957C-50.076 82.6061 -49.6789 84.4634 -49.235 86.3789C-49.2233 86.449 -49.2 86.5191 -49.1883 86.6009C-48.7561 88.4814 -48.2772 90.397 -47.775 92.3242C-47.7516 92.4294 -47.7166 92.5345 -47.6932 92.6396C-47.4362 93.5974 -47.1793 94.5553 -46.9106 95.5131C-46.8873 95.5831 -46.8756 95.6415 -46.8522 95.7116C-46.6069 96.611 -46.35 97.5104 -46.0813 98.4098C-46.0463 98.5383 -46.0112 98.6551 -45.9762 98.7836C-45.7075 99.718 -45.4272 100.641 -45.1352 101.564C-45.0885 101.715 -45.0417 101.867 -44.995 102.019C-44.738 102.86 -44.4694 103.689 -44.2124 104.519C-44.1774 104.647 -44.1307 104.764 -44.0956 104.892C-43.8036 105.792 -43.5116 106.68 -43.2079 107.567C-43.1378 107.766 -43.0794 107.953 -43.0094 108.151C-42.729 108.969 -42.4487 109.775 -42.1684 110.581C-42.1333 110.663 -42.11 110.756 -42.0749 110.849C-41.7712 111.714 -41.4559 112.566 -41.1522 113.407C-41.0704 113.618 -41.0003 113.816 -40.9186 114.027C-40.6032 114.868 -40.2878 115.697 -39.9724 116.514C-39.9724 116.514 -39.9724 116.514 -39.9724 116.526C-39.2132 118.477 -38.1853 120.299 -36.9706 121.993C-36.3749 122.822 -35.7208 123.628 -35.0316 124.41C-34.541 124.959 -34.0271 125.508 -33.4898 126.034C-31.1304 128.323 -28.3855 130.321 -25.4186 132.038C-24.8229 132.388 -24.2272 132.715 -23.6198 133.042C-21.9729 133.918 -20.2675 134.701 -18.5388 135.425C-18.1651 135.577 -17.803 135.729 -17.4292 135.881C-15.8874 136.488 -14.3339 137.037 -12.7687 137.539C-12.4183 137.656 -12.0562 137.761 -11.7058 137.866C-10.6896 138.17 -9.68507 138.45 -8.68056 138.707C-8.42359 138.777 -8.16662 138.836 -7.90965 138.906C-6.87009 139.163 -5.83053 139.396 -4.81434 139.595C-4.07847 139.747 -3.35428 139.875 -2.65345 140.004C0.348422 140.518 3.1634 140.798 5.62797 140.868C5.65133 140.868 5.6747 140.868 5.70974 140.868C7.68374 140.915 9.42412 140.833 10.8491 140.623C11.4916 140.529 12.1106 140.378 12.7063 140.214C12.8932 140.167 13.0684 140.109 13.2436 140.051C13.6758 139.91 14.0963 139.759 14.5051 139.595C14.6803 139.525 14.8555 139.455 15.0307 139.373C15.5213 139.151 16.0002 138.894 16.4674 138.626C16.5258 138.59 16.5725 138.567 16.6309 138.532C17.1332 138.228 17.6121 137.89 18.0676 137.528C18.2195 137.411 18.3596 137.282 18.5115 137.154C18.8269 136.897 19.1305 136.617 19.4226 136.336C19.5744 136.196 19.7146 136.056 19.8547 135.904C20.1818 135.565 20.4855 135.215 20.7892 134.841C20.8592 134.748 20.941 134.666 21.0228 134.572C21.0228 134.572 21.0228 134.561 21.0345 134.549C22.074 133.206 22.915 131.687 23.5574 130.099C23.5808 130.04 23.6158 130.005 23.6392 129.947L23.6976 129.889Z" fill="#663612"/>
    <path d="M-26.8098 29.2264C-26.8098 29.2264 5.97715 30.301 19.5498 50.5782C33.1225 70.8554 27.7261 98.0475 31.6391 108.034C35.552 118.021 30.0856 131.197 18.6738 132.925C7.25031 134.654 -24.6723 128.055 -32.1595 108.852C-39.6466 89.6493 -46.0008 63.4033 -44.0034 54.094C-41.9944 44.7847 -43.8866 26.4231 -26.8098 29.2264Z" fill="#E8C59B"/>
    <path d="M29.4318 86.0632C28.7309 74.7916 26.9789 61.6511 19.5618 50.5781C5.98913 30.3008 -26.7978 29.2263 -26.7978 29.2263C-26.8796 29.2146 -26.9497 29.2029 -27.0314 29.1912C-32.8483 28.2918 -34.6588 36.7601 -29.0288 38.4538C-18.3879 41.6542 -4.1495 47.3893 1.80752 56.2548C7.7295 65.0618 14.5275 79.7091 20.7298 88.9833C23.4397 93.0364 29.7355 90.9223 29.4318 86.0632Z" fill="#FBDEBE"/>
    <path d="M18.6731 132.925C22.9832 132.271 26.4523 129.981 28.8818 126.851C22.7262 123.978 3.32503 125.613 -4.02196 118.523C-12.3501 110.475 -8.82263 108.921 -22.2084 94.4144C-32.1835 83.61 -40.535 69.3716 -44.1559 62.8188C-43.0463 75.0015 -37.9419 94.0289 -32.1718 108.851C-24.6847 128.054 7.24967 134.653 18.6615 132.925L18.6731 132.925Z" fill="#E1BA7F"/>
    <path d="M31.4875 122.249C33.263 117.764 33.4148 112.578 31.6394 108.034C31.4759 107.625 31.3357 107.193 31.2072 106.726C31.032 106.107 30.6349 105.593 30.0859 105.266C28.147 104.074 25.5422 102.135 24.3858 99.7409C22.4352 95.6761 13.9202 85.8879 12.2966 90.9922C10.673 96.0966 14.7612 110.639 19.0479 115.603C21.5124 118.465 24.7946 121.186 27.5395 123.312C28.8828 124.352 30.8568 123.814 31.4759 122.237L31.4875 122.249Z" fill="#FBDEBE"/>
    <path d="M-1.86012 65.237C-1.86012 65.237 5.80224 77.0926 6.04752 79.8025C6.29281 82.5007 4.22538 82.2437 2.07618 78.7279C-0.0730152 75.2121 -9.10199 62.9009 -1.87181 65.237L-1.86012 65.237Z" fill="#FBDEBE"/>
    <path d="M1.93562 126.034C1.31655 126.303 0.393787 125.578 -0.120152 124.422C-0.634091 123.266 -0.540632 122.086 0.0784309 121.817C0.697494 121.549 1.62022 122.273 2.13416 123.429C2.6481 124.597 2.55468 125.765 1.93562 126.034Z" fill="#C09B64"/>
    <path d="M6.40923 109.798C5.79016 110.066 4.86743 109.342 4.35349 108.186C3.83956 107.018 3.93298 105.85 4.55204 105.581C5.17111 105.312 6.09387 106.036 6.60781 107.193C7.12175 108.361 7.02829 109.529 6.40923 109.798Z" fill="#C09B64"/>
    <path d="M10.8946 66.9075C10.5792 67.0477 10.0887 66.6038 9.79668 65.9263C9.50467 65.2489 9.51634 64.5831 9.82003 64.4546C10.1354 64.3144 10.626 64.7583 10.918 65.4358C11.21 66.1132 11.1983 66.779 10.8946 66.9075Z" fill="#C09B64"/>
    <path d="M14.9473 123.254C14.632 123.394 14.1414 122.95 13.8494 122.273C13.5574 121.596 13.5691 120.93 13.8728 120.801C14.1881 120.661 14.6787 121.105 14.9707 121.782C15.2627 122.46 15.251 123.126 14.9473 123.254Z" fill="#C09B64"/>
    <path d="M3.96883 96.7043C3.65346 96.8445 3.16287 96.4007 2.87086 95.7232C2.57885 95.0457 2.59056 94.3799 2.89425 94.2515C3.20962 94.1113 3.7002 94.5552 3.99221 95.2326C4.28422 95.9101 4.27252 96.5758 3.96883 96.7043Z" fill="#C09B64"/>
    <path d="M18.627 95.6648C18.3117 95.805 17.8211 95.3611 17.5291 94.6837C17.2371 94.0062 17.2487 93.3404 17.5524 93.2119C17.8678 93.0717 18.3584 93.5156 18.6504 94.1931C18.9424 94.8706 18.9307 95.5364 18.627 95.6648Z" fill="#C09B64"/>
    <path d="M7.53135 52.6804C7.21597 52.8206 6.72539 52.3767 6.43338 51.6993C6.14137 51.0218 6.15304 50.356 6.45673 50.2275C6.7721 50.0874 7.26268 50.5313 7.55469 51.2087C7.84671 51.8862 7.83504 52.5519 7.53135 52.6804Z" fill="#C09B64"/>
    <path d="M18.0782 106.738C17.7628 106.878 17.2723 106.434 16.9803 105.756C16.6882 105.079 16.6999 104.413 17.0036 104.285C17.319 104.144 17.8096 104.588 18.1016 105.266C18.3936 105.943 18.3819 106.609 18.0782 106.738Z" fill="#C09B64"/>
    <path d="M17.9153 76.3455C17.2028 76.6608 16.2684 76.1002 15.8362 75.0956C15.3923 74.0911 15.6143 73.0282 16.3268 72.7129C17.0393 72.3975 17.9737 72.9582 18.4059 73.9627C18.8497 74.9672 18.6278 76.0301 17.9153 76.3455Z" fill="#C09B64"/>
    <path d="M67.485 31.3164C67.485 31.3164 57.9888 37.145 53.5736 35.4746C49.1584 33.8043 46.5537 25.9668 50.5367 23C54.5197 20.0331 64.0393 25.0791 65.5344 26.4691C67.0295 27.8591 69.1436 30.3586 67.485 31.3047L67.485 31.3164Z" fill="#FDC70F"/>
    <path d="M50.5364 23.0116C46.5534 25.9785 49.1581 33.816 53.5733 35.4863C54.7881 35.9419 56.3766 35.8368 58.0586 35.4396C56.6803 34.7855 54.5194 33.4306 53.4098 31.0478C51.6928 27.3684 52.1366 28.0459 52.4637 26.0953C52.7557 24.3899 57.5213 23.8643 57.498 22.6612C54.8699 21.9371 52.2067 21.7618 50.5364 23.0116Z" fill="#FAAA0B"/>
    <path d="M62.3573 24.542C61.4112 24.7873 60.5001 25.0559 59.7643 25.0676C57.872 25.1027 57.8019 25.2662 58.5378 26.4108C59.2737 27.5555 59.5891 26.9015 59.8694 28.9338C60.0563 30.3121 63.502 31.6087 65.7213 32.3095C66.7959 31.7255 67.485 31.3166 67.485 31.3166C69.1436 30.3705 67.0295 27.8826 65.5344 26.4809C65.0789 26.0604 63.8991 25.3012 62.3573 24.542Z" fill="#FFD561"/>
    <path opacity="0.5" d="M58.4327 23.899C60.1147 24.261 61.3294 25.1838 61.1659 25.978C61.0024 26.7606 59.4956 27.0994 57.8253 26.7373C56.1433 26.3752 54.9286 25.4524 55.0921 24.6581C55.2556 23.8639 56.7624 23.5369 58.4327 23.899Z" fill="#FFECBD"/>
    <path d="M66.1663 104.658C67.8483 105.289 68.6893 107.158 68.0702 108.828C67.4395 110.51 65.5706 111.351 63.9003 110.732C62.2183 110.101 61.3773 108.232 61.9964 106.562C62.6271 104.88 64.496 104.039 66.1663 104.658Z" fill="#B28850"/>
    <path d="M63.3398 106.165C62.7091 107.847 63.5618 109.704 65.2438 110.335C65.6876 110.498 66.1315 110.557 66.5753 110.533C67.2411 110.171 67.7901 109.599 68.0704 108.84C68.7011 107.158 67.8485 105.301 66.1665 104.67C65.7226 104.506 65.2788 104.448 64.8349 104.471C64.1692 104.833 63.6319 105.406 63.3398 106.165Z" fill="#C09B64"/>
    <path d="M67.4974 106.271C68.0347 107.018 68.0464 107.929 67.5091 108.326C66.9718 108.712 66.1074 108.431 65.5584 107.684C65.0211 106.936 65.0095 106.025 65.5468 105.628C66.0841 105.243 66.9484 105.523 67.4974 106.271Z" fill="#E0B885"/>
    <path d="M49.7083 66.627C51.3903 67.2578 52.2313 69.1266 51.6122 70.7969C50.9815 72.4789 49.1126 73.3199 47.4423 72.7009C45.7603 72.0701 44.9193 70.2012 45.5384 68.5309C46.1691 66.849 48.038 66.008 49.7083 66.627Z" fill="#B28850"/>
    <path d="M46.8818 68.1337C46.2511 69.8157 47.1037 71.6729 48.7857 72.3036C49.2296 72.4671 49.6734 72.5255 50.1173 72.5021C50.7831 72.1401 51.3204 71.5677 51.6124 70.8085C52.2431 69.1265 51.3905 67.2693 49.7085 66.6385C49.2646 66.475 48.8208 66.4166 48.3769 66.44C47.7111 66.8021 47.1738 67.3744 46.8818 68.1337Z" fill="#C09B64"/>
    <path d="M51.0394 68.2508C51.5767 68.9983 51.5883 69.9094 51.051 70.3065C50.5137 70.692 49.6494 70.4117 49.1004 69.6641C48.5631 68.9166 48.5514 68.0055 49.0887 67.6084C49.626 67.2112 50.4904 67.5032 51.0394 68.2508Z" fill="#E0B885"/>
    <path d="M78.7816 0.750072C80.4636 1.38082 81.3045 3.24969 80.6855 4.92C80.0547 6.60198 78.1859 7.44298 76.5156 6.82391C74.8453 6.20485 73.9926 4.32429 74.6117 2.65399C75.2424 0.972006 77.1113 0.131009 78.7816 0.750072Z" fill="#B28850"/>
    <path d="M75.9658 2.25672C75.3351 3.9387 76.1878 5.7959 77.8697 6.42664C78.3136 6.59017 78.7574 6.64855 79.2013 6.62519C79.8671 6.2631 80.4161 5.69081 80.6964 4.93158C81.3271 3.2496 80.4744 1.3924 78.7925 0.761661C78.3486 0.598135 77.9048 0.539682 77.4609 0.563042C76.7951 0.925136 76.2578 1.49749 75.9658 2.25672Z" fill="#C09B64"/>
    <path d="M80.1126 2.37359C80.6499 3.12114 80.6616 4.03215 80.1243 4.42929C79.587 4.81474 78.7226 4.53442 78.1737 3.78688C77.6364 3.03933 77.6247 2.12824 78.162 1.73111C78.6993 1.34565 79.5636 1.62604 80.1126 2.37359Z" fill="#E0B885"/>
</svg>
