<svg width="65" height="551" viewBox="0 0 65 551" fill="none" xmlns="http://www.w3.org/2000/svg">
    <path d="M-110.464 92.7778C-103.541 130.17 -67.6154 154.87 -30.2227 147.947C7.16988 141.023 31.8699 105.098 24.9464 67.7053C18.0228 30.3127 -17.9026 5.61266 -55.2952 12.5362C-92.6878 19.4598 -117.388 55.3852 -110.464 92.7778Z" fill="#B22104"/>
    <path d="M-101.704 57.2406C-107.252 65.3468 -110.476 74.3992 -111.551 83.6734C-110.499 104.418 -100.116 124.45 -81.6488 137.076C-50.2635 158.545 -7.40799 150.497 14.0606 119.1C14.8666 117.932 15.6141 116.741 16.3383 115.538C23.6503 89.8758 13.1262 60.4294 -11.5662 43.5395C-41.9587 22.76 -82.3146 28.8922 -101.704 57.2406Z" fill="#FC2700"/>
    <path d="M-109.087 82.9843C-108.234 103.18 -98.2004 122.721 -80.2359 135.009C-55.5551 151.887 -23.5391 149.831 -1.34623 132.077C0.0203818 130.991 -1.35791 128.83 -2.91141 129.648C-24.8589 141.153 -53.3242 139.926 -76.4047 124.146C-91.7177 113.669 -101.926 98.6711 -106.248 82.5638C-106.692 80.9052 -109.168 81.2789 -109.087 82.9843Z" fill="#F45540"/>
    <path opacity="0.5" d="M-15.583 309.047C-17.2883 313.777 -20.7341 324.29 -14.9873 330.585C-11.4248 334.487 -5.95831 335.76 -2.16216 335.094C0.61778 335.842 6.42295 334.16 7.38075 329.231C8.31518 324.383 14.0152 324.313 14.2021 324.313C15.814 326.205 13.513 330.621 12.158 335.596C10.3125 342.394 4.58913 355.92 5.60532 362.45C5.73381 363.279 6.10758 363.98 6.66824 364.576C6.59816 365.662 13.4079 369.867 20.3811 370.381C27.3543 370.895 32.9726 367.25 32.809 361.293C32.6455 355.371 30.3328 336.543 30.3094 336.297C31.1387 330.469 32.2367 326.602 34.8531 325.037C35.0517 325.119 39.9575 327.338 38.439 330.06C36.8855 332.84 36.757 336.461 39.1866 337.185C40.4481 337.559 43.263 337.827 45.6926 338.003C46.9891 338.248 48.4024 338.353 49.8858 338.248C54.0558 337.944 58.6228 335.97 61.648 330.831C68.0256 320.003 65.1989 293.278 30.8117 286.258C1.23684 280.219 -11.343 297.25 -15.583 309.023L-15.583 309.047Z" fill="#663612"/>
    <path opacity="0.5" d="M26.7221 546.253C31.8848 544.512 34.6648 538.906 32.9244 533.743L14.9015 480.223L-19.2638 331.707L-32.6963 340.011L-38.2328 322.467L-57.3887 332.08L-41.3865 373.534L-48.2663 361.001L-58.1362 365.883C-58.1362 365.883 -6.42697 478.775 -5.78455 480.679L14.224 540.062C15.9644 545.225 21.571 548.005 26.7338 546.264L26.7221 546.253Z" fill="#663612"/>
    <path d="M26.7821 342.091C26.7821 342.091 29.1182 361.142 29.2934 367.099C29.4569 373.056 23.8386 376.7 16.8654 376.186C9.8922 375.672 3.0825 371.467 3.15258 370.381C3.22266 369.295 26.7821 342.091 26.7821 342.091Z" fill="#B27559"/>
    <path d="M10.7109 330.106C10.7109 330.106 4.824 330.095 3.8662 335.024C2.90841 339.953 -2.89677 341.635 -5.67671 340.887C-8.45665 340.14 -4.57874 327.805 -4.57874 327.805C-4.57874 327.805 7.61562 324.068 10.7109 330.106Z" fill="#621E07"/>
    <path d="M31.3033 330.843C31.3033 330.843 36.4544 333.097 34.9126 335.877C33.3591 338.657 33.2306 342.278 35.6601 343.002C38.1013 343.726 46.3594 344.065 46.3594 344.065L44.362 326.206L32.6232 321.755L31.3033 330.843Z" fill="#621E07"/>
    <path d="M-19.0984 314.84C-14.8584 303.066 -2.27861 286.036 27.2962 292.075C61.6951 299.095 64.5101 325.82 58.1326 336.648C51.7551 347.475 38.5795 344.263 36.5822 340.946C34.5848 337.629 41.1609 330.597 35.309 330.095C29.4571 329.581 27.8569 334.171 26.6889 342.815C25.5091 351.458 31.2209 366.001 25.2288 369.902C19.2367 373.803 3.11775 374.784 2.10156 368.255C1.07368 361.726 6.80877 348.2 8.65428 341.402C10.4998 334.604 14.1441 328.857 7.15917 329.137C0.174277 329.418 -0.911997 333.132 -1.4493 337.629C-1.9866 342.138 -12.7443 342.686 -18.4911 336.379C-24.2378 330.083 -20.7921 319.571 -19.0867 314.84L-19.0984 314.84Z" fill="#C79069"/>
    <path d="M33.2887 294.54C9.40225 286.819 -5.30341 297.6 -8.09504 300.333C-10.3961 302.599 -17.7781 311.757 -19.9156 322.923C-20.1025 323.904 -18.5841 324.29 -18.1986 323.355C-14.0287 313.17 -3.37614 295.392 19.6694 297.798C51.7205 301.151 58.0045 321.346 59.0324 322.234C60.0603 323.122 57.1752 302.26 33.2887 294.54Z" fill="#E4B59B"/>
    <path d="M7.21743 316.172C6.8787 317.585 5.34857 318.473 3.80675 318.158C2.26493 317.842 1.29546 316.452 1.64587 315.039C1.9846 313.626 3.51474 312.738 5.05656 313.053C6.59837 313.369 7.56785 314.759 7.21743 316.172Z" fill="#BC8358"/>
    <path d="M29.7487 304.527C29.41 305.94 27.8798 306.828 26.338 306.512C24.7962 306.197 23.8267 304.807 24.1771 303.394C24.5159 301.98 26.046 301.092 27.5878 301.408C29.1296 301.723 30.0991 303.113 29.7487 304.527Z" fill="#BC8358"/>
    <path d="M33.4987 313.731C33.16 315.144 31.6298 316.032 30.088 315.716C28.5462 315.401 27.5767 314.011 27.9271 312.598C28.2659 311.184 29.796 310.297 31.3378 310.612C32.8796 310.927 33.8491 312.317 33.4987 313.731Z" fill="#BC8358"/>
    <path d="M54.5104 322.654C54.1717 324.068 52.6415 324.956 51.0997 324.64C49.5579 324.325 48.5884 322.935 48.9388 321.521C49.2776 320.108 50.8077 319.22 52.3495 319.536C53.8913 319.851 54.8608 321.241 54.5104 322.654Z" fill="#BC8358"/>
    <path d="M24.2012 317.165C23.512 317.562 22.6009 317.375 22.1688 316.756C21.7366 316.125 21.9351 315.296 22.6243 314.899C23.3134 314.502 24.2245 314.689 24.6567 315.308C25.0889 315.938 24.8903 316.768 24.2012 317.165Z" fill="#BC8358"/>
    <path d="M5.46678 309.946C4.77763 310.343 3.86656 310.156 3.43439 309.537C3.00221 308.907 3.20078 308.077 3.88992 307.68C4.57907 307.283 5.49014 307.47 5.92232 308.089C6.35449 308.72 6.15592 309.549 5.46678 309.946Z" fill="#BC8358"/>
    <path d="M44.664 322.304C43.9749 322.701 43.0638 322.514 42.6316 321.895C42.1995 321.265 42.398 320.435 43.0872 320.038C43.7763 319.641 44.6874 319.828 45.1196 320.447C45.5518 321.078 45.3532 321.907 44.664 322.304Z" fill="#BC8358"/>
    <path d="M41.4062 313.638C40.7171 314.035 39.806 313.848 39.3738 313.229C38.9417 312.598 39.1402 311.769 39.8294 311.372C40.5185 310.974 41.4296 311.161 41.8618 311.78C42.2939 312.411 42.0954 313.24 41.4062 313.638Z" fill="#BC8358"/>
    <path d="M22.414 326.988C21.7249 327.385 20.8138 327.198 20.3816 326.579C19.9495 325.948 20.148 325.119 20.8372 324.722C21.5263 324.325 22.4374 324.511 22.8696 325.13C23.3018 325.761 23.1032 326.591 22.414 326.988Z" fill="#BC8358"/>
    <path d="M55.4004 332.338C54.7112 332.735 53.8002 332.548 53.368 331.929C52.9358 331.298 53.1344 330.469 53.8235 330.072C54.5127 329.675 55.4237 329.861 55.8559 330.492C56.2881 331.123 56.0895 331.952 55.4004 332.349L55.4004 332.338Z" fill="#BC8358"/>
    <path d="M20.0095 308.299C19.5423 310.215 17.4632 311.418 15.3724 310.998C13.2816 310.565 11.9617 308.673 12.4289 306.758C12.8961 304.842 14.9752 303.639 17.066 304.059C19.1568 304.492 20.4767 306.384 20.0095 308.299Z" fill="#BC8358"/>
    <path d="M25.5323 346.389C25.5323 346.389 27.296 365.09 24.0021 367.834C20.7199 370.579 13.8168 370.427 13.8168 370.427C13.8168 370.427 20.9302 367.671 22.9742 361.363C25.0066 355.056 25.5323 346.389 25.5323 346.389Z" fill="#E4B59B"/>
    <path d="M-18.305 458.871L10.3471 543.928C12.0875 549.091 17.6941 551.871 22.8569 550.131C28.0196 548.39 30.7996 542.784 29.0592 537.621L0.407068 452.564L-18.305 458.871Z" fill="#EDE7D9"/>
    <path d="M-9.64858 484.545C-10.2793 482.665 -62.0003 369.75 -62.0003 369.75L-52.1303 364.868L1.02734 461.734L-9.64858 484.534L-9.64858 484.545Z" fill="url(#paint0_linear_0_1)"/>
    <path d="M-9.65089 484.545L-39.728 345.852L-23.1301 335.584L11.0351 484.113L-9.65089 484.545Z" fill="url(#paint1_linear_0_1)"/>
    <defs>
        <linearGradient id="paint0_linear_0_1" x1="2.06053" y1="485.068" x2="-21.8434" y2="440.872" gradientUnits="userSpaceOnUse">
            <stop stop-color="#EDE7D9"/>
            <stop offset="1" stop-color="#569046"/>
        </linearGradient>
        <linearGradient id="paint1_linear_0_1" x1="-1.25931" y1="486.086" x2="-10.6374" y2="435.359" gradientUnits="userSpaceOnUse">
            <stop stop-color="#EDE7D9"/>
            <stop offset="1" stop-color="#569046"/>
        </linearGradient>
    </defs>
</svg>
