<svg width="188" height="263" viewBox="0 0 188 263" fill="none" xmlns="http://www.w3.org/2000/svg">
    <path opacity="0.5" d="M-16.1723 104.282C-47.6279 123.679 -57.3948 164.902 -37.9974 196.358L75.8963 126.116C56.4989 94.6606 15.276 84.8937 -16.1723 104.282Z" fill="#663612"/>
    <path d="M-17.1125 115.76C-46.391 138.296 -51.8695 180.312 -29.333 209.59L76.7181 127.98C54.1816 98.7019 12.1659 93.2234 -17.1125 115.76Z" fill="#B22104"/>
    <path d="M-5.73944 130.539C-35.0179 153.075 -45.5891 188.459 -29.3415 209.583L76.7096 127.973C60.4545 106.858 23.539 108.002 -5.73944 130.539Z" fill="#EA4C2D"/>
    <path d="M-14.9745 192.318L0.0833698 180.737C0.678805 180.275 1.15577 179.699 1.49939 179.028C2.60603 176.85 4.07428 174.017 5.744 171.032C9.33197 164.615 9.08819 162.987 18.3103 157.295C24.9616 153.204 31.0746 152.93 33.9689 153.098C35.179 153.176 36.3639 152.808 37.3235 152.071L56.3495 137.421C59.1193 135.287 58.9132 131.051 55.9588 129.179C43.4596 121.234 20.9947 125.388 1.72102 140.226C-17.5527 155.064 -27.3227 175.714 -22.8479 189.829C-21.7888 193.164 -17.7533 194.445 -14.9835 192.311L-14.9745 192.318Z" fill="#B22104"/>
    <path d="M47.1207 130.654C47.1207 130.654 46.2279 136.619 41.3984 140.232C36.5688 143.845 36.2199 147.47 35.2253 145.796C34.2381 144.114 37.2162 143.76 37.186 140.428C37.1559 137.096 35.3412 135.258 38.3844 132.501C41.4441 129.743 46.5964 127.095 47.1132 130.663L47.1207 130.654Z" fill="#E0653F"/>
    <path d="M46.1642 130.528C46.1642 130.528 44.8251 135.714 42.8098 137.578C40.7855 139.435 39.9015 140.978 40.0588 140.001C40.2161 139.024 41.5262 137.956 42.4463 136.443C43.3663 134.93 46.1594 129.326 46.1732 130.535L46.1642 130.528Z" fill="#EF8975"/>
    <path d="M25.0307 131.811C25.0307 131.811 27.1924 137.44 24.7655 142.969C22.3386 148.497 23.8119 151.826 22.1357 150.847C20.4521 149.877 21.6571 148.66 19.9935 145.78C18.33 142.9 17.0403 141.619 18.3426 137.722C19.6449 133.826 22.8319 128.973 25.0233 131.82L25.0307 131.811Z" fill="#E0653F"/>
    <path d="M24.1365 132.177C24.1365 132.177 25.5252 137.348 24.6829 139.957C23.8407 142.566 23.8262 144.359 23.4811 143.421C23.1286 142.492 23.7524 140.915 23.8028 139.152C23.8533 137.388 23.5324 131.13 24.1365 132.177Z" fill="#EF8975"/>
    <path d="M-1.12037 145.577C-1.12037 145.577 4.64381 147.335 7.50601 152.65C10.3682 157.964 13.8941 158.853 12.0955 159.578C10.2969 160.302 9.36978 159.261 6.08281 158.797C2.78685 158.326 1.69394 157.906 -0.57679 154.477C-2.84752 151.048 -4.70672 145.548 -1.10391 145.576L-1.12037 145.577Z" fill="#E0653F"/>
    <path d="M-1.39088 146.506C-1.39088 146.506 3.54115 148.591 5.08187 150.869C6.62259 153.147 8.01203 154.253 7.06303 153.952C6.11403 153.651 5.25604 152.197 3.89797 151.071C2.53991 149.946 -2.59224 146.345 -1.39834 146.515L-1.39088 146.506Z" fill="#EF8975"/>
    <path d="M-15.4448 164.547C-15.4448 164.547 -10.0193 161.185 -4.70826 164.039C0.595346 166.901 4.3968 167.366 3.29455 168.971C2.1833 170.568 0.617913 168.027 -2.39315 169.446C-5.40422 170.865 -6.31274 173.297 -10.0889 171.685C-13.8741 170.066 -18.4469 166.504 -15.4283 164.545L-15.4448 164.547Z" fill="#E0653F"/>
    <path opacity="0.5" d="M-8.5694 191.178L71.7237 129.394C76.2276 125.935 63.2213 120.634 52.9196 126.402C42.6179 132.171 30.6123 155.61 23.3755 162.129C18.7852 166.258 2.30819 180.577 -9.13059 190.501C-9.56027 190.873 -9.02606 191.528 -8.5694 191.178Z" fill="#FCBAA2"/>
    <path opacity="0.5" d="M-32.9215 177.491C-29.7472 168.608 -22.2447 151.646 -8.56581 141.106C7.75309 128.552 20.4655 122.218 31.699 117.54C32.4414 117.23 32.0868 116.102 31.2992 116.284C22.5259 118.267 5.7191 123.666 -11.0424 137.871C-27.8427 152.104 -32.7566 168.45 -34.1907 177.137C-34.3231 177.938 -33.1917 178.238 -32.9141 177.482L-32.9215 177.491Z" fill="#FCBAA2"/>
    <path opacity="0.5" d="M89.8706 35.2295L74.6806 16.4395L62.2806 14.0695C61.6706 15.0195 60.5206 16.0095 58.4106 15.7995C55.5806 15.5195 54.3406 13.5395 53.8706 12.4595L-5.99944 0.999508L-24.6994 37.9595L-20.9694 44.7495L0.860578 65.2495C1.95057 65.1595 3.22058 65.2895 4.30058 66.0895C5.94058 67.2995 6.47056 69.4095 6.63057 70.6695L22.7806 85.8295C33.4006 87.8795 36.7806 98.9695 36.7806 98.9695L43.4206 105.2C96.7706 85.9095 89.8806 35.2295 89.8806 35.2295L89.8706 35.2295Z" fill="#663612"/>
    <path d="M89.5713 34.2393L74.3813 15.4493L61.9813 13.0793C61.3713 14.0293 60.2213 15.0193 58.1113 14.8093C55.2813 14.5293 54.0413 12.5493 53.5713 11.4693L-6.29871 0.00927315L-1.21872 7.47927L89.5713 34.2493L89.5713 34.2393Z" fill="#FFBE4A"/>
    <path d="M36.4719 97.9696C36.4719 97.9696 33.0919 86.8796 22.4719 84.8296L29.5719 80.3696L39.6719 90.9796L36.4619 97.9696L36.4719 97.9696Z" fill="#FECA52"/>
    <path d="M89.5718 34.2397L-1.21825 7.46972L-21.2682 43.7497L0.561742 64.2497C1.65174 64.1597 2.92174 64.2897 4.00174 65.0897C5.64174 66.2997 6.17176 68.4097 6.33176 69.6697L22.4818 84.8297C24.3918 84.6197 28.2217 84.7997 32.0917 87.4797C37.3517 91.1297 36.4818 97.9697 36.4818 97.9697L43.1217 104.2C96.4717 84.9097 89.5817 34.2297 89.5817 34.2297L89.5718 34.2397Z" fill="#FFDD71"/>
    <path d="M62.6718 62.2896C59.8918 59.9396 60.0818 55.1496 63.0918 51.5896C66.1018 48.0296 70.7918 47.0396 73.5718 49.3896C76.3518 51.7396 76.1618 56.5296 73.1518 60.0896C70.1418 63.6496 65.4518 64.6396 62.6718 62.2896Z" fill="#FFBE4A"/>
    <path d="M69.4616 56.9797C71.9216 54.0697 72.8116 50.6097 71.8716 48.4397C69.1316 47.4997 65.5516 48.6897 63.0916 51.5997C60.6316 54.5097 60.0616 58.2397 61.4516 60.7897C63.7516 61.3597 67.0116 59.8997 69.4716 56.9897L69.4616 56.9797Z" fill="#FECA52"/>
    <path d="M35.3817 67.7996C33.8817 66.5296 33.9817 63.9396 35.6117 62.0096C37.2417 60.0796 39.7817 59.5496 41.2817 60.8196C42.7817 62.0896 42.6817 64.6796 41.0517 66.6096C39.4217 68.5396 36.8817 69.0696 35.3817 67.7996Z" fill="#FFBE4A"/>
    <path d="M39.062 64.9297C40.392 63.3597 40.872 61.4897 40.362 60.3097C38.882 59.7997 36.942 60.4397 35.612 62.0197C34.282 63.5897 33.972 65.6097 34.722 66.9897C35.972 67.2997 37.732 66.5097 39.062 64.9297Z" fill="#FECA52"/>
    <path d="M64.592 18.0495C64.662 17.3595 65.812 16.9094 67.162 17.0394C68.512 17.1794 69.552 17.8494 69.482 18.5394C69.412 19.2294 68.262 19.6795 66.912 19.5495C65.562 19.4095 64.522 18.7395 64.592 18.0495Z" fill="#E5A339"/>
    <path d="M67.0221 17.3992C68.1221 17.5092 69.0621 18.5392 69.4121 18.1692C69.1621 17.6292 68.2621 17.1592 67.1621 17.0492C66.0621 16.9392 65.0921 17.2192 64.7321 17.6992C64.9921 18.1292 65.9221 17.2892 67.0221 17.3992Z" fill="#FECA52"/>
    <path d="M19.9113 8.64954C19.9813 7.95954 21.1313 7.50954 22.4813 7.63954C23.8313 7.77954 24.8714 8.44954 24.8014 9.13954C24.7314 9.82955 23.5813 10.2795 22.2313 10.1495C20.8813 10.0095 19.8413 9.33954 19.9113 8.64954Z" fill="#E5A339"/>
    <path d="M22.3512 7.99933C23.4512 8.10933 24.3912 9.13933 24.7412 8.76933C24.4912 8.22933 23.5912 7.75932 22.4912 7.64932C21.3912 7.53932 20.4212 7.81933 20.0612 8.29933C20.3212 8.72933 21.2512 7.88933 22.3512 7.99933Z" fill="#FECA52"/>
    <path d="M6.43163 34.0195C4.86163 32.6995 4.97165 29.9895 6.67165 27.9795C8.37165 25.9695 11.0217 25.4095 12.5817 26.7395C14.1517 28.0595 14.0416 30.7695 12.3416 32.7795C10.6416 34.7895 7.99163 35.3495 6.43163 34.0195Z" fill="#FFBE4A"/>
    <path d="M10.2621 31.0196C11.6521 29.3796 12.1521 27.4296 11.6221 26.1996C10.0721 25.6696 8.05212 26.3396 6.66212 27.9796C5.27212 29.6196 4.95213 31.7296 5.73213 33.1696C7.03213 33.4896 8.87213 32.6696 10.2621 31.0196Z" fill="#FECA52"/>
    <path d="M51.7812 23.2395C51.7812 23.2395 51.6912 23.1595 51.5312 23.0295L26.7513 15.7295C26.7013 15.7895 26.6812 15.8195 26.6812 15.8195C26.6812 15.8195 29.0213 24.0195 36.7113 26.6695C44.4013 29.3195 51.7812 23.2495 51.7812 23.2495L51.7812 23.2395Z" fill="#FFBE4A"/>
    <path d="M38.5013 22.0794C46.1913 24.7294 51.7812 23.2394 51.7812 23.2394C51.7812 23.2394 51.6912 23.1594 51.5312 23.0294C49.9512 21.6894 41.1813 14.4494 35.3213 13.5794C29.5113 12.7194 27.1713 15.2094 26.7513 15.7194C26.7013 15.7794 26.6812 15.8094 26.6812 15.8094C26.6812 15.8094 30.8113 19.4294 38.4913 22.0794L38.5013 22.0794Z" fill="#FECA52"/>
    <path d="M76.8916 30.6696C76.8916 30.6696 76.8516 30.6396 76.7916 30.5796L66.5416 27.5596L66.5116 27.5996C66.5116 27.5996 67.4816 30.9896 70.6616 32.0896C73.8416 33.1896 76.8916 30.6696 76.8916 30.6696Z" fill="#FFBE4A"/>
    <path d="M71.3916 30.1894C74.5716 31.2894 76.8916 30.6694 76.8916 30.6694C76.8916 30.6694 76.8516 30.6394 76.7916 30.5794C76.1416 30.0194 72.5116 27.0294 70.0816 26.6694C67.6816 26.3094 66.7116 27.3394 66.5416 27.5594C66.5216 27.5794 66.5116 27.5994 66.5116 27.5994C66.5116 27.5994 68.2216 29.0994 71.4016 30.1894L71.3916 30.1894Z" fill="#FECA52"/>
    <defs>
        <filter id="filter0_d_0_1" x="28.7332" y="83" width="159.267" height="179.267" filterUnits="userSpaceOnUse" color-interpolation-filters="sRGB">
            <feFlood flood-opacity="0" result="BackgroundImageFix"/>
            <feColorMatrix in="SourceAlpha" type="matrix" values="0 0 0 0 0 0 0 0 0 0 0 0 0 0 0 0 0 0 127 0" result="hardAlpha"/>
            <feOffset dx="-9.26683" dy="9.26683"/>
            <feComposite in2="hardAlpha" operator="out"/>
            <feColorMatrix type="matrix" values="0 0 0 0 0 0 0 0 0 0 0 0 0 0 0 0 0 0 0.25 0"/>
            <feBlend mode="normal" in2="BackgroundImageFix" result="effect1_dropShadow_0_1"/>
            <feBlend mode="normal" in="SourceGraphic" in2="effect1_dropShadow_0_1" result="shape"/>
        </filter>
        <clipPath id="clip0_0_1">
            <rect x="38" y="83" width="150" height="170" rx="14" fill="white"/>
        </clipPath>
    </defs>
</svg>
