<svg width="121" height="124" viewBox="0 0 121 124" fill="none" xmlns="http://www.w3.org/2000/svg">
    <path opacity="0.5" d="M38.2339 106.999C38.2339 106.999 38.2339 106.999 38.2456 106.987C38.3857 106.87 38.5142 106.754 38.631 106.625C38.6661 106.578 38.7011 106.532 38.7362 106.485C38.8179 106.38 38.9114 106.275 38.9814 106.158C39.0866 105.994 39.18 105.807 39.2501 105.621C39.2501 105.621 39.2501 105.621 39.2501 105.609C39.8808 103.927 39.0282 102.058 37.3462 101.439C37.1243 101.357 36.9023 101.299 36.6804 101.276C36.6804 101.276 36.6687 101.276 36.657 101.276C35.1853 101.065 33.7136 101.895 33.1646 103.343C32.5339 105.025 33.3865 106.882 35.0685 107.513C36.1781 107.922 37.3579 107.688 38.2105 107.011L38.2339 106.999Z" fill="#663612"/>
    <path d="M36.0042 100.119C37.6862 100.75 38.5272 102.619 37.9081 104.289C37.2774 105.971 35.4085 106.812 33.7382 106.193C32.0562 105.562 31.2152 103.693 31.8343 102.023C32.4651 100.341 34.3339 99.5001 36.0042 100.119Z" fill="#B28850"/>
    <path d="M33.1885 101.626C32.5577 103.308 33.4104 105.165 35.0924 105.796C35.5362 105.959 35.9801 106.018 36.4239 105.994C37.0897 105.632 37.6387 105.06 37.919 104.301C38.5498 102.619 37.6971 100.761 36.0151 100.131C35.5713 99.9672 35.1274 99.9088 34.6836 99.9322C34.0178 100.294 33.4805 100.867 33.1885 101.626Z" fill="#C09B64"/>
    <path d="M37.3353 101.743C37.8726 102.49 37.8843 103.401 37.347 103.798C36.8097 104.196 35.9453 103.904 35.3963 103.156C34.859 102.408 34.8473 101.497 35.3846 101.1C35.9219 100.715 36.7863 100.995 37.3353 101.743Z" fill="#E0B885"/>
    <path opacity="0.5" d="M22.2103 31.3708C22.0459 31.4298 21.8816 31.4888 21.7172 31.5477C21.5383 31.6205 21.3666 31.6864 21.1946 31.7664C21.0084 31.8459 20.8363 31.9259 20.657 32.0128C20.535 32.073 20.413 32.1331 20.2907 32.2074C20.0895 32.3149 19.8884 32.4224 19.7014 32.5302C19.6942 32.5371 19.6796 32.5508 19.6723 32.5577C18.8803 33.0445 18.1784 33.5974 17.5529 34.2021C11.5123 40.142 12.9949 51.6723 13.8946 58.3333C13.9467 58.738 14.0065 59.1217 14.0457 59.4836C14.3137 61.5002 15.5442 63.9969 17.4237 66.8022C18.1294 67.8551 18.9188 68.9528 19.7921 70.0812C20.9445 71.5925 22.2436 73.1716 23.6263 74.7956C26.0495 77.6376 28.7519 80.6149 31.5168 83.6293C31.9151 84.0509 32.3057 84.4936 32.7109 84.9225C36.2926 88.8161 39.93 92.7396 43.1906 96.4826C43.5537 96.8962 43.9314 97.296 44.3237 97.6821C56.4711 109.551 82.6747 105.763 91.1089 101.222C91.4033 101.067 91.6844 100.884 91.9586 100.694C92.0164 100.653 92.06 100.612 92.1178 100.571C92.3415 100.415 92.5515 100.244 92.7615 100.073C92.7979 100.039 92.8342 100.005 92.8706 99.9702C93.0887 99.7642 93.3067 99.5582 93.5179 99.3449C93.5325 99.3312 93.547 99.3174 93.5616 99.3037C96.6624 95.9894 97.7536 90.4604 98.0079 84.759C98.1748 80.8872 97.9684 76.9553 97.7391 73.5816C97.6999 72.9721 97.6603 72.3768 97.6198 71.8097C97.5838 71.3347 97.5547 70.867 97.5248 70.4276C97.4055 68.6557 97.121 66.9711 96.6721 65.3454C96.2305 63.7129 95.6314 62.1466 94.8755 60.6184C94.314 59.4705 93.6738 58.3559 92.9551 57.2602C92.5011 56.5611 92.0111 55.8821 91.5069 55.2028C91.2072 54.7981 90.893 54.4072 90.5718 54.009C90.2778 53.654 89.9837 53.299 89.6755 52.9436C89.0591 52.2328 88.4213 51.5285 87.7479 50.8302C87.4114 50.474 87.0677 50.1247 86.7166 49.7822C86.345 49.4179 85.9597 49.0391 85.574 48.6744C84.8647 47.9963 84.1271 47.3175 83.3612 46.6378C82.1745 45.5853 80.9312 44.5312 79.6245 43.4683C79.1337 43.0653 78.6357 42.6691 78.1308 42.2657C77.3492 41.6421 76.5534 41.0182 75.7367 40.3865C75.2108 39.9754 74.6707 39.5639 74.1238 39.1451C72.1991 37.6755 70.1763 36.1748 68.0771 34.6224C66.5046 33.4529 64.8417 32.4788 63.1178 31.6587C60.8215 30.5676 58.4324 29.7568 56.0086 29.1713C55.4043 29.0268 54.7997 28.8964 54.1878 28.7729C39.5899 25.9449 24.5403 30.7793 24.5403 30.7793C24.1207 30.8593 23.7221 30.947 23.3299 31.0561C23.1873 31.0944 23.0516 31.1401 22.9163 31.1717C22.6809 31.2428 22.4454 31.3139 22.2168 31.3922L22.2103 31.3708Z" fill="#663612"/>
    <path d="M30.5567 23.7712C30.5567 23.7712 57.3003 15.1811 74.0866 27.607C90.8728 40.033 102.571 49.3147 103.534 63.4405C104.157 72.6048 105.832 89.5521 97.1245 94.2418C88.4173 98.9314 60.775 102.813 49.2062 89.5028C37.6305 76.1853 21.14 60.5775 20.0686 52.4968C18.9971 44.4162 15.986 26.4475 30.5567 23.7712Z" fill="#E8C59B"/>
    <path d="M97.1183 94.2343C98.3469 93.569 99.363 92.6642 100.208 91.5635C98.7244 88.5077 95.9571 86.0733 92.7224 86.8867C86.4383 88.462 79.0784 87.0781 68.2235 85.2127C57.3686 83.3473 59.7934 76.6961 53.1532 70.6569C46.5057 64.6245 41.5929 66.2389 37.2799 63.6826C33.9686 61.7208 23.6969 46.8277 19.0951 40.0047C18.9481 44.6693 19.6574 49.3229 20.0769 52.4757C21.1484 60.5563 37.6389 76.1642 49.2145 89.4817C60.7902 102.799 88.4256 98.9102 97.1328 94.2206L97.1183 94.2343Z" fill="#E1BA7F"/>
    <path d="M103.519 63.44C102.571 49.3147 90.8656 40.0398 74.0725 27.6066C57.2863 15.1807 30.5427 23.7708 30.5427 23.7708C27.5062 24.328 25.2429 25.5581 23.5548 27.2078C25.1902 28.1527 27.297 28.9413 29.6921 28.7973C35.2546 28.4676 52.3304 27.4967 62.1675 34.2991C72.0046 41.1014 69.7242 45.9104 78.3593 47.2316C86.9943 48.5527 91.8628 48.4933 94.988 55.0055C97.6191 60.4849 99.8203 78.5719 103.995 77.7783C104.22 72.6137 103.777 67.3239 103.513 63.4328L103.519 63.44Z" fill="#FBDEBE"/>
    <path d="M58.164 33.2936C57.6988 33.7331 56.7367 33.4864 56.0225 32.7304C55.3084 31.9743 55.1096 31.0066 55.5821 30.5603C56.0546 30.1139 57.0094 30.3675 57.7236 31.1235C58.4378 31.8795 58.6366 32.8473 58.164 33.2936Z" fill="#C09B64"/>
    <path d="M93.249 72.1383C92.7838 72.5778 91.8216 72.3311 91.1075 71.5751C90.3933 70.8191 90.1945 69.8513 90.667 69.405C91.1396 68.9586 92.0944 69.2122 92.8086 69.9682C93.5227 70.7243 93.7215 71.692 93.249 72.1383Z" fill="#C09B64"/>
    <path d="M65.9073 54.7716C65.5729 55.0875 64.8232 54.8327 64.2327 54.2075C63.6421 53.5824 63.4304 52.8194 63.7648 52.5036C64.0992 52.1877 64.8488 52.4425 65.4394 53.0676C66.03 53.6928 66.2416 54.4558 65.9073 54.7716Z" fill="#C09B64"/>
    <path d="M59.9375 84.5382C59.6031 84.8541 58.8535 84.5993 58.2629 83.9741C57.6724 83.349 57.4607 82.586 57.7951 82.2702C58.1295 81.9543 58.8791 82.2091 59.4697 82.8342C60.0602 83.4594 60.2719 84.2224 59.9375 84.5382Z" fill="#C09B64"/>
    <path d="M72.7534 66.49C72.3317 66.8883 71.3785 66.5782 70.63 65.7858C69.8815 64.9935 69.6189 64.031 70.0478 63.6258C70.4767 63.2207 71.4227 63.5377 72.1712 64.3301C72.9197 65.1224 73.1823 66.0849 72.7534 66.49Z" fill="#C09B64"/>
    <path d="M39.9535 58.7083C39.5319 59.1066 38.5787 58.7965 37.8302 58.0041C37.0817 57.2117 36.8191 56.2492 37.248 55.8441C37.6769 55.439 38.6229 55.756 39.3714 56.5483C40.1198 57.3407 40.3824 58.3031 39.9535 58.7083Z" fill="#C09B64"/>
    <path d="M77.5932 88.0545C77.1716 88.4528 76.2184 88.1427 75.4699 87.3503C74.7214 86.5579 74.4587 85.5954 74.8876 85.1903C75.3165 84.7851 76.2625 85.1021 77.011 85.8945C77.7595 86.6869 78.0221 87.6493 77.5932 88.0545Z" fill="#C09B64"/>
    <path d="M80.964 66.5612C81.4873 67.1152 82.1362 67.3522 82.4132 67.0906C82.6902 66.8289 82.4905 66.1676 81.9672 65.6135C81.4438 65.0595 80.795 64.8225 80.5179 65.0842C80.2409 65.3459 80.4406 66.0071 80.964 66.5612Z" fill="#C09B64"/>
    <path d="M96.964 87.4464C97.4873 88.0005 98.1362 88.2375 98.4132 87.9758C98.6902 87.7141 98.4905 87.0528 97.9672 86.4988C97.4438 85.9448 96.795 85.7077 96.5179 85.9694C96.2409 86.2311 96.4406 86.8924 96.964 87.4464Z" fill="#C09B64"/>
    <path d="M80.6066 52.5657C80.3303 52.8266 79.6792 52.5888 79.1573 52.0363C78.6354 51.4838 78.4351 50.8202 78.7113 50.5593C78.9875 50.2983 79.6386 50.5362 80.1605 51.0886C80.6824 51.6411 80.8828 52.3047 80.6066 52.5657Z" fill="#C09B64"/>
    <path d="M82.0925 75.6053C81.8817 75.8044 81.357 75.5984 80.9175 75.1332C80.4781 74.6679 80.3023 74.1324 80.5132 73.9333C80.724 73.7341 81.2486 73.9401 81.6881 74.4053C82.1276 74.8706 82.3033 75.4061 82.0925 75.6053Z" fill="#C09B64"/>
    <path d="M91.3718 49.3426C91.161 49.5417 90.6363 49.3358 90.1969 48.8706C89.7574 48.4053 89.5816 47.8697 89.7925 47.6706C90.0033 47.4714 90.528 47.6774 90.9674 48.1427C91.4069 48.6079 91.5826 49.1434 91.3718 49.3426Z" fill="#C09B64"/>
    <path d="M42.1199 34.0603C41.9091 34.2595 41.3844 34.0536 40.9449 33.5883C40.5054 33.1231 40.3297 32.5875 40.5405 32.3884C40.7513 32.1892 41.276 32.3952 41.7155 32.8604C42.155 33.3257 42.3307 33.8612 42.1199 34.0603Z" fill="#C09B64"/>
    <path d="M71.701 37.3719C71.4902 37.571 70.9655 37.3651 70.526 36.8998C70.0865 36.4346 69.9107 35.899 70.1216 35.6999C70.3324 35.5007 70.8571 35.7067 71.2965 36.1719C71.736 36.6372 71.9118 37.1728 71.701 37.3719Z" fill="#C09B64"/>
    <path d="M45.1792 48.3381C44.6994 48.7913 43.785 48.6097 43.1395 47.9264C42.494 47.243 42.3647 46.3197 42.8444 45.8665C43.3242 45.4133 44.2387 45.595 44.8842 46.2783C45.5297 46.9616 45.659 47.8849 45.1792 48.3381Z" fill="#C09B64"/>
</svg>
