<svg width="393" height="852" viewBox="0 0 393 852" fill="none" xmlns="http://www.w3.org/2000/svg">
<!--    <path d="M459.248 222.902C473.143 268.478 497.681 355.25 505.029 382.819C512.376 410.388 536.412 501.776 538.5 544.275C540.588 586.774 552.536 760.946 556.257 800.07C558.47 823.321 562.929 852.585 566.195 872.492L579.257 872.492C582.554 827.356 588.739 737.648 588.739 698.54C588.739 645.161 568.848 542.595 573.04 491.304C577.232 440.013 565.708 397.106 571.988 354.104C578.268 311.103 582.46 225.445 586.636 171.784C590.827 118.107 622.227 -65.517 643.155 -125.176C657.535 -166.136 667.96 -252.516 673.078 -304.984L641.066 -304.984L641.066 -265.421C641.066 -265.421 632.699 -190.063 625.367 -142.964C618.035 -95.8644 589.776 41.2409 588.739 90.4437C587.688 139.631 562.568 252.669 561.532 287.569C560.496 322.469 560.48 412.805 556.257 457.816C552.033 502.827 552.112 509.107 546.868 515.638C541.64 522.185 525.941 432.697 522.204 406.526C518.483 380.354 495.577 303.96 495.515 287.569C495.452 271.179 449.53 165.802 444.428 129.159C439.31 92.5318 395.115 -44.5893 381.504 -97.9682C371.456 -137.359 347.184 -249.109 335.142 -305L314.356 -305C332.128 -234.257 363.841 -108.44 374.187 -70.7607C388.835 -17.3817 445.354 177.294 459.264 222.871L459.248 222.902Z" fill="#A35D2E"/>-->
<!--    <path d="M235.025 -304.985L212.7 -304.985C220.094 -273.617 233.455 -208.542 227.661 -169.135C219.812 -115.757 215.102 22.4007 218.242 67.9298C221.382 113.459 235.433 204.093 230.801 244.457C226.17 284.821 229.231 416.463 221.382 482.402C213.532 548.34 191.552 640.968 174.282 679.276C157.013 717.583 163.293 804.245 164.863 827.795C165.522 837.685 165.632 855.348 165.522 872.492L177.878 872.492C178.412 832.316 179.589 778.89 182.132 736.312C186.842 657.375 207.252 634.704 230.801 526.784C254.351 418.865 237.081 232.792 230.801 138.594C224.522 44.396 240.221 -81.2015 249.641 -147.14C256.722 -196.688 242.513 -271.074 235.025 -304.969L235.025 -304.985Z" fill="#A35D2E"/>-->
<!--    <path d="M22.5135 16.1366C26.7053 52.7639 49.7211 108.247 53.2535 151.154C56.7859 194.061 85.3122 419.1 85.3122 460.956C85.3122 502.811 102.064 621.093 104.152 668.411C106.24 715.73 105.204 797.981 105.204 823.1C105.204 836.131 104.356 856.195 103.54 872.507L122.85 872.507C122.473 858.127 122.505 841.249 124.043 830.432C127.183 808.453 143.935 657.736 144.971 633.668C146.023 609.6 171.142 564.589 174.282 539.47C177.422 514.35 183.702 485.039 185.79 444.22C187.878 403.401 195.21 291.415 193.122 259.827C191.034 228.255 188.93 79.9872 184.754 40.2042C180.562 0.436859 181.614 -94.8131 192.086 -151.332C199.637 -192.088 187.046 -266.599 179.432 -304.985L162.037 -304.985C169.981 -268.609 183.247 -201.053 179.526 -171.223C174.298 -129.352 174.298 -62.3776 172.194 -19.4546C170.106 23.4526 171.142 93.5831 174.282 153.242C177.422 212.901 178.474 306.047 175.334 379.993C172.194 453.922 144.987 539.454 137.655 569.818C130.323 600.165 112.536 665.068 111.484 660.091C110.432 655.114 102.064 554.118 104.152 515.654C106.24 477.189 91.5921 383.509 80.0843 281.634C68.5764 179.743 34.0371 15.1004 34.5081 -18.3871C34.9791 -51.8745 6.82957 -125.145 2.63775 -151.316C1.99406 -155.383 1.08341 -160.893 0.0158326 -167.299L0.0158292 -88.3449C10.2206 -45.2021 20.4726 -1.71397 22.5135 16.1366Z" fill="#A35D2E"/>-->
<!--    <path d="M540.068 857.64C529.078 818.391 532.218 741.462 528.12 693.217C524.023 644.972 490.253 457.298 490.253 457.298C490.253 457.298 452.15 358.39 444.426 306.299C436.701 254.207 419.18 174.704 403.638 121.325C388.095 67.9459 373.667 27.1267 353.257 -63.9315C336.898 -136.888 302.406 -259.22 289.344 -304.969L264.052 -304.969L323.852 -140.86C323.852 -140.86 340.698 -59.2216 345.408 -27.8222C350.117 3.57717 403.638 178.016 403.638 178.016C403.638 178.016 425.476 278.322 420.217 309.423C414.957 340.524 467.865 463.578 468.289 493.407C468.713 523.237 492.985 579.756 495.528 600.511C498.071 621.266 510.254 725.763 505.042 772.265C502.593 794.151 510.898 835.174 520.381 872.508L543.836 872.508C542.674 867.405 541.418 862.413 540.084 857.64L540.068 857.64Z" fill="#A35D2E"/>-->
<!--    <path d="M351.154 649.525C352.206 613.07 330.226 544.683 330.226 544.683C326.882 533.661 337.401 743.55 337.401 743.55C337.401 743.55 334.418 820.997 323.852 866.008C323.318 868.3 322.863 870.451 322.455 872.492L352.457 872.492C350.793 806.192 350.369 677.518 351.17 649.525L351.154 649.525Z" fill="#A35D2E"/>-->
<!--    <path d="M434.928 540.506C434.928 540.506 420.752 454.158 396.291 400.716C371.816 347.275 381.518 281.462 367.812 213.843C354.106 146.225 307.73 -2.70271 307.73 -2.70271C307.73 -2.70271 295.688 -119.932 291.512 -148.192C287.336 -176.451 275.812 -165.979 281.04 -134.58C286.268 -103.181 289.408 -33.0502 285.232 3.57717C281.04 40.2045 280.004 65.324 276.864 98.8271C273.724 132.315 263.252 208.725 257.506 264.647C251.744 320.57 259.092 490.016 244.946 526.801C230.801 563.585 215.117 658.27 218.257 722.638C220.596 770.475 206.294 839.962 198.789 872.523L219.56 872.523C220.628 867.421 221.758 861.958 222.967 856.086C233.957 802.707 226.107 714.789 226.107 665.382C226.107 615.975 246.516 575.061 257.506 501.273C268.496 427.484 266.926 350.556 268.496 302.593C270.066 254.631 276.346 196.699 281.056 157.45C285.766 118.201 307.745 56.9718 307.745 56.9718C307.745 56.9718 339.145 148.03 345.424 171.815C351.704 195.6 362.694 301.887 367.828 343.899C372.962 385.896 395.663 441.63 406.889 496.579C418.114 551.528 419.213 706.955 419.213 706.955C419.213 706.955 447.472 827.842 450.031 852.962C450.597 858.457 451.35 865.27 452.198 872.539L479.547 872.539C475.214 855.222 469.656 835.472 462.968 816.852C445.479 768.183 434.975 540.538 434.975 540.538L434.928 540.506Z" fill="#A35D2E"/>-->
<!--    <path d="M392.491 532.123C388.833 475.604 352.19 450.484 335.454 393.416C318.702 336.348 315.562 212.163 315.562 212.163C300.915 157.01 314.51 380.354 323.836 412.805C333.162 445.256 295.671 515.371 277.883 582.362C260.095 649.352 261.132 675.508 257.474 744.587C255.087 789.566 253.297 841.626 252.34 872.492L271.038 872.492C271.289 813.493 271.085 698.225 272.655 655.993C274.743 599.836 321.842 518.527 323.836 487.127C325.83 455.728 336.49 428.521 342.315 441.08C348.139 453.64 365.801 492.371 375.221 511.211C384.641 530.051 387.781 589.709 382.553 661.582C377.325 733.456 393.025 796.945 392.491 834.624C392.302 848.032 394.579 861.157 397.562 872.508L419.871 872.508C417.453 857.295 414.549 839.334 411.849 823.101C405.569 785.422 396.149 588.657 392.491 532.139L392.491 532.123Z" fill="#A35D2E"/>-->
    <path opacity="0.5" d="M377.53 468.047C375.825 472.777 372.379 483.29 378.126 489.585C381.689 493.487 387.155 494.76 390.951 494.094C393.731 494.842 399.536 493.16 400.494 488.231C401.428 483.383 407.129 483.313 407.315 483.313C408.927 485.205 406.626 489.621 405.271 494.596C403.426 501.394 397.702 514.92 398.719 521.45C398.847 522.279 399.221 522.98 399.782 523.576C399.711 524.662 406.521 528.867 413.494 529.381C420.468 529.895 426.086 526.25 425.922 520.293C425.759 514.371 423.446 495.543 423.423 495.297C424.252 489.469 425.35 485.602 427.966 484.037C428.165 484.119 433.071 486.338 431.552 489.06C429.999 491.84 429.87 495.461 432.3 496.185C433.561 496.559 436.376 496.827 438.806 497.003C440.102 497.248 441.516 497.353 442.999 497.248C447.169 496.944 451.736 494.97 454.761 489.831C461.139 479.003 458.312 452.278 423.925 445.258C394.35 439.219 381.77 456.25 377.53 468.023L377.53 468.047Z" fill="#663612"/>
    <path opacity="0.5" d="M419.835 705.253C424.998 703.512 427.778 697.906 426.038 692.743L408.015 639.223L373.85 490.707L360.417 499.011L354.88 481.467L335.725 491.08L351.727 532.534L344.847 520.001L334.977 524.883C334.977 524.883 386.686 637.775 387.329 639.679L407.337 699.062C409.078 704.225 414.684 707.005 419.847 705.264L419.835 705.253Z" fill="#663612"/>
    <path d="M374.015 473.84C378.255 462.066 390.835 445.036 420.41 451.075C454.808 458.095 457.623 484.82 451.246 495.648C444.868 506.475 431.693 503.263 429.695 499.946C427.698 496.629 434.274 489.597 428.422 489.095C422.57 488.581 420.97 493.171 419.802 501.815C418.622 510.458 424.334 525.001 418.342 528.902C412.35 532.803 396.231 533.784 395.215 527.255C394.187 520.726 399.922 507.2 401.768 500.402C403.613 493.604 407.257 487.857 400.272 488.137C393.288 488.418 392.201 492.132 391.664 496.629C391.127 501.138 380.369 501.686 374.622 495.379C368.875 489.083 372.321 478.571 374.027 473.84L374.015 473.84Z" fill="#C79069"/>
    <path d="M426.402 453.54C402.516 445.819 387.81 456.6 385.018 459.333C382.717 461.599 375.335 470.757 373.198 481.923C373.011 482.904 374.529 483.29 374.915 482.355C379.085 472.17 389.737 454.392 412.783 456.798C444.834 460.151 451.118 480.346 452.146 481.234C453.174 482.122 450.289 461.26 426.402 453.54Z" fill="#E4B59B"/>
    <path d="M384.201 485.953C383.512 486.35 382.601 486.163 382.169 485.544C381.737 484.913 381.935 484.084 382.624 483.687C383.313 483.29 384.225 483.477 384.657 484.096C385.089 484.727 384.89 485.556 384.201 485.953Z" fill="#BC8358"/>
    <path d="M362.428 574.198L331.86 494.958L351.016 485.357L388.113 602.874L362.428 574.198Z" fill="#408743"/>
    <path d="M374.808 617.871L403.46 702.928C405.201 708.091 410.807 710.871 415.97 709.131C421.133 707.39 423.913 701.784 422.172 696.621L393.52 611.564L374.808 617.871Z" fill="#EDE7D9"/>
    <path d="M383.465 643.545C382.834 641.665 331.113 528.75 331.113 528.75L340.983 523.868L394.141 620.734L383.465 643.534L383.465 643.545Z" fill="url(#paint0_linear_0_1)"/>
    <path d="M383.462 643.545L353.385 504.852L369.983 494.584L404.148 643.113L383.462 643.545Z" fill="url(#paint1_linear_0_1)"/>
<!--    <path opacity="0.5" d="M270.234 696.999C270.234 696.999 270.234 696.999 270.246 696.987C270.386 696.87 270.514 696.754 270.631 696.625C270.666 696.578 270.701 696.532 270.736 696.485C270.818 696.38 270.911 696.275 270.981 696.158C271.087 695.994 271.18 695.807 271.25 695.621C271.25 695.621 271.25 695.621 271.25 695.609C271.881 693.927 271.028 692.058 269.346 691.439C269.124 691.357 268.902 691.299 268.68 691.276C268.68 691.276 268.669 691.276 268.657 691.276C267.185 691.065 265.714 691.895 265.165 693.343C264.534 695.025 265.387 696.882 267.068 697.513C268.178 697.922 269.358 697.688 270.211 697.011L270.234 696.999Z" fill="#663612"/>-->
<!--    <path opacity="0.5" d="M125.618 707.136C153.313 731.607 195.596 728.979 220.055 701.296L119.766 612.7C95.296 640.394 97.9241 682.678 125.607 707.136L125.618 707.136Z" fill="#663612"/>-->
<!--    <path d="M130.536 701.436C158.231 725.907 200.514 723.279 224.973 695.596L124.684 607C100.214 634.694 102.842 676.977 130.525 701.436L130.536 701.436Z" fill="#B22104"/>-->
<!--    <path d="M142.883 687.455C170.577 711.925 207.324 715.558 224.973 695.596L124.684 607C107.047 626.974 115.188 662.996 142.883 687.455Z" fill="#EA4C2D"/>-->
<!--    <path d="M205.291 684.78L191.053 672.201C190.492 671.698 189.826 671.336 189.114 671.138C186.766 670.472 183.706 669.561 180.459 668.486C173.474 666.185 171.92 666.734 164.585 658.756C159.306 653.01 157.869 647.053 157.483 644.179C157.32 642.976 156.736 641.89 155.836 641.084L137.849 625.187C135.232 622.874 131.109 623.879 129.824 627.137C124.404 640.92 132.756 662.19 150.977 678.286C169.211 694.393 191.345 700.058 204.345 692.968C207.417 691.298 207.908 687.081 205.291 684.769L205.291 684.78Z" fill="#B22104"/>-->
<!--    <path d="M196.929 691.719C196.929 691.719 191.696 688.728 190.084 682.912C188.472 677.095 185.225 675.448 187.14 675.144C189.056 674.84 188.67 676.242 191.777 677.422C194.884 678.601 196.216 681.603 197.676 685.446C199.136 689.289 200.444 692.536 196.94 691.719L196.929 691.719Z" fill="#E0653F"/>-->
<!--    <path d="M197.395 690.866C197.395 690.866 193.05 687.735 192.046 685.177C191.041 682.619 189.931 681.229 190.784 681.732C191.648 682.234 192.151 683.846 193.237 685.247C194.323 686.649 198.516 691.286 197.395 690.866Z" fill="#EF8975"/>-->
<!--    <path opacity="0.5" d="M202.955 678.718L127.033 611.649C122.769 607.887 120.048 621.659 127.675 630.676C135.302 639.705 160.59 647.017 168.37 652.881C173.299 656.595 190.492 670.062 202.406 679.407C202.862 679.757 203.399 679.103 202.967 678.718L202.955 678.718Z" fill="#FCBAA2"/>-->
<!--    <path opacity="0.5" d="M194.148 705.221C184.827 703.784 166.734 699.661 153.792 688.226C138.362 674.595 129.719 663.323 123.003 653.184C122.559 652.507 121.519 653.079 121.846 653.815C125.456 662.05 133.959 677.527 151.094 691.274C168.264 705.057 185.248 706.774 194.043 706.529C194.849 706.506 194.942 705.338 194.137 705.209L194.148 705.221Z" fill="#FCBAA2"/>-->
    <path opacity="0.5" d="M344.735 778.242C345.121 778.114 345.495 777.985 345.88 777.857C346.172 777.752 346.464 777.658 346.756 777.553C347.142 777.413 347.527 777.273 347.912 777.132C348.204 777.027 348.496 776.922 348.788 776.805C349.174 776.654 349.571 776.502 349.968 776.35C350.26 776.233 350.552 776.128 350.844 776.011C351.253 775.848 351.662 775.684 352.071 775.521C352.351 775.404 352.631 775.299 352.9 775.182C353.344 774.995 353.776 774.808 354.22 774.621C354.465 774.516 354.71 774.411 354.956 774.306C355.575 774.037 356.182 773.769 356.801 773.488C357.058 773.371 357.303 773.255 357.56 773.138C358.051 772.916 358.542 772.694 359.032 772.46C359.336 772.32 359.64 772.168 359.932 772.028C360.305 771.853 360.691 771.666 361.065 771.491C361.392 771.339 361.707 771.175 362.022 771.024C362.373 770.848 362.735 770.673 363.085 770.498C363.412 770.334 363.739 770.171 364.055 770.007C364.405 769.832 364.744 769.657 365.094 769.482C365.421 769.318 365.748 769.143 366.075 768.979C366.403 768.816 366.73 768.641 367.045 768.477C367.384 768.302 367.722 768.127 368.061 767.94C368.365 767.776 368.669 767.613 368.972 767.461C369.311 767.274 369.65 767.099 369.988 766.912C370.28 766.749 370.572 766.597 370.864 766.433C371.203 766.246 371.542 766.059 371.881 765.884C372.161 765.732 372.43 765.581 372.698 765.429C373.049 765.242 373.387 765.043 373.726 764.856C373.936 764.74 374.135 764.623 374.334 764.506C376.284 763.408 378.141 762.333 379.882 761.306C380.723 760.815 381.54 760.324 382.311 759.857C383.713 759.004 384.414 757.673 384.507 756.306C384.659 754.029 383.141 751.681 380.419 751.389L318.081 744.649C317.707 744.614 317.333 744.591 316.959 744.591C316.223 744.591 315.511 744.696 314.822 744.859C310.71 745.876 307.685 749.648 307.755 754.064C307.755 754.437 307.79 754.799 307.837 755.185C307.93 755.909 308.059 756.668 308.187 757.428C308.211 757.556 308.234 757.685 308.257 757.813C308.9 761.259 309.986 764.938 311.785 768.407C311.855 768.536 311.925 768.664 311.995 768.804C312.229 769.237 312.462 769.669 312.719 770.101C312.824 770.276 312.941 770.451 313.046 770.626C313.28 771 313.525 771.374 313.782 771.748C313.922 771.946 314.062 772.133 314.203 772.332C314.448 772.671 314.717 773.009 314.985 773.348C315.149 773.547 315.312 773.745 315.476 773.944C315.744 774.259 316.036 774.574 316.329 774.878C316.515 775.077 316.691 775.264 316.877 775.451C317.181 775.754 317.508 776.046 317.824 776.338C318.022 776.513 318.209 776.689 318.419 776.864C318.781 777.167 319.167 777.46 319.552 777.752C319.739 777.892 319.914 778.032 320.101 778.172C320.685 778.593 321.304 778.99 321.947 779.363C322.321 779.585 322.706 779.772 323.115 779.947C323.243 780.006 323.395 780.053 323.524 780.111C323.804 780.216 324.084 780.333 324.376 780.415C324.552 780.473 324.727 780.508 324.902 780.555C325.171 780.625 325.451 780.695 325.731 780.765C325.93 780.8 326.128 780.835 326.327 780.87C326.607 780.917 326.888 780.964 327.18 780.999C327.39 781.022 327.6 781.045 327.81 781.069C328.102 781.092 328.394 781.115 328.698 781.127C328.92 781.127 329.142 781.151 329.364 781.151C329.668 781.151 329.983 781.151 330.298 781.151C330.52 781.151 330.754 781.151 330.987 781.139C331.315 781.127 331.653 781.104 331.992 781.08C332.214 781.069 332.436 781.045 332.669 781.022C333.032 780.987 333.405 780.94 333.791 780.894C334.001 780.87 334.2 780.847 334.41 780.812C334.865 780.742 335.333 780.672 335.8 780.59C335.94 780.566 336.068 780.543 336.209 780.52C336.816 780.403 337.435 780.274 338.054 780.146C338.218 780.111 338.393 780.064 338.556 780.029C339.024 779.924 339.479 779.807 339.958 779.691C340.192 779.632 340.437 779.562 340.671 779.492C341.079 779.387 341.476 779.27 341.897 779.153C342.166 779.071 342.434 778.99 342.703 778.908C343.088 778.791 343.474 778.674 343.871 778.546C344.151 778.452 344.443 778.359 344.724 778.265L344.735 778.242Z" fill="#663612"/>
    <path d="M324.736 738.272L387.075 745.011C391.432 745.479 392.717 751.214 388.967 753.491C372.194 763.63 341.101 780.298 328.614 772.986C318.943 767.309 315.579 756.949 314.504 748.819C313.71 742.804 318.721 737.629 324.748 738.284L324.736 738.272Z" fill="#DAD4D8"/>
    <path d="M387.075 745L324.736 738.26C318.709 737.606 313.698 742.792 314.493 748.796C314.913 751.996 315.707 755.547 317.086 759.028C319.083 760.371 321.15 761.107 323.183 760.827C323.183 760.827 319.702 752.312 332.457 749.905C345.212 747.499 379.226 747.277 382.274 749.695C385.323 752.113 377.672 755.068 381.749 755.208C382.812 755.243 384.552 755.162 386.514 754.928C387.355 754.426 388.173 753.947 388.955 753.468C392.705 751.202 391.42 745.467 387.063 744.988L387.075 745Z" fill="#EDEBEC"/>
    <path d="M328.603 772.962C339.886 779.585 366.401 766.585 383.781 756.54C375.617 759.717 364.719 763.513 353.716 766.024C331.733 771.035 317.717 760.382 317.612 760.289C319.784 765.171 323.207 769.797 328.603 772.962Z" fill="#CCCACB"/>
    <path opacity="0.5" d="M217.427 738.628C210.174 739.492 202.85 742.354 197.349 744.993C196.893 745.215 196.449 745.437 196.005 745.648C191.252 748.019 188.144 750.063 188.144 750.063C187.467 750.413 186.836 750.787 186.229 751.184C186.135 751.242 186.03 751.313 185.937 751.371C185.353 751.768 184.804 752.177 184.29 752.609C184.232 752.656 184.185 752.702 184.126 752.749C183.04 753.684 182.106 754.7 181.311 755.786C175.436 763.787 177.188 775.152 178.216 781.658C178.275 782.02 178.333 782.382 178.38 782.71C178.683 784.684 179.957 786.844 181.872 789.122C182.83 790.255 183.951 791.423 185.189 792.615C185.505 792.907 185.82 793.21 186.147 793.514C186.801 794.11 187.479 794.717 188.18 795.336C188.53 795.64 188.88 795.943 189.242 796.259C189.768 796.703 190.305 797.158 190.854 797.602C195.188 801.176 200.07 804.867 204.567 808.5C205.735 809.446 206.88 810.38 207.978 811.315C208.34 811.63 208.725 811.911 209.123 812.179C209.917 812.717 210.758 813.16 211.657 813.534C212.101 813.721 212.568 813.885 213.036 814.036C213.596 814.212 214.169 814.352 214.764 814.48C223.595 816.338 235.509 812.565 244.608 807.974C245.122 807.717 245.624 807.46 246.115 807.192C250.051 805.089 253.356 802.882 255.482 801.001C255.961 800.581 256.393 800.125 256.802 799.646C256.884 799.553 256.966 799.471 257.036 799.378C257.398 798.945 257.725 798.478 258.029 798.011C258.134 797.847 258.239 797.684 258.344 797.52C258.391 797.45 258.437 797.38 258.484 797.298C258.484 797.298 258.484 797.298 258.484 797.287C260.995 793.023 261.836 787.487 261.965 782.02C261.965 781.705 261.965 781.39 261.965 781.074C261.965 780.362 261.965 779.649 261.953 778.948C261.953 778.633 261.953 778.318 261.93 778.014C261.918 777.605 261.895 777.208 261.883 776.811C261.871 776.507 261.86 776.192 261.836 775.888C261.813 775.503 261.79 775.117 261.766 774.743C261.743 774.428 261.731 774.124 261.708 773.821C261.685 773.459 261.661 773.097 261.626 772.746C261.603 772.431 261.579 772.127 261.556 771.823C261.533 771.485 261.498 771.146 261.474 770.819C261.451 770.492 261.416 770.188 261.393 769.873C261.322 769.043 261.241 768.249 261.182 767.513C261.1 766.626 260.984 765.785 260.832 764.955C260.353 762.491 259.524 760.306 258.367 758.321C257.982 757.655 257.561 757.024 257.106 756.405C253.613 751.675 248.077 748.135 241.127 744.713C239.924 744.117 238.686 743.522 237.389 742.926C235.45 742.038 233.418 741.139 231.315 740.216C228.676 739.06 225.814 738.511 222.859 738.394C221.679 738.347 220.476 738.371 219.273 738.464C218.665 738.511 218.07 738.569 217.462 738.639L217.427 738.628Z" fill="#663612"/>
    <path d="M191.532 740.882C191.532 740.882 217.801 723.642 234.668 731.035C251.534 738.417 263.308 744.199 264.546 758.321C265.352 767.49 267.373 784.275 258.858 791.809C250.343 799.343 223.081 812.074 211.354 802.122C199.626 792.182 182.982 781.448 181.755 773.529C180.529 765.609 177.165 748.206 191.532 740.87L191.532 740.882Z" fill="#E8C59B"/>
    <path d="M258.857 791.809C260.061 790.746 261.042 789.496 261.859 788.106C260.329 785.455 257.538 783.843 254.361 785.7C248.182 789.298 240.87 790.22 230.089 791.739C219.308 793.269 221.574 785.7 214.869 781.635C208.164 777.571 203.34 780.783 199.019 779.533C195.701 778.575 185.224 766.614 180.529 761.101C180.482 765.913 181.276 770.445 181.755 773.529C182.981 781.448 199.626 792.171 211.353 802.123C223.08 812.063 250.342 799.343 258.857 791.809Z" fill="#E1BA7F"/>
    <path d="M264.546 758.321C263.308 744.187 251.534 738.417 234.668 731.035C217.801 723.653 191.532 740.882 191.532 740.882C188.542 742.412 186.323 744.386 184.699 746.605C186.334 747.049 188.437 747.189 190.796 746.29C196.286 744.199 213.164 737.798 223.034 741.641C232.904 745.484 230.755 751.114 239.317 749.724C247.878 748.334 252.702 746.745 255.926 752.41C258.648 757.176 261.194 774.953 265.317 772.828C265.434 767.478 264.873 762.21 264.535 758.321L264.546 758.321Z" fill="#FBDEBE"/>
    <path d="M219.051 741.875C218.595 742.471 217.649 742.517 216.925 741.968C216.201 741.419 215.991 740.497 216.446 739.889C216.902 739.294 217.848 739.247 218.572 739.796C219.296 740.345 219.506 741.267 219.051 741.875Z" fill="#C09B64"/>
    <path d="M254.56 770.456C254.104 771.052 253.158 771.099 252.434 770.55C251.71 770.001 251.499 769.078 251.955 768.471C252.41 767.875 253.356 767.828 254.081 768.377C254.805 768.926 255.015 769.849 254.56 770.456Z" fill="#C09B64"/>
    <path d="M227.158 761.369C226.83 761.79 226.095 761.778 225.499 761.323C224.903 760.867 224.681 760.166 224.997 759.734C225.324 759.314 226.06 759.325 226.655 759.781C227.251 760.236 227.473 760.937 227.158 761.369Z" fill="#C09B64"/>
    <path d="M221.866 793.666C221.539 794.086 220.804 794.075 220.208 793.619C219.612 793.164 219.39 792.463 219.706 792.031C220.033 791.61 220.769 791.622 221.364 792.077C221.96 792.533 222.182 793.234 221.866 793.666Z" fill="#C09B64"/>
    <path d="M234.177 771.181C233.769 771.718 232.823 771.695 232.063 771.123C231.304 770.55 231.024 769.651 231.433 769.102C231.841 768.565 232.787 768.588 233.547 769.16C234.306 769.733 234.586 770.632 234.177 771.181Z" fill="#C09B64"/>
    <path d="M201.565 773.599C201.156 774.136 200.21 774.113 199.451 773.541C198.692 772.968 198.411 772.069 198.82 771.52C199.229 770.982 200.175 771.006 200.934 771.578C201.694 772.151 201.974 773.05 201.565 773.599Z" fill="#C09B64"/>
    <path d="M239.41 791.68C239.001 792.217 238.055 792.194 237.296 791.622C236.536 791.049 236.256 790.15 236.665 789.601C237.074 789.052 238.02 789.087 238.779 789.659C239.538 790.232 239.819 791.131 239.41 791.68Z" fill="#C09B64"/>
    <path d="M243.743 768.728C243.475 769.079 242.832 769.044 242.307 768.646C241.781 768.249 241.571 767.63 241.84 767.28C242.108 766.929 242.751 766.964 243.276 767.362C243.802 767.759 244.012 768.378 243.743 768.728Z" fill="#C09B64"/>
    <path d="M260.002 784.999C259.734 785.35 259.091 785.314 258.566 784.917C258.04 784.52 257.83 783.901 258.098 783.551C258.367 783.2 259.009 783.235 259.535 783.632C260.061 784.03 260.271 784.649 260.002 784.999Z" fill="#C09B64"/>
    <path d="M241.641 754.466C241.372 754.817 240.73 754.782 240.204 754.385C239.679 753.987 239.468 753.368 239.737 753.018C240.006 752.668 240.648 752.703 241.174 753.1C241.699 753.497 241.91 754.116 241.641 754.466Z" fill="#C09B64"/>
    <path d="M243.591 777.535C243.381 777.804 242.867 777.757 242.423 777.418C241.98 777.08 241.793 776.601 242.003 776.32C242.213 776.052 242.727 776.099 243.171 776.437C243.615 776.764 243.802 777.255 243.591 777.535Z" fill="#C09B64"/>
    <path d="M252.235 747.762C252.025 748.03 251.511 747.984 251.067 747.645C250.623 747.306 250.436 746.827 250.646 746.547C250.857 746.278 251.371 746.325 251.815 746.664C252.258 747.003 252.445 747.481 252.235 747.762Z" fill="#C09B64"/>
    <path d="M203.189 747.738C202.979 748.007 202.465 747.96 202.021 747.622C201.577 747.283 201.39 746.804 201.601 746.524C201.811 746.255 202.325 746.302 202.769 746.64C203.212 746.979 203.399 747.458 203.189 747.738Z" fill="#C09B64"/>
    <path d="M232.518 741.758C232.308 742.027 231.794 741.98 231.35 741.641C230.906 741.314 230.719 740.823 230.93 740.543C231.14 740.274 231.654 740.321 232.098 740.66C232.542 740.999 232.728 741.478 232.518 741.758Z" fill="#C09B64"/>
    <path d="M206.519 761.357C206.051 761.976 205.14 762.081 204.498 761.579C203.844 761.089 203.692 760.189 204.171 759.57C204.638 758.951 205.549 758.846 206.192 759.348C206.846 759.839 206.998 760.738 206.519 761.357Z" fill="#C09B64"/>
<!--    <path d="M268.004 690.119C269.686 690.75 270.527 692.619 269.908 694.289C269.277 695.971 267.409 696.812 265.738 696.193C264.056 695.562 263.215 693.693 263.834 692.023C264.465 690.341 266.334 689.5 268.004 690.119Z" fill="#B28850"/>-->
<!--    <path d="M265.188 691.626C264.558 693.308 265.41 695.165 267.092 695.796C267.536 695.959 267.98 696.018 268.424 695.994C269.09 695.632 269.639 695.06 269.919 694.301C270.55 692.619 269.697 690.761 268.015 690.131C267.571 689.967 267.127 689.909 266.684 689.932C266.018 690.294 265.48 690.867 265.188 691.626Z" fill="#C09B64"/>-->
<!--    <path d="M269.335 691.743C269.873 692.49 269.884 693.401 269.347 693.798C268.81 694.196 267.945 693.904 267.396 693.156C266.859 692.408 266.847 691.497 267.385 691.1C267.922 690.715 268.786 690.995 269.335 691.743Z" fill="#E0B885"/>-->
    <path d="M301.514 503.743C302.724 504.05 304.022 504.145 305.226 503.669C305.458 503.574 305.417 502.95 305.164 503.003C303.954 503.257 302.826 503.447 301.609 503.194C301.384 503.141 301.274 503.68 301.514 503.743Z" fill="#001527"/>
    <path d="M304.071 501.01C302.589 501.594 301.116 501.847 299.493 501.685C299.368 501.678 299.329 501.875 299.462 501.896C301.092 502.136 302.778 501.967 304.275 501.327C304.51 501.228 304.306 500.926 304.071 501.017V501.01Z" fill="#001527"/>
    <path d="M306.161 542.537C305.216 542.812 304.334 542.577 303.512 542.012C303.43 541.959 303.33 542.093 303.406 542.167C304.193 542.927 305.257 543.142 306.255 542.913C306.473 542.866 306.379 542.47 306.161 542.537Z" fill="#001527"/>
    <path d="M301.529 542.024C301.412 541.918 301.318 542.19 301.427 542.308C302.822 543.717 304.567 544.38 306.218 543.777C306.499 543.67 306.382 543.054 306.101 543.125C304.481 543.528 302.977 543.291 301.536 542.024H301.529Z" fill="#001527"/>
<!--    <path d="M306.457 498.737C306.435 498.567 306.295 498.411 306.111 498.396C306.096 498.359 306.074 498.329 306.037 498.292C304.986 497.262 303.625 496.564 302.227 496.127C302.213 496.119 302.198 496.112 302.183 496.112C302.588 493.991 302.764 491.736 302.029 489.712C301.536 488.347 300.3 486.404 298.594 487.175C297.057 487.865 296.895 490.498 296.91 491.929C296.925 493.501 297.27 495.259 298.057 496.698C297.079 497.165 296.241 497.988 295.637 498.856C295.542 498.99 295.726 499.116 295.843 499.034L295.711 499.82C295.711 499.82 295.704 499.82 295.696 499.82C295.476 499.776 295.343 499.983 295.387 500.146C295.409 500.221 295.468 500.287 295.564 500.317C299.043 501.37 302.882 500.94 306.067 499.182C306.611 506.487 307.825 513.778 308.773 521.038C309.693 528.047 310.502 535.085 311.554 542.078C311.531 542.108 311.509 542.138 311.495 542.175C310.141 545.905 303.963 545.082 301.176 544.17C301.087 544.14 300.999 544.17 300.933 544.222C300.793 544.348 300.756 544.6 300.962 544.689C301.816 545.06 302.919 545.356 304.088 545.534C303.426 547.856 303.294 551.66 306.464 551.987C307.648 552.113 308.612 551.334 309.053 550.273C309.663 548.798 309.141 547.21 308.619 545.801C308.531 545.579 308.317 545.512 308.134 545.564V545.512C309.943 545.164 311.502 544.266 312.179 542.546C312.304 542.486 312.392 542.368 312.377 542.204C311.554 534.825 310.465 527.476 309.494 520.111C308.567 513.051 307.876 505.894 306.545 498.893C306.53 498.826 306.493 498.789 306.457 498.752V498.737Z" fill="#001527"/>-->
<!--    <path d="M297.03 521.014C296.179 513.916 295.833 506.744 294.884 499.66C294.862 499.505 294.847 499.357 294.824 499.208C294.786 498.942 294.387 498.92 294.38 499.208C294.342 506.766 295.396 514.45 296.307 521.94C297.196 529.216 298.197 536.507 299.583 543.709C299.665 544.124 300.185 544.057 300.335 543.746C300.373 543.672 300.388 543.591 300.373 543.494C299.153 536.011 297.934 528.55 297.023 521.014H297.03Z" fill="#001527"/>-->
<!--    <path d="M255.033 485.49C255.125 484.719 255.244 483.965 255.376 483.203C255.409 483.009 255.151 482.911 255.099 483.106C254.901 483.86 254.742 484.622 254.617 485.409C254.491 486.171 254.346 486.998 254.386 487.776C254.405 488.076 254.742 488.068 254.795 487.792C254.94 487.046 254.94 486.252 255.033 485.49Z" fill="#001527"/>-->
<!--    <path d="M317.144 467.173C314.86 464.62 311.011 464.605 308.015 465.655C303.667 467.18 300.024 470.759 296.549 473.721C296.403 473.483 296.043 473.602 296.05 473.892C296.057 474.599 296.204 475.328 296.461 476.042C296.417 476.057 296.381 476.065 296.336 476.087C288.588 481.288 280.978 486.698 273.494 492.286C275.705 485.998 270.182 475.477 264.115 477.173C264.203 477.025 264.078 476.801 263.872 476.868C259.928 478.103 255.646 479.8 253.48 483.64C251.761 486.698 252.187 490.359 253.847 493.343C257.806 500.456 265.143 500.099 271.32 496.453C273.369 496.23 275.352 495.322 277.122 494.34C280.751 492.323 284.093 489.704 287.493 487.323C291.151 484.763 294.823 482.218 298.386 479.525C298.437 479.488 298.459 479.45 298.481 479.406C299.054 480.031 299.693 480.559 300.361 480.946C300.435 480.991 300.494 480.991 300.552 480.983C300.714 481.117 300.964 481.147 301.155 480.953C303.138 478.833 305.415 477.144 308.096 476.05C310.38 475.12 312.826 475.097 315.132 474.323C318.305 473.259 319.495 469.807 317.144 467.18V467.173ZM254.86 493.462C252.943 490.411 252.459 486.512 254.559 483.402C256.432 480.641 259.51 479.197 262.499 477.91C262.014 478.23 261.529 478.624 261.045 479.115C257.328 482.955 259.267 488.893 262.536 492.279C264.357 494.169 266.862 496.141 269.557 496.453C264.32 499.08 258.467 499.191 254.86 493.454V493.462ZM298.055 479.063C292.635 482.583 287.376 486.37 282.073 490.076C279.517 491.862 276.954 493.774 274.016 494.89C273.692 495.017 273.377 495.114 273.061 495.203C272.539 495.344 272.033 495.441 271.533 495.493C271.452 495.471 271.371 495.478 271.291 495.516C268.771 495.694 266.561 494.682 264.35 492.822C261.72 490.597 259.649 487.472 259.906 483.878C260.171 480.113 263.872 476.593 267.67 478.438C272.356 480.708 275.044 489.079 271.981 493.425C271.768 493.722 272.003 494.124 272.304 494.131C272.385 494.131 272.466 494.109 272.554 494.05C280.472 488.082 288.544 482.345 296.762 476.824C297.122 477.605 297.592 478.364 298.143 479.019C298.114 479.026 298.085 479.034 298.055 479.056V479.063Z" fill="#001527"/>-->
<!--    <path d="M257.123 517.999C260.012 523.351 263.849 528.31 268.059 532.714C268.209 532.873 268.502 532.626 268.356 532.457C264.334 527.779 260.942 522.832 257.739 517.595C257.496 517.187 256.892 517.603 257.116 518.001L257.123 517.999Z" fill="#001527"/>-->
<!--    <path d="M265.212 535.604C262.251 530.359 258.66 525.119 254.488 520.706C254.231 520.436 253.743 520.859 253.972 521.146C257.768 525.974 261.465 530.728 264.823 535.861C264.979 536.103 265.346 535.854 265.214 535.611L265.212 535.604Z" fill="#001527"/>-->
<!--    <path d="M251.134 522.145C254.217 527.668 257.735 533.012 261.503 538.098C261.621 538.262 261.886 538.093 261.772 537.92C258.295 532.601 254.996 527.206 251.738 521.75C251.498 521.344 250.905 521.751 251.136 522.152L251.134 522.145Z" fill="#001527"/>-->
<!--    <path d="M235.579 503.805C235.659 503.763 235.744 503.711 235.823 503.668C235.826 503.675 235.83 503.689 235.842 503.7C236.038 503.999 236.463 503.699 236.307 503.402C236.875 503.084 237.45 502.764 238.027 502.451C238.682 502.088 239.328 501.72 239.98 501.35C244.159 506.856 248.332 512.348 252.429 517.913C252.563 518.1 252.836 517.953 252.805 517.769C252.797 517.748 252.788 517.72 252.776 517.686C249.119 511.886 245.071 506.234 240.684 500.947C241.111 500.701 241.532 500.457 241.949 500.206C241.978 500.196 241.987 500.177 241.996 500.159C242.053 500.186 242.112 500.197 242.166 500.194L242.417 500.171C242.591 500.15 242.788 500.013 242.811 499.827C242.944 498.693 241.826 497.534 241.264 496.644C239.971 494.604 238.564 492.641 237.039 490.773C235.55 488.94 233.313 486.296 230.603 487.483C228.486 488.421 228.733 490.81 229.458 492.593C230.974 496.307 233.338 499.926 235.578 503.269C235.5 503.319 235.423 503.369 235.338 503.421C235.092 503.575 235.33 503.929 235.589 503.787L235.579 503.805Z" fill="#001527"/>-->
<!--    <path d="M249.527 526.75C252.059 531.745 255.036 536.671 258.272 541.29C258.407 541.486 258.742 541.274 258.622 541.073C255.817 536.193 253.002 531.31 250.14 526.465C249.972 526.175 249.374 526.454 249.529 526.757L249.527 526.75Z" fill="#001527"/>-->
<!--    <path d="M272.169 530.102C270.777 528.041 269.346 526.001 267.865 524.001C266.569 522.245 265.245 520.521 263.886 518.81C262.679 517.29 261.442 515.246 259.91 514.041C259.136 513.426 258.607 513.347 257.685 513.7C255.931 514.376 254.2 515.946 252.622 516.978C252.456 517.089 252.417 517.252 252.444 517.4C252.502 517.662 252.804 517.881 253.101 517.694C254.312 516.897 255.556 515.853 256.857 515.23C258.333 514.523 259.05 514.326 260.21 515.682C260.612 516.149 261.012 516.633 261.412 517.117C263.493 519.634 265.501 522.216 267.432 524.847C268.353 526.103 269.254 527.366 270.145 528.648C271.07 529.982 272.669 531.478 272.238 533.092C271.799 534.749 269.542 535.721 268.14 536.67C266.855 537.547 265.565 538.41 264.275 539.273C262.985 540.136 261.695 540.999 260.402 541.855C259.334 542.564 257.324 544.536 255.967 543.75C255.078 543.236 254.127 540.743 253.579 539.846C252.774 538.542 251.986 537.241 251.188 535.935C249.513 533.201 247.837 530.467 246.159 527.726C245.048 525.915 243.361 524.276 245.646 522.281C246.364 521.652 247.254 521.317 247.954 520.632C247.982 520.599 247.996 520.57 248.017 520.54C248.412 520.295 248.804 520.044 249.197 519.792C249.319 519.712 249.348 519.592 249.319 519.484C249.527 519.609 249.814 519.37 249.667 519.122C246.167 513.242 242.195 507.609 238.122 502.12C237.98 501.933 237.769 501.91 237.607 501.989C237.399 502.091 237.255 502.336 237.433 502.582C241.451 508.074 245.257 513.701 249.154 519.273C249.067 519.225 248.97 519.218 248.87 519.292C248.498 519.559 248.129 519.811 247.765 520.076C247.689 520.062 247.598 520.07 247.526 520.134C245.814 521.556 242.732 522.268 243.678 525.094C244.277 526.875 245.7 528.565 246.67 530.15C247.786 531.976 248.899 533.794 250.017 535.627L253.841 541.884C254.378 542.769 255.015 544.639 256.111 545.027C257.013 545.348 257.888 544.556 258.568 544.113C260.66 542.772 262.716 541.374 264.777 539.989C266.839 538.604 268.897 537.213 270.947 535.816C271.816 535.214 273.506 534.466 273.704 533.229C273.88 532.086 272.776 530.963 272.197 530.092L272.169 530.102Z" fill="#001527"/>-->
<!--    <path d="M237.343 570.1C237.343 567.727 237.356 566.42 237.383 566.18C237.383 566.153 237.403 566.12 237.443 566.08C237.496 566.04 237.549 566.013 237.603 566C237.816 565.987 238.143 565.98 238.583 565.98L240.523 566C240.936 566 241.296 566.053 241.603 566.16C241.923 566.267 242.203 566.453 242.443 566.72C242.976 567.227 243.243 567.98 243.243 568.98C243.243 569.327 243.223 569.593 243.183 569.78C243.156 569.913 243.069 570.133 242.923 570.44C242.909 570.48 242.876 570.527 242.823 570.58C242.769 570.62 242.743 570.653 242.743 570.68C242.743 570.733 242.836 570.827 243.023 570.96C243.249 571.133 243.469 571.44 243.683 571.88C243.909 572.307 244.029 572.72 244.043 573.12C244.123 574.187 244.156 575.193 244.143 576.14C244.143 576.593 244.049 577.027 243.863 577.44C243.676 577.853 243.409 578.22 243.063 578.54C242.703 578.873 242.209 579.073 241.583 579.14C241.236 579.167 240.723 579.193 240.043 579.22C239.363 579.26 238.789 579.28 238.323 579.28C237.989 579.28 237.769 579.267 237.663 579.24C237.596 579.213 237.536 579.14 237.483 579.02C237.429 578.913 237.403 578.853 237.403 578.84C237.389 578.253 237.376 577.133 237.363 575.48C237.349 573.827 237.343 572.033 237.343 570.1ZM240.263 567.94C240.129 567.94 240.023 567.933 239.943 567.92C239.596 567.947 239.403 567.967 239.363 567.98C239.323 567.993 239.283 568.027 239.243 568.08C239.203 568.12 239.183 568.16 239.183 568.2C239.183 568.493 239.189 568.713 239.203 568.86C239.203 569.3 239.209 569.633 239.223 569.86C239.223 570.02 239.296 570.1 239.443 570.1H239.503C239.596 570.1 239.723 570.1 239.883 570.1C240.043 570.1 240.169 570.087 240.263 570.06C240.863 569.913 241.163 569.587 241.163 569.08C241.163 568.773 241.063 568.48 240.863 568.2C240.796 568.093 240.709 568.027 240.603 568C240.509 567.96 240.396 567.94 240.263 567.94ZM242.103 574.64C242.103 573.867 241.949 573.26 241.643 572.82C241.389 572.38 241.049 572.14 240.623 572.1C240.449 572.087 240.249 572.093 240.023 572.12C239.796 572.133 239.636 572.14 239.543 572.14C239.369 572.14 239.283 572.233 239.283 572.42L239.343 573.78C239.343 575.207 239.336 576.273 239.323 576.98C239.323 577.087 239.336 577.16 239.363 577.2C239.403 577.24 239.469 577.26 239.563 577.26H239.623C239.756 577.247 239.869 577.247 239.963 577.26C240.069 577.26 240.156 577.26 240.223 577.26H240.823C241.076 577.233 241.303 577.127 241.503 576.94C241.703 576.753 241.836 576.533 241.903 576.28C242.036 575.747 242.103 575.2 242.103 574.64ZM245.965 574.6L248.045 566.56C248.085 566.56 248.418 566.56 249.045 566.56C249.685 566.547 250.018 566.593 250.045 566.7C250.138 567.007 250.425 568.233 250.905 570.38C251.385 572.527 251.692 573.887 251.825 574.46L252.625 578.02C252.665 578.18 252.685 578.307 252.685 578.4C252.685 578.533 252.645 578.64 252.565 578.72C252.485 578.787 252.352 578.853 252.165 578.92C251.898 579.013 251.625 579.093 251.345 579.16C251.238 579.187 251.165 579.2 251.125 579.2C251.032 579.2 250.958 579.167 250.905 579.1C250.852 579.047 250.812 578.953 250.785 578.82L250.345 576.78C250.305 576.633 250.205 576.56 250.045 576.56L247.825 576.58C247.772 576.58 247.718 576.607 247.665 576.66C247.612 576.7 247.572 576.747 247.545 576.8C247.492 576.933 247.412 577.22 247.305 577.66C247.198 578.087 247.132 578.34 247.105 578.42C247.025 578.62 246.932 578.767 246.825 578.86C246.732 578.94 246.605 578.98 246.445 578.98C246.392 578.98 246.285 578.967 246.125 578.94C245.952 578.9 245.798 578.873 245.665 578.86C245.532 578.847 245.425 578.833 245.345 578.82C245.105 578.78 244.985 578.667 244.985 578.48C244.985 578.413 244.992 578.367 245.005 578.34L245.965 574.6ZM249.045 570.52C249.018 570.52 248.978 570.6 248.925 570.76C248.872 570.96 248.738 571.58 248.525 572.62C248.352 573.447 248.218 574.053 248.125 574.44C248.085 574.6 248.138 574.68 248.285 574.68C248.605 574.68 249.018 574.667 249.525 574.64C249.658 574.64 249.745 574.627 249.785 574.6C249.838 574.573 249.865 574.52 249.865 574.44C249.865 574.347 249.858 574.273 249.845 574.22C249.818 574.113 249.725 573.567 249.565 572.58L249.385 571.52C249.252 570.853 249.138 570.52 249.045 570.52ZM263.275 566.26C263.702 566.26 263.942 566.293 263.995 566.36C264.049 566.413 264.075 568.913 264.075 573.86C264.075 575.527 264.069 576.68 264.055 577.32C264.055 577.96 264.055 578.32 264.055 578.4C264.029 578.653 263.995 578.82 263.955 578.9C263.915 578.967 263.829 579 263.695 579L254.535 578.94C254.442 578.94 254.375 578.9 254.335 578.82C254.309 578.727 254.295 578.587 254.295 578.4C254.295 576.893 254.295 574.887 254.295 572.38C254.309 569.86 254.322 567.967 254.335 566.7C254.362 566.46 254.569 566.34 254.955 566.34C255.009 566.34 255.162 566.347 255.415 566.36C255.682 566.36 255.882 566.347 256.015 566.32C256.202 566.307 256.315 566.393 256.355 566.58C256.382 567.14 256.402 568.667 256.415 571.16C256.429 573.653 256.435 575.393 256.435 576.38C256.435 576.527 256.502 576.6 256.635 576.6L258.115 576.58C258.209 576.58 258.269 576.567 258.295 576.54C258.335 576.5 258.355 576.44 258.355 576.36V576.3C258.315 575.473 258.295 573.54 258.295 570.5V568.62C258.295 568.527 258.315 568.46 258.355 568.42C258.395 568.38 258.469 568.36 258.575 568.36H259.935C260.069 568.36 260.155 568.387 260.195 568.44C260.249 568.493 260.282 568.607 260.295 568.78C260.295 569.527 260.302 570.173 260.315 570.72C260.315 573.8 260.342 575.68 260.395 576.36C260.395 576.4 260.415 576.447 260.455 576.5C260.509 576.54 260.555 576.567 260.595 576.58C260.675 576.593 260.795 576.6 260.955 576.6C261.049 576.6 261.162 576.6 261.295 576.6C261.442 576.587 261.615 576.587 261.815 576.6C261.962 576.613 262.035 576.533 262.035 576.36C262.022 575.987 262.015 573.933 262.015 570.2C262.015 567.88 262.022 566.667 262.035 566.56C262.035 566.507 262.055 566.453 262.095 566.4C262.149 566.333 262.195 566.3 262.235 566.3C262.635 566.273 262.982 566.26 263.275 566.26ZM266.57 574.6L268.65 566.56C268.69 566.56 269.024 566.56 269.65 566.56C270.29 566.547 270.624 566.593 270.65 566.7C270.744 567.007 271.03 568.233 271.51 570.38C271.99 572.527 272.297 573.887 272.43 574.46L273.23 578.02C273.27 578.18 273.29 578.307 273.29 578.4C273.29 578.533 273.25 578.64 273.17 578.72C273.09 578.787 272.957 578.853 272.77 578.92C272.504 579.013 272.23 579.093 271.95 579.16C271.844 579.187 271.77 579.2 271.73 579.2C271.637 579.2 271.564 579.167 271.51 579.1C271.457 579.047 271.417 578.953 271.39 578.82L270.95 576.78C270.91 576.633 270.81 576.56 270.65 576.56L268.43 576.58C268.377 576.58 268.324 576.607 268.27 576.66C268.217 576.7 268.177 576.747 268.15 576.8C268.097 576.933 268.017 577.22 267.91 577.66C267.804 578.087 267.737 578.34 267.71 578.42C267.63 578.62 267.537 578.767 267.43 578.86C267.337 578.94 267.21 578.98 267.05 578.98C266.997 578.98 266.89 578.967 266.73 578.94C266.557 578.9 266.404 578.873 266.27 578.86C266.137 578.847 266.03 578.833 265.95 578.82C265.71 578.78 265.59 578.667 265.59 578.48C265.59 578.413 265.597 578.367 265.61 578.34L266.57 574.6ZM269.65 570.52C269.624 570.52 269.584 570.6 269.53 570.76C269.477 570.96 269.344 571.58 269.13 572.62C268.957 573.447 268.824 574.053 268.73 574.44C268.69 574.6 268.744 574.68 268.89 574.68C269.21 574.68 269.624 574.667 270.13 574.64C270.264 574.64 270.35 574.627 270.39 574.6C270.444 574.573 270.47 574.52 270.47 574.44C270.47 574.347 270.464 574.273 270.45 574.22C270.424 574.113 270.33 573.567 270.17 572.58L269.99 571.52C269.857 570.853 269.744 570.52 269.65 570.52ZM281.376 566.56C281.376 568.573 281.389 569.833 281.416 570.34C281.416 570.407 281.502 570.44 281.676 570.44C281.889 570.44 282.122 570.38 282.376 570.26C282.642 570.14 282.869 569.947 283.056 569.68C283.242 569.4 283.336 569.053 283.336 568.64C283.336 568.307 283.329 568.013 283.316 567.76C283.316 567.52 283.309 567.233 283.296 566.9C283.296 566.567 283.302 566.393 283.316 566.38C283.329 566.367 283.516 566.36 283.876 566.36H284.756C285.009 566.36 285.156 566.387 285.196 566.44C285.249 566.48 285.282 566.627 285.296 566.88V567.58C285.296 568.553 285.289 569.133 285.276 569.32C285.249 569.627 285.149 569.973 284.976 570.36C284.802 570.733 284.549 571.013 284.216 571.2C284.136 571.24 284.096 571.287 284.096 571.34C284.096 571.38 284.136 571.427 284.216 571.48C284.589 571.707 284.909 572.053 285.176 572.52C285.402 572.947 285.496 573.467 285.456 574.08V576.58C285.456 577.94 285.449 578.673 285.436 578.78C285.436 578.82 285.422 578.867 285.396 578.92C285.369 578.96 285.342 578.98 285.316 578.98C285.222 578.993 284.969 579 284.556 579C283.982 579 283.669 579 283.616 579C283.576 578.987 283.542 578.94 283.516 578.86C283.502 578.78 283.489 578.56 283.476 578.2C283.476 577.653 283.469 577.173 283.456 576.76C283.456 575.04 283.442 573.993 283.416 573.62C283.376 573.3 283.249 573.033 283.036 572.82C282.822 572.593 282.576 572.447 282.296 572.38C282.109 572.327 281.956 572.3 281.836 572.3C281.556 572.3 281.416 572.48 281.416 572.84L281.356 578.7C281.356 578.873 281.256 578.973 281.056 579C280.816 579.027 280.462 579.04 279.996 579.04C279.649 579.04 279.436 579.02 279.356 578.98C279.316 578.953 279.296 578.887 279.296 578.78V566.66C279.296 566.527 279.309 566.433 279.336 566.38C279.376 566.327 279.456 566.3 279.576 566.3C279.976 566.3 280.482 566.287 281.096 566.26C281.202 566.26 281.276 566.28 281.316 566.32C281.356 566.347 281.376 566.407 281.376 566.5V566.56ZM288.925 567.24C290.138 569.333 290.771 570.38 290.825 570.38C290.865 570.38 291.011 570.047 291.265 569.38C291.531 568.7 291.705 568.26 291.785 568.06C292.011 567.447 292.198 566.967 292.345 566.62C292.451 566.407 292.598 566.3 292.785 566.3C292.851 566.3 292.905 566.307 292.945 566.32L294.405 566.64C294.525 566.653 294.585 566.7 294.585 566.78C294.585 566.807 294.571 566.847 294.545 566.9C294.438 567.14 293.731 568.953 292.425 572.34C291.118 575.713 290.351 577.72 290.125 578.36C290.071 578.56 289.978 578.753 289.845 578.94C289.805 579.007 289.725 579.04 289.605 579.04L289.085 578.94C288.618 578.847 288.305 578.78 288.145 578.74C287.985 578.7 287.905 578.553 287.905 578.3C287.905 578.22 287.911 578.16 287.925 578.12L289.805 572.72C289.538 572.293 288.751 570.973 287.445 568.76L286.785 567.66C286.665 567.46 286.605 567.32 286.605 567.24C286.605 567.187 286.638 567.133 286.705 567.08C286.771 567.013 286.865 566.94 286.985 566.86L287.905 566.26C288.011 566.207 288.085 566.18 288.125 566.18C288.245 566.18 288.365 566.273 288.485 566.46L288.925 567.24ZM296.305 566.62C296.612 566.38 296.825 566.253 296.945 566.24C297.012 566.227 297.185 566.453 297.465 566.92C297.745 567.373 298.039 567.873 298.345 568.42L299.305 570.06L300.005 568.6C300.672 567.133 301.065 566.4 301.185 566.4C301.292 566.387 301.419 566.42 301.565 566.5C301.712 566.58 301.819 566.633 301.885 566.66C302.005 566.713 302.119 566.773 302.225 566.84C302.345 566.893 302.465 566.947 302.585 567C302.785 567.093 302.885 567.2 302.885 567.32C302.885 567.36 302.859 567.447 302.805 567.58C302.539 568.127 302.152 568.873 301.645 569.82C301.139 570.753 300.779 571.407 300.565 571.78C300.499 571.887 300.465 571.987 300.465 572.08C300.465 572.16 300.499 572.253 300.565 572.36C300.739 572.627 301.185 573.393 301.905 574.66C302.625 575.927 303.119 576.793 303.385 577.26C303.572 577.567 303.665 577.787 303.665 577.92C303.665 578.027 303.619 578.127 303.525 578.22C303.445 578.3 303.305 578.407 303.105 578.54L302.465 578.96C302.385 579 302.312 579.02 302.245 579.02C302.085 579.02 301.952 578.94 301.845 578.78C301.512 578.207 301.085 577.473 300.565 576.58C300.059 575.687 299.639 574.927 299.305 574.3L299.165 574.14L298.165 576.08C297.445 577.493 296.992 578.373 296.805 578.72C296.712 578.92 296.565 579.02 296.365 579.02C296.272 579.02 296.145 579 295.985 578.96C295.679 578.853 295.392 578.72 295.125 578.56C295.005 578.493 294.945 578.38 294.945 578.22C294.945 578.14 294.979 578.02 295.045 577.86C295.365 577.233 295.825 576.347 296.425 575.2C297.025 574.053 297.512 573.133 297.885 572.44C297.965 572.28 298.005 572.173 298.005 572.12C298.005 572.053 297.979 571.973 297.925 571.88L296.865 570.02C296.145 568.7 295.705 567.927 295.545 567.7C295.492 567.607 295.465 567.52 295.465 567.44C295.465 567.32 295.545 567.2 295.705 567.08C295.799 567 295.999 566.847 296.305 566.62ZM307.565 578.56C307.552 578.747 307.499 578.84 307.405 578.84L306.445 578.86C306.179 578.86 305.992 578.853 305.885 578.84C305.752 578.827 305.659 578.8 305.605 578.76C305.565 578.707 305.539 578.62 305.525 578.5C305.525 578.367 305.525 578.273 305.525 578.22V576.06V568.22V566.66C305.525 566.647 305.525 566.607 305.525 566.54C305.525 566.473 305.545 566.42 305.585 566.38C305.612 566.353 305.819 566.34 306.205 566.34L307.465 566.36C307.505 566.373 307.545 566.4 307.585 566.44C307.625 566.467 307.645 566.487 307.645 566.5C307.672 567.087 307.685 567.947 307.685 569.08L307.665 570.72C307.652 570.787 307.659 570.847 307.685 570.9C307.712 570.94 307.759 570.96 307.825 570.96H307.865C308.119 570.947 308.332 570.947 308.505 570.96C308.679 570.96 308.819 570.96 308.925 570.96H309.445C309.712 570.96 309.919 570.953 310.065 570.94C310.079 570.94 310.125 570.927 310.205 570.9C310.219 570.647 310.225 570.307 310.225 569.88C310.225 569.453 310.232 569.033 310.245 568.62L310.265 566.66C310.265 566.553 310.285 566.48 310.325 566.44C310.379 566.4 310.459 566.38 310.565 566.38C310.872 566.38 311.105 566.373 311.265 566.36C311.759 566.36 312.112 566.353 312.325 566.34C312.525 566.313 312.625 566.393 312.625 566.58V566.64C312.599 567.107 312.572 569.927 312.545 575.1L312.505 578.58C312.479 578.78 312.439 578.913 312.385 578.98C312.332 579.047 312.212 579.087 312.025 579.1C311.612 579.14 311.139 579.16 310.605 579.16C310.472 579.16 310.365 579.107 310.285 579C310.219 578.893 310.185 578.76 310.185 578.6L310.205 576.1C310.205 574.58 310.212 573.633 310.225 573.26C310.225 573.18 310.205 573.12 310.165 573.08C310.139 573.04 310.079 573.013 309.985 573C309.052 573 308.352 572.993 307.885 572.98C307.725 572.98 307.645 573.067 307.645 573.24L307.585 577.54C307.585 577.62 307.585 577.76 307.585 577.96C307.599 578.16 307.592 578.36 307.565 578.56ZM319.488 573.74C319.488 573.58 319.475 573.5 319.448 573.5C319.355 573.5 319.281 573.553 319.228 573.66C319.188 573.767 319.161 573.827 319.148 573.84L316.368 578.72C316.235 578.973 316.068 579.1 315.868 579.1C315.761 579.1 315.635 579.06 315.488 578.98C315.435 578.953 315.315 578.887 315.128 578.78C314.941 578.673 314.788 578.6 314.668 578.56C314.481 578.507 314.388 578.413 314.388 578.28C314.388 578.2 314.408 578.133 314.448 578.08C314.555 577.84 315.121 576.833 316.148 575.06C316.281 574.82 316.415 574.587 316.548 574.36C316.681 574.12 316.808 573.893 316.928 573.68C316.968 573.613 316.988 573.553 316.988 573.5C316.988 573.407 316.935 573.34 316.828 573.3C316.348 573.113 315.961 572.927 315.668 572.74C315.388 572.553 315.135 572.233 314.908 571.78C314.681 571.327 314.568 570.707 314.568 569.92C314.568 569.04 314.828 568.3 315.348 567.7C315.881 567.087 316.428 566.7 316.988 566.54C317.561 566.38 317.868 566.293 317.908 566.28C318.081 566.227 318.515 566.2 319.208 566.2C319.821 566.2 320.295 566.207 320.628 566.22C320.961 566.233 321.168 566.24 321.248 566.24C321.368 566.227 321.448 566.247 321.488 566.3C321.528 566.34 321.548 566.42 321.548 566.54C321.561 566.913 321.568 569.473 321.568 574.22L321.588 578.44C321.601 578.587 321.568 578.707 321.488 578.8C321.421 578.893 321.315 578.953 321.168 578.98C321.088 578.993 320.908 579 320.628 579C320.135 579 319.835 578.98 319.728 578.94C319.515 578.86 319.408 578.647 319.408 578.3C319.408 578.087 319.421 577.113 319.448 575.38C319.475 574.847 319.488 574.3 319.488 573.74ZM319.508 569.78C319.508 568.967 319.501 568.48 319.488 568.32C319.488 568.267 319.448 568.233 319.368 568.22C319.301 568.193 319.188 568.18 319.028 568.18H318.808C318.381 568.18 317.935 568.293 317.468 568.52C317.001 568.747 316.768 569.2 316.768 569.88C316.768 570.307 316.861 570.653 317.048 570.92C317.248 571.173 317.468 571.353 317.708 571.46C317.961 571.553 318.181 571.6 318.368 571.6H319.148C319.375 571.6 319.488 571.487 319.488 571.26C319.501 571.073 319.508 570.58 319.508 569.78Z" fill="black"/>-->
<!--    <path d="M242.076 588.295H243.01L240.586 595.023C240.423 595.468 240.208 595.787 239.941 595.979C239.681 596.18 239.333 596.28 238.895 596.28H238.073L237.995 595.468H238.94C239.162 595.468 239.333 595.42 239.452 595.323C239.578 595.234 239.681 595.075 239.763 594.845L239.941 594.334L237.405 588.295H238.362L240.297 592.999H240.441L242.076 588.295ZM244.477 588.295H248.313V594H247.424V589.107H245.3L245.111 592.11C245.074 592.747 244.91 593.233 244.621 593.566C244.34 593.893 243.954 594.056 243.465 594.056C243.331 594.056 243.187 594.044 243.031 594.022L242.953 593.166C243.05 593.173 243.172 593.177 243.32 593.177C243.646 593.177 243.873 593.103 243.999 592.955C244.125 592.806 244.202 592.532 244.232 592.132L244.477 588.295ZM253.924 588.295H254.858L252.434 595.023C252.27 595.468 252.055 595.787 251.789 595.979C251.529 596.18 251.181 596.28 250.743 596.28H249.92L249.843 595.468H250.788C251.01 595.468 251.181 595.42 251.299 595.323C251.425 595.234 251.529 595.075 251.611 594.845L251.789 594.334L249.253 588.295H250.21L252.144 592.999H252.289L253.924 588.295ZM259.189 591.832C258.989 591.913 258.759 591.976 258.499 592.021C258.247 592.065 258.003 592.087 257.765 592.087C257.106 592.087 256.594 591.906 256.231 591.542C255.868 591.172 255.686 590.649 255.686 589.974V588.295H256.576V589.974C256.576 590.842 257.002 591.276 257.854 591.276C258.077 591.276 258.307 591.253 258.544 591.209C258.781 591.164 258.996 591.098 259.189 591.009V588.295H260.078V594H259.189V591.832ZM269.043 594H261.637V588.295H262.526V593.177H264.895V588.295H265.784V593.177H268.153V588.295H269.043V594ZM272.753 588.184C273.435 588.184 273.973 588.414 274.365 588.874C274.766 589.326 274.966 589.971 274.966 590.809V594H274.365L274.121 593.099C273.669 593.774 273.038 594.111 272.23 594.111C271.652 594.111 271.178 593.944 270.807 593.611C270.444 593.277 270.262 592.847 270.262 592.321C270.262 591.78 270.473 591.35 270.896 591.031C271.326 590.705 271.941 590.542 272.742 590.542H274.076C274.047 590.023 273.913 589.63 273.676 589.363C273.439 589.089 273.12 588.951 272.72 588.951C272.431 588.951 272.167 589.018 271.93 589.152C271.7 589.285 271.522 589.47 271.396 589.708L270.562 589.574C270.725 589.144 271.003 588.807 271.396 588.562C271.797 588.31 272.249 588.184 272.753 588.184ZM272.397 593.344C272.894 593.344 273.298 593.181 273.609 592.855C273.921 592.528 274.076 592.061 274.076 591.453V591.309H272.753C271.693 591.309 271.163 591.639 271.163 592.299C271.163 592.617 271.274 592.873 271.496 593.066C271.719 593.251 272.019 593.344 272.397 593.344ZM277.85 594H276.471V588.295H277.338V593.055H277.494L280.007 588.295H281.386V594H280.518V589.241H280.374L277.85 594ZM278.928 587.484C278.476 587.484 278.098 587.365 277.794 587.128C277.497 586.89 277.316 586.531 277.249 586.049H278.005C278.05 586.294 278.15 586.479 278.306 586.605C278.461 586.731 278.669 586.794 278.928 586.794C279.188 586.794 279.395 586.731 279.551 586.605C279.714 586.479 279.814 586.294 279.851 586.049H280.607C280.548 586.531 280.366 586.89 280.063 587.128C279.759 587.365 279.38 587.484 278.928 587.484ZM285.256 594H284.366V589.107H282.387V588.295H287.235V589.107H285.256V594ZM293.452 591.131C293.452 591.227 293.448 591.32 293.441 591.409H288.615C288.667 591.98 288.878 592.436 289.249 592.777C289.619 593.118 290.09 593.288 290.661 593.288C291.061 593.288 291.417 593.207 291.729 593.044C292.04 592.881 292.27 592.666 292.418 592.399L293.252 592.532C293.022 593.044 292.67 593.437 292.196 593.711C291.721 593.978 291.195 594.111 290.617 594.111C290.046 594.111 289.538 593.985 289.093 593.733C288.648 593.481 288.3 593.129 288.048 592.677C287.803 592.224 287.681 591.713 287.681 591.142C287.681 590.571 287.803 590.063 288.048 589.619C288.292 589.166 288.633 588.814 289.071 588.562C289.508 588.31 290.005 588.184 290.561 588.184C291.117 588.184 291.614 588.31 292.051 588.562C292.488 588.814 292.829 589.166 293.074 589.619C293.326 590.063 293.452 590.568 293.452 591.131ZM290.561 588.985C290.072 588.985 289.653 589.137 289.304 589.441C288.963 589.737 288.745 590.138 288.648 590.642H292.485C292.396 590.145 292.177 589.745 291.829 589.441C291.488 589.137 291.065 588.985 290.561 588.985ZM299.836 594.111C299.265 594.111 298.758 593.985 298.313 593.733C297.868 593.481 297.52 593.129 297.268 592.677C297.023 592.224 296.901 591.713 296.901 591.142C296.901 590.571 297.023 590.063 297.268 589.619C297.52 589.166 297.868 588.814 298.313 588.562C298.765 588.31 299.273 588.184 299.836 588.184C300.422 588.184 300.952 588.325 301.427 588.607C301.901 588.881 302.249 589.278 302.472 589.797L301.627 589.941C301.486 589.659 301.26 589.433 300.948 589.263C300.637 589.085 300.285 588.996 299.892 588.996C299.492 588.996 299.136 589.085 298.824 589.263C298.513 589.441 298.268 589.693 298.09 590.019C297.92 590.345 297.835 590.72 297.835 591.142C297.835 591.787 298.024 592.306 298.402 592.699C298.78 593.092 299.277 593.288 299.892 593.288C300.307 593.288 300.674 593.196 300.993 593.01C301.319 592.818 301.549 592.573 301.682 592.276L302.516 592.421C302.301 592.962 301.949 593.381 301.46 593.678C300.978 593.967 300.437 594.111 299.836 594.111ZM307.136 590.986C307.432 591.098 307.67 591.279 307.848 591.531C308.026 591.776 308.115 592.061 308.115 592.388C308.115 592.699 308.029 592.977 307.859 593.222C307.688 593.466 307.451 593.659 307.147 593.8C306.843 593.933 306.498 594 306.113 594H303.522V588.295H306.035C306.584 588.295 307.032 588.44 307.381 588.729C307.736 589.011 307.914 589.37 307.914 589.808C307.914 590.075 307.844 590.308 307.703 590.508C307.57 590.708 307.381 590.868 307.136 590.986ZM304.411 589.074V590.642H306.035C306.324 590.642 306.558 590.571 306.736 590.43C306.921 590.282 307.014 590.093 307.014 589.863C307.014 589.633 306.921 589.444 306.736 589.296C306.558 589.148 306.324 589.074 306.035 589.074H304.411ZM306.113 593.21C306.439 593.21 306.702 593.129 306.902 592.966C307.11 592.795 307.214 592.577 307.214 592.31C307.214 592.043 307.11 591.828 306.902 591.665C306.702 591.502 306.439 591.42 306.113 591.42H304.411V593.21H306.113ZM312.032 594.111C311.462 594.111 310.95 593.985 310.498 593.733C310.046 593.481 309.693 593.129 309.441 592.677C309.189 592.224 309.063 591.713 309.063 591.142C309.063 590.571 309.189 590.063 309.441 589.619C309.693 589.166 310.046 588.814 310.498 588.562C310.95 588.31 311.462 588.184 312.032 588.184C312.603 588.184 313.115 588.31 313.567 588.562C314.027 588.814 314.382 589.166 314.635 589.619C314.887 590.063 315.013 590.571 315.013 591.142C315.013 591.713 314.887 592.224 314.635 592.677C314.382 593.129 314.03 593.481 313.578 593.733C313.126 593.985 312.611 594.111 312.032 594.111ZM312.032 593.288C312.64 593.288 313.133 593.092 313.511 592.699C313.889 592.299 314.078 591.78 314.078 591.142C314.078 590.727 313.993 590.356 313.823 590.03C313.652 589.704 313.411 589.452 313.1 589.274C312.789 589.089 312.433 588.996 312.032 588.996C311.632 588.996 311.276 589.089 310.965 589.274C310.661 589.452 310.424 589.704 310.253 590.03C310.083 590.356 309.997 590.727 309.997 591.142C309.997 591.565 310.083 591.939 310.253 592.265C310.424 592.591 310.661 592.843 310.965 593.021C311.276 593.199 311.632 593.288 312.032 593.288ZM320.82 588.184C321.383 588.184 321.887 588.31 322.332 588.562C322.777 588.814 323.122 589.166 323.366 589.619C323.619 590.063 323.745 590.571 323.745 591.142C323.745 591.713 323.619 592.224 323.366 592.677C323.122 593.129 322.777 593.481 322.332 593.733C321.887 593.985 321.383 594.111 320.82 594.111C320.301 594.111 319.83 594.004 319.408 593.789C318.993 593.566 318.655 593.259 318.396 592.866C318.136 592.473 317.981 592.024 317.929 591.52H317.128V594H316.238V588.295H317.128V590.708H317.929C317.988 590.212 318.147 589.774 318.407 589.396C318.674 589.011 319.015 588.714 319.43 588.507C319.845 588.292 320.308 588.184 320.82 588.184ZM320.82 593.288C321.413 593.288 321.891 593.092 322.254 592.699C322.625 592.299 322.81 591.78 322.81 591.142C322.81 590.727 322.725 590.356 322.555 590.03C322.392 589.704 322.158 589.452 321.854 589.274C321.558 589.089 321.213 588.996 320.82 588.996C320.434 588.996 320.09 589.089 319.786 589.274C319.482 589.452 319.245 589.704 319.074 590.03C318.911 590.356 318.829 590.727 318.829 591.142C318.829 591.565 318.911 591.939 319.074 592.265C319.245 592.584 319.482 592.836 319.786 593.021C320.09 593.199 320.434 593.288 320.82 593.288ZM270.179 604H269L266.731 601.531H266.387V604H265.497V598.295H266.387V600.686H266.743L268.878 598.295H269.956L267.465 601.064L270.179 604ZM275.073 598.295H276.007L273.583 605.023C273.419 605.468 273.204 605.787 272.938 605.979C272.678 606.18 272.33 606.28 271.892 606.28H271.069L270.992 605.468H271.937C272.159 605.468 272.33 605.42 272.448 605.323C272.574 605.234 272.678 605.075 272.76 604.845L272.938 604.334L270.402 598.295H271.359L273.293 602.999H273.438L275.073 598.295ZM277.385 604H276.373L278.297 601.075L276.607 598.295H277.63L278.909 600.43H279.075L280.399 598.295H281.399L279.698 600.998L281.6 604H280.543L279.098 601.62H278.931L277.385 604ZM286.307 600.708V598.295H287.197V604H286.307V601.52H283.349V604H282.46V598.295H283.349V600.708H286.307ZM293.34 598.184C293.903 598.184 294.407 598.31 294.852 598.562C295.297 598.814 295.642 599.166 295.886 599.619C296.138 600.063 296.264 600.571 296.264 601.142C296.264 601.713 296.138 602.224 295.886 602.677C295.642 603.129 295.297 603.481 294.852 603.733C294.407 603.985 293.903 604.111 293.34 604.111C292.821 604.111 292.35 604.004 291.928 603.789C291.512 603.566 291.175 603.259 290.916 602.866C290.656 602.473 290.5 602.024 290.449 601.52H289.648V604H288.758V598.295H289.648V600.708H290.449C290.508 600.212 290.667 599.774 290.927 599.396C291.194 599.011 291.535 598.714 291.95 598.507C292.365 598.292 292.828 598.184 293.34 598.184ZM293.34 603.288C293.933 603.288 294.411 603.092 294.774 602.699C295.145 602.299 295.33 601.78 295.33 601.142C295.33 600.727 295.245 600.356 295.075 600.03C294.911 599.704 294.678 599.452 294.374 599.274C294.077 599.089 293.733 598.996 293.34 598.996C292.954 598.996 292.61 599.089 292.306 599.274C292.002 599.452 291.764 599.704 291.594 600.03C291.431 600.356 291.349 600.727 291.349 601.142C291.349 601.565 291.431 601.939 291.594 602.265C291.764 602.584 292.002 602.836 292.306 603.021C292.61 603.199 292.954 603.288 293.34 603.288Z" fill="#DADADA"/>-->
<!--    <path opacity="0.5" d="M254.21 621.371C254.046 621.43 253.882 621.489 253.717 621.548C253.538 621.62 253.367 621.686 253.195 621.766C253.008 621.846 252.836 621.926 252.657 622.013C252.535 622.073 252.413 622.133 252.291 622.207C252.09 622.315 251.888 622.422 251.701 622.53C251.694 622.537 251.68 622.551 251.672 622.558C250.88 623.044 250.178 623.597 249.553 624.202C243.512 630.142 244.995 641.672 245.895 648.333C245.947 648.738 246.007 649.122 246.046 649.484C246.314 651.5 247.544 653.997 249.424 656.802C250.129 657.855 250.919 658.953 251.792 660.081C252.945 661.593 254.244 663.172 255.626 664.796C258.05 667.638 260.752 670.615 263.517 673.629C263.915 674.051 264.306 674.494 264.711 674.922C268.293 678.816 271.93 682.74 275.191 686.483C275.554 686.896 275.931 687.296 276.324 687.682C288.471 699.551 314.675 695.763 323.109 691.222C323.403 691.067 323.684 690.884 323.959 690.694C324.016 690.653 324.06 690.612 324.118 690.571C324.342 690.415 324.552 690.244 324.762 690.073C324.798 690.039 324.834 690.005 324.871 689.97C325.089 689.764 325.307 689.558 325.518 689.345C325.532 689.331 325.547 689.317 325.562 689.304C328.662 685.989 329.754 680.46 330.008 674.759C330.175 670.887 329.968 666.955 329.739 663.582C329.7 662.972 329.66 662.377 329.62 661.81C329.584 661.335 329.555 660.867 329.525 660.428C329.405 658.656 329.121 656.971 328.672 655.345C328.231 653.713 327.631 652.147 326.876 650.618C326.314 649.471 325.674 648.356 324.955 647.26C324.501 646.561 324.011 645.882 323.507 645.203C323.207 644.798 322.893 644.407 322.572 644.009C322.278 643.654 321.984 643.299 321.675 642.944C321.059 642.233 320.421 641.529 319.748 640.83C319.411 640.474 319.068 640.125 318.717 639.782C318.345 639.418 317.96 639.039 317.574 638.674C316.865 637.996 316.127 637.317 315.361 636.638C314.174 635.585 312.931 634.531 311.624 633.468C311.134 633.065 310.636 632.669 310.131 632.266C309.349 631.642 308.553 631.018 307.737 630.387C307.211 629.975 306.671 629.564 306.124 629.145C304.199 627.676 302.176 626.175 300.077 624.622C298.505 623.453 296.842 622.479 295.118 621.659C292.822 620.568 290.432 619.757 288.009 619.171C287.404 619.027 286.8 618.896 286.188 618.773C271.59 615.945 256.54 620.779 256.54 620.779C256.121 620.859 255.722 620.947 255.33 621.056C255.187 621.094 255.052 621.14 254.916 621.172C254.681 621.243 254.445 621.314 254.217 621.392L254.21 621.371Z" fill="#663612"/>-->
<!--    <path d="M262.557 613.771C262.557 613.771 289.3 605.181 306.087 617.607C322.873 630.033 334.571 639.315 335.534 653.44C336.157 662.605 337.832 679.552 329.124 684.242C320.417 688.931 292.775 692.813 281.206 679.503C269.63 666.185 253.14 650.577 252.069 642.497C250.997 634.416 247.986 616.448 262.557 613.771Z" fill="#E8C59B"/>-->
<!--    <path d="M329.118 684.234C330.347 683.569 331.363 682.664 332.208 681.563C330.724 678.508 327.957 676.073 324.722 676.887C318.438 678.462 311.078 677.078 300.223 675.213C289.369 673.347 291.793 666.696 285.153 660.657C278.506 654.624 273.593 656.239 269.28 653.683C265.969 651.721 255.697 636.828 251.095 630.005C250.948 634.669 251.657 639.323 252.077 642.476C253.148 650.556 269.639 666.164 281.215 679.482C292.79 692.799 320.426 688.91 329.133 684.221L329.118 684.234Z" fill="#E1BA7F"/>-->
<!--    <path d="M335.519 653.44C334.571 639.315 322.866 630.04 306.073 617.607C289.286 605.181 262.543 613.771 262.543 613.771C259.506 614.328 257.243 615.558 255.555 617.208C257.19 618.153 259.297 618.941 261.692 618.797C267.255 618.468 284.33 617.497 294.167 624.299C304.005 631.101 301.724 635.91 310.359 637.232C318.994 638.553 323.863 638.493 326.988 645.005C329.619 650.485 331.82 668.572 335.995 667.778C336.22 662.614 335.777 657.324 335.513 653.433L335.519 653.44Z" fill="#FBDEBE"/>-->
<!--    <path d="M290.164 623.294C289.699 623.733 288.737 623.486 288.023 622.73C287.308 621.974 287.11 621.007 287.582 620.56C288.055 620.114 289.009 620.367 289.724 621.124C290.438 621.88 290.637 622.847 290.164 623.294Z" fill="#C09B64"/>-->
<!--    <path d="M325.249 662.138C324.784 662.578 323.822 662.331 323.107 661.575C322.393 660.819 322.195 659.851 322.667 659.405C323.14 658.959 324.094 659.212 324.809 659.968C325.523 660.724 325.722 661.692 325.249 662.138Z" fill="#C09B64"/>-->
<!--    <path d="M297.907 644.772C297.573 645.088 296.823 644.833 296.233 644.208C295.642 643.582 295.43 642.819 295.765 642.504C296.099 642.188 296.849 642.442 297.439 643.068C298.03 643.693 298.242 644.456 297.907 644.772Z" fill="#C09B64"/>-->
<!--    <path d="M291.938 674.538C291.603 674.854 290.853 674.599 290.263 673.974C289.672 673.349 289.461 672.586 289.795 672.27C290.129 671.954 290.879 672.209 291.47 672.834C292.06 673.459 292.272 674.222 291.938 674.538Z" fill="#C09B64"/>-->
<!--    <path d="M304.753 656.49C304.332 656.888 303.379 656.578 302.63 655.786C301.882 654.993 301.619 654.031 302.048 653.626C302.477 653.221 303.423 653.538 304.171 654.33C304.92 655.122 305.182 656.085 304.753 656.49Z" fill="#C09B64"/>-->
<!--    <path d="M271.954 648.708C271.532 649.107 270.579 648.796 269.83 648.004C269.082 647.212 268.819 646.249 269.248 645.844C269.677 645.439 270.623 645.756 271.371 646.548C272.12 647.341 272.382 648.303 271.954 648.708Z" fill="#C09B64"/>-->
<!--    <path d="M309.593 678.054C309.172 678.453 308.218 678.143 307.47 677.35C306.721 676.558 306.459 675.595 306.888 675.19C307.317 674.785 308.263 675.102 309.011 675.895C309.759 676.687 310.022 677.649 309.593 678.054Z" fill="#C09B64"/>-->
<!--    <path d="M312.964 656.561C313.487 657.115 314.136 657.352 314.413 657.091C314.69 656.829 314.491 656.168 313.967 655.614C313.444 655.059 312.795 654.822 312.518 655.084C312.241 655.346 312.441 656.007 312.964 656.561Z" fill="#C09B64"/>-->
<!--    <path d="M328.964 677.446C329.487 678 330.136 678.237 330.413 677.976C330.69 677.714 330.491 677.053 329.967 676.499C329.444 675.945 328.795 675.708 328.518 675.969C328.241 676.231 328.441 676.892 328.964 677.446Z" fill="#C09B64"/>-->
<!--    <path d="M312.607 642.566C312.33 642.827 311.679 642.589 311.157 642.036C310.635 641.484 310.435 640.82 310.711 640.559C310.988 640.298 311.639 640.536 312.161 641.089C312.682 641.641 312.883 642.305 312.607 642.566Z" fill="#C09B64"/>-->
<!--    <path d="M314.093 665.605C313.882 665.804 313.357 665.598 312.918 665.133C312.478 664.668 312.302 664.132 312.513 663.933C312.724 663.734 313.249 663.94 313.688 664.405C314.128 664.871 314.303 665.406 314.093 665.605Z" fill="#C09B64"/>-->
<!--    <path d="M323.372 639.343C323.161 639.542 322.636 639.336 322.197 638.871C321.757 638.405 321.582 637.87 321.792 637.671C322.003 637.471 322.528 637.677 322.967 638.143C323.407 638.608 323.583 639.143 323.372 639.343Z" fill="#C09B64"/>-->
<!--    <path d="M274.12 624.06C273.909 624.259 273.384 624.054 272.945 623.588C272.505 623.123 272.33 622.587 272.54 622.388C272.751 622.189 273.276 622.395 273.715 622.86C274.155 623.326 274.331 623.861 274.12 624.06Z" fill="#C09B64"/>-->
<!--    <path d="M303.701 627.372C303.49 627.571 302.965 627.365 302.526 626.9C302.086 626.435 301.911 625.899 302.122 625.7C302.332 625.501 302.857 625.707 303.297 626.172C303.736 626.637 303.912 627.173 303.701 627.372Z" fill="#C09B64"/>-->
<!--    <path d="M277.179 638.338C276.699 638.791 275.785 638.61 275.14 637.926C274.494 637.243 274.365 636.32 274.844 635.867C275.324 635.413 276.239 635.595 276.884 636.278C277.53 636.962 277.659 637.885 277.179 638.338Z" fill="#C09B64"/>-->
    <defs>
        <linearGradient id="paint0_linear_0_1" x1="395.174" y1="644.068" x2="371.27" y2="599.872" gradientUnits="userSpaceOnUse">
            <stop stop-color="#EDE7D9"/>
            <stop offset="1" stop-color="#569046"/>
        </linearGradient>
        <linearGradient id="paint1_linear_0_1" x1="391.854" y1="645.086" x2="382.476" y2="594.359" gradientUnits="userSpaceOnUse">
            <stop stop-color="#EDE7D9"/>
            <stop offset="1" stop-color="#569046"/>
        </linearGradient>
    </defs>
</svg>
