<svg width="123" height="161" viewBox="0 0 123 161" fill="none" xmlns="http://www.w3.org/2000/svg">
    <path d="M12.5357 92.7778C19.4593 130.17 55.3846 154.87 92.7773 147.947C130.17 141.023 154.87 105.098 147.946 67.7053C141.023 30.3127 105.097 5.61266 67.7048 12.5362C30.3122 19.4598 5.61215 55.3852 12.5357 92.7778Z" fill="#B22104"/>
    <path d="M21.2959 57.2406C15.7477 65.3468 12.5239 74.3992 11.4493 83.6734C12.5005 104.418 22.8844 124.45 41.3512 137.076C72.7365 158.545 115.592 150.497 137.061 119.1C137.867 117.932 138.614 116.741 139.338 115.538C146.65 89.8758 136.126 60.4294 111.434 43.5395C81.0413 22.76 40.6854 28.8922 21.2959 57.2406Z" fill="#FC2700"/>
    <path d="M56.2429 94.9922C56.2429 94.9922 63.2278 82.2138 74.2307 83.8841C74.2307 83.8841 73.6701 100.961 79.4752 105.318C79.4752 105.318 83.7853 92.808 87.9552 88.4278C87.9552 88.4278 90.5716 94.3148 102.673 97.7138C102.673 97.7138 93.3516 85.3909 93.1413 79.9829C93.1413 79.9829 104.682 75.0888 111.223 77.2263C111.223 77.2263 103.829 65.4875 94.3211 65.4291C94.3211 65.4291 88.4925 44.9065 84.2525 41.4258C84.2525 41.4258 83.4933 61.0022 81.3675 63.2565C81.3675 63.2565 67.5028 52.6507 52.7504 56.0263C52.7504 56.0263 73.6584 65.9313 71.7778 70.3582C71.4508 71.1174 54.0236 81.9802 56.2429 95.0039L56.2429 94.9922Z" fill="#B22104"/>
    <path d="M54.2702 97.8887C54.2702 97.8887 61.2551 85.1103 72.2581 86.7806C72.2581 86.7806 71.6974 103.857 77.5026 108.214C77.5026 108.214 81.8127 95.7045 85.9826 91.3243C85.9826 91.3243 88.599 97.2113 100.7 100.61C100.7 100.61 91.3789 88.2874 91.1687 82.8794C91.1687 82.8794 102.709 77.9853 109.25 80.1228C109.25 80.1228 101.856 68.384 92.3484 68.3256C92.3484 68.3256 86.5199 47.803 82.2799 44.3223C82.2799 44.3223 81.5207 63.8987 79.3948 66.153C79.3948 66.153 65.5301 55.5472 50.7778 58.9228C50.7778 58.9228 71.6857 68.8278 69.8052 73.2547C69.4781 74.0139 52.0509 84.8767 54.2702 97.9004L54.2702 97.8887Z" fill="#667402"/>
    <path d="M75.1552 75.041C74.501 74.7957 72.5621 73.9664 69.9106 72.8101C69.8989 72.9502 69.8639 73.1021 69.8055 73.2306C69.4901 73.9664 52.8806 84.3503 54.1537 96.9652C53.85 87.5624 79.582 76.6996 79.582 76.6996C79.582 76.6996 78.3322 76.2441 75.1552 75.041Z" fill="#585E03"/>
    <path d="M92.3484 68.3133C92.3484 68.3133 86.5199 47.7908 82.2799 44.3101C82.2799 44.3101 81.5207 63.8864 79.3948 66.1408C79.3948 66.1408 65.5301 55.535 50.7778 58.9106C61.9676 59.3895 86.6133 73.7097 86.6133 73.7097L91.5658 74.1652C96.5183 74.6208 109.25 80.1106 109.25 80.1106C109.25 80.1106 101.856 68.3717 92.3484 68.3133Z" fill="#585E03"/>
    <path d="M75.305 72.4715C77.7111 68.944 82.5235 68.0446 86.051 70.4508C89.5784 72.857 90.4778 77.6693 88.0717 81.1968C85.6655 84.7243 80.8532 85.6237 77.3257 83.2175C73.7982 80.8113 72.8988 75.999 75.305 72.4715Z" fill="#585E03"/>
    <path d="M76.0061 76.1629C78.4123 72.6354 83.2246 71.736 86.7521 74.1422C90.2796 76.5484 91.179 81.3607 88.7728 84.8882C86.3667 88.4157 81.5543 89.3151 78.0268 86.9089C74.4994 84.5027 73.6 79.6904 76.0061 76.1629Z" fill="#7F8902"/>
    <path d="M13.9135 82.9843C14.7661 103.18 24.7996 122.721 42.7641 135.009C67.4449 151.887 99.4609 149.831 121.654 132.077C123.02 130.991 121.642 128.83 120.089 129.648C98.1411 141.153 69.6758 139.926 46.5953 124.146C31.2823 113.669 21.0736 98.6711 16.7518 82.5638C16.3079 80.9052 13.8317 81.2789 13.9135 82.9843Z" fill="#F45540"/>
</svg>
